SplineFontDB: 3.0
FontName: Hammersmith
FullName: Hammersmith
FamilyName: Hammersmith
Weight: Book
Copyright: Copyright (c) 2011 by Sorkin Type Co with Reserved Font Name Hammersmith.\n\nThis Font Software is licensed under the SIL Open Font License, Version 1.1. This license is available with a FAQ at: http://scripts.sil.org/OFL
Version: 1.001
ItalicAngle: 0
UnderlinePosition: -50
UnderlineWidth: 50
Ascent: 1638
Descent: 410
sfntRevision: 0x00010041
LayerCount: 2
Layer: 0 1 "Back"  1
Layer: 1 1 "Fore"  0
XUID: [1021 288 713564382 8903278]
FSType: 0
OS2Version: 3
OS2_WeightWidthSlopeOnly: 0
OS2_UseTypoMetrics: 1
CreationTime: 1306922700
ModificationTime: 1307079447
PfmFamily: 17
TTFWeight: 400
TTFWidth: 5
LineGap: 0
VLineGap: 0
Panose: 2 0 5 2 3 5 1 1 1 4
OS2TypoAscent: 235
OS2TypoAOffset: 1
OS2TypoDescent: -306
OS2TypoDOffset: 1
OS2TypoLinegap: 0
OS2WinAscent: 0
OS2WinAOffset: 1
OS2WinDescent: 0
OS2WinDOffset: 1
HheadAscent: 0
HheadAOffset: 1
HheadDescent: 0
HheadDOffset: 1
OS2SubXSize: 1434
OS2SubYSize: 1331
OS2SubXOff: 0
OS2SubYOff: 287
OS2SupXSize: 1434
OS2SupYSize: 1331
OS2SupXOff: 0
OS2SupYOff: 977
OS2StrikeYSize: 102
OS2StrikeYPos: 512
OS2Vendor: 'STC '
OS2CodePages: 20000111.40000000
OS2UnicodeRanges: 800000a7.00000002.00000000.00000000
DEI: 91125
TtTable: prep
PUSHW_1
 511
SCANCTRL
PUSHB_1
 4
SCANTYPE
EndTTInstrs
ShortTable: maxp 16
  1
  0
  252
  104
  5
  0
  0
  1
  0
  0
  0
  0
  0
  0
  0
  0
EndShort

StartChar: exclam
Encoding: 33 33 23
Width: 530
Flags: W
LayerCount: 2
Fore
SplineSet
134 1358 m 1,0,1
 159 1357 159 1357 175.5 1356 c 128,-1,2
 192 1355 192 1355 204 1354.5 c 128,-1,3
 216 1354 216 1354 225.5 1354 c 128,-1,4
 235 1354 235 1354 247 1354 c 0,5,6
 300 1354 300 1354 339.5 1356 c 128,-1,7
 379 1358 379 1358 395 1362 c 1,8,-1
 391 374 l 1,9,10
 374 376 374 376 325 378 c 128,-1,11
 276 380 276 380 216 380 c 2,12,-1
 136 380 l 1,13,-1
 134 1358 l 1,0,1
132 0 m 1,14,15
 136 31 136 31 138 62.5 c 128,-1,16
 140 94 140 94 140 126 c 0,17,18
 140 155 140 155 138 188 c 128,-1,19
 136 221 136 221 134 240 c 1,20,-1
 397 240 l 1,21,22
 395 215 395 215 394 178.5 c 128,-1,23
 393 142 393 142 393 114 c 0,24,25
 393 82 393 82 393.5 54 c 128,-1,26
 394 26 394 26 397 0 c 1,27,-1
 132 0 l 1,14,15
EndSplineSet
EndChar

StartChar: quotedbl
Encoding: 34 34 24
Width: 871
Flags: W
LayerCount: 2
Fore
SplineSet
566 1110 m 2,0,1
 562 1237 562 1237 558 1313 c 128,-1,2
 554 1389 554 1389 550 1430 c 1,3,-1
 801 1430 l 1,4,5
 797 1393 797 1393 792 1313.5 c 128,-1,6
 787 1234 787 1234 784 1109 c 2,7,-1
 781 977 l 1,8,-1
 570 977 l 1,9,-1
 566 1110 l 2,0,1
176 1110 m 2,10,11
 172 1237 172 1237 168 1313 c 128,-1,12
 164 1389 164 1389 160 1430 c 1,13,-1
 411 1430 l 1,14,15
 407 1393 407 1393 402 1313.5 c 128,-1,16
 397 1234 397 1234 394 1109 c 2,17,-1
 391 977 l 1,18,-1
 180 977 l 1,19,-1
 176 1110 l 2,10,11
EndSplineSet
EndChar

StartChar: numbersign
Encoding: 35 35 25
Width: 1414
Flags: W
LayerCount: 2
Fore
SplineSet
339 496 m 1,0,-1
 298 496 l 2,1,2
 266 496 266 496 234.5 495 c 128,-1,3
 203 494 203 494 174 491 c 1,4,-1
 177 698 l 1,5,6
 192 694 192 694 222.5 693 c 128,-1,7
 253 692 253 692 309 692 c 2,8,-1
 367 692 l 1,9,-1
 395 893 l 1,10,-1
 325 893 l 2,11,12
 293 893 293 893 261.5 892 c 128,-1,13
 230 891 230 891 201 888 c 1,14,-1
 204 1095 l 1,15,16
 219 1091 219 1091 249.5 1090 c 128,-1,17
 280 1089 280 1089 336 1089 c 2,18,-1
 422 1089 l 1,19,-1
 467 1410 l 1,20,-1
 693 1410 l 1,21,-1
 648 1089 l 1,22,-1
 832 1089 l 1,23,-1
 877 1410 l 1,24,-1
 1103 1410 l 1,25,-1
 1058 1089 l 1,26,-1
 1105 1089 l 2,27,28
 1161 1089 1161 1089 1191.5 1090 c 128,-1,29
 1222 1091 1222 1091 1237 1095 c 1,30,-1
 1240 888 l 1,31,32
 1211 891 1211 891 1179.5 892 c 128,-1,33
 1148 893 1148 893 1116 893 c 2,34,-1
 1031 893 l 1,35,-1
 1003 692 l 1,36,-1
 1058 692 l 2,37,38
 1114 692 1114 692 1144.5 693 c 128,-1,39
 1175 694 1175 694 1190 698 c 1,40,-1
 1193 491 l 1,41,42
 1164 494 1164 494 1132.5 495 c 128,-1,43
 1101 496 1101 496 1069 496 c 2,44,-1
 975 496 l 1,45,-1
 931 177 l 1,46,-1
 705 177 l 1,47,-1
 749 496 l 1,48,-1
 565 496 l 1,49,-1
 521 177 l 1,50,-1
 295 177 l 1,51,-1
 339 496 l 1,0,-1
777 692 m 1,52,-1
 805 893 l 1,53,-1
 621 893 l 1,54,-1
 593 692 l 1,55,-1
 777 692 l 1,52,-1
EndSplineSet
EndChar

StartChar: dollar
Encoding: 36 36 26
Width: 1125
Flags: W
LayerCount: 2
Fore
SplineSet
149 362 m 1,0,-1
 156 368 l 1,1,2
 174 341 174 341 214 313.5 c 128,-1,3
 254 286 254 286 306.5 264 c 128,-1,4
 359 242 359 242 419 228.5 c 128,-1,5
 479 215 479 215 538 215 c 0,6,7
 589 215 589 215 631 227 c 128,-1,8
 673 239 673 239 703 260 c 128,-1,9
 733 281 733 281 750 309 c 128,-1,10
 767 337 767 337 767 369 c 0,11,12
 767 395 767 395 756.5 417 c 128,-1,13
 746 439 746 439 720 460 c 128,-1,14
 694 481 694 481 650.5 503 c 128,-1,15
 607 525 607 525 541 551 c 0,16,17
 435 593 435 593 364.5 636 c 128,-1,18
 294 679 294 679 251.5 727 c 128,-1,19
 209 775 209 775 191.5 830 c 128,-1,20
 174 885 174 885 174 950 c 0,21,22
 174 1008 174 1008 196.5 1066.5 c 128,-1,23
 219 1125 219 1125 261 1176 c 128,-1,24
 303 1227 303 1227 362.5 1267.5 c 128,-1,25
 422 1308 422 1308 497 1331 c 1,26,-1
 497 1411 l 2,27,28
 497 1467 497 1467 494.5 1499 c 128,-1,29
 492 1531 492 1531 488 1546 c 1,30,-1
 757 1546 l 1,31,32
 755 1517 755 1517 754 1485.5 c 128,-1,33
 753 1454 753 1454 753 1422 c 2,34,-1
 753 1348 l 1,35,36
 855 1333 855 1333 950 1284 c 1,37,-1
 919 1037 l 1,38,-1
 912 1035 l 1,39,40
 877 1054 877 1054 839 1069 c 128,-1,41
 801 1084 801 1084 764.5 1094.5 c 128,-1,42
 728 1105 728 1105 695 1110.5 c 128,-1,43
 662 1116 662 1116 637 1116 c 0,44,45
 589 1116 589 1116 550.5 1103.5 c 128,-1,46
 512 1091 512 1091 485 1071.5 c 128,-1,47
 458 1052 458 1052 444 1027 c 128,-1,48
 430 1002 430 1002 430 977 c 0,49,50
 430 954 430 954 441.5 931.5 c 128,-1,51
 453 909 453 909 480 886.5 c 128,-1,52
 507 864 507 864 552 841.5 c 128,-1,53
 597 819 597 819 665 797 c 0,54,55
 767 763 767 763 836 723.5 c 128,-1,56
 905 684 905 684 947 637.5 c 128,-1,57
 989 591 989 591 1007 536.5 c 128,-1,58
 1025 482 1025 482 1025 418 c 0,59,60
 1025 353 1025 353 1002.5 285 c 128,-1,61
 980 217 980 217 934 157.5 c 128,-1,62
 888 98 888 98 818 52.5 c 128,-1,63
 748 7 748 7 653 -12 c 1,64,-1
 653 -71 l 1,65,66
 654 -103 654 -103 654.5 -134.5 c 128,-1,67
 655 -166 655 -166 657 -195 c 1,68,-1
 388 -195 l 1,69,70
 392 -180 392 -180 394.5 -148 c 128,-1,71
 397 -116 397 -116 397 -60 c 2,72,-1
 397 -13 l 1,73,74
 305 3 305 3 231 36.5 c 128,-1,75
 157 70 157 70 120 110 c 1,76,-1
 149 362 l 1,0,-1
EndSplineSet
EndChar

StartChar: percent
Encoding: 37 37 27
Width: 2158
Flags: W
LayerCount: 2
Fore
SplineSet
517 612 m 0,0,1
 433 612 433 612 360 639 c 128,-1,2
 287 666 287 666 234 714.5 c 128,-1,3
 181 763 181 763 150.5 830 c 128,-1,4
 120 897 120 897 120 977 c 0,5,6
 120 1045 120 1045 145.5 1112.5 c 128,-1,7
 171 1180 171 1180 223 1234 c 128,-1,8
 275 1288 275 1288 354 1321.5 c 128,-1,9
 433 1355 433 1355 539 1355 c 0,10,11
 634 1355 634 1355 708 1324 c 128,-1,12
 782 1293 782 1293 833 1241.5 c 128,-1,13
 884 1190 884 1190 910.5 1123 c 128,-1,14
 937 1056 937 1056 937 985 c 0,15,16
 937 910 937 910 907 842.5 c 128,-1,17
 877 775 877 775 822.5 724 c 128,-1,18
 768 673 768 673 690.5 642.5 c 128,-1,19
 613 612 613 612 517 612 c 0,0,1
1378 1330 m 1,20,-1
 1623 1330 l 1,21,-1
 743 0 l 1,22,-1
 498 0 l 1,23,-1
 1378 1330 l 1,20,-1
535 843 m 0,24,25
 573 843 573 843 603.5 854.5 c 128,-1,26
 634 866 634 866 655.5 886 c 128,-1,27
 677 906 677 906 688.5 932.5 c 128,-1,28
 700 959 700 959 700 988 c 0,29,30
 700 1014 700 1014 688.5 1039.5 c 128,-1,31
 677 1065 677 1065 655.5 1085 c 128,-1,32
 634 1105 634 1105 602 1117.5 c 128,-1,33
 570 1130 570 1130 529 1130 c 0,34,35
 489 1130 489 1130 458 1118 c 128,-1,36
 427 1106 427 1106 405.5 1086 c 128,-1,37
 384 1066 384 1066 373 1039.5 c 128,-1,38
 362 1013 362 1013 362 985 c 256,39,40
 362 957 362 957 373.5 931.5 c 128,-1,41
 385 906 385 906 407 886.5 c 128,-1,42
 429 867 429 867 461 855 c 128,-1,43
 493 843 493 843 535 843 c 0,24,25
1221 340 m 0,44,45
 1221 408 1221 408 1246.5 475.5 c 128,-1,46
 1272 543 1272 543 1324 597 c 128,-1,47
 1376 651 1376 651 1455 684.5 c 128,-1,48
 1534 718 1534 718 1640 718 c 0,49,50
 1735 718 1735 718 1809 687 c 128,-1,51
 1883 656 1883 656 1934 604.5 c 128,-1,52
 1985 553 1985 553 2011.5 486 c 128,-1,53
 2038 419 2038 419 2038 348 c 0,54,55
 2038 273 2038 273 2008 205.5 c 128,-1,56
 1978 138 1978 138 1923.5 87 c 128,-1,57
 1869 36 1869 36 1791.5 5.5 c 128,-1,58
 1714 -25 1714 -25 1618 -25 c 0,59,60
 1534 -25 1534 -25 1461 2 c 128,-1,61
 1388 29 1388 29 1335 77.5 c 128,-1,62
 1282 126 1282 126 1251.5 193 c 128,-1,63
 1221 260 1221 260 1221 340 c 0,44,45
1463 348 m 256,64,65
 1463 320 1463 320 1474.5 294.5 c 128,-1,66
 1486 269 1486 269 1508 249.5 c 128,-1,67
 1530 230 1530 230 1562 218 c 128,-1,68
 1594 206 1594 206 1636 206 c 0,69,70
 1674 206 1674 206 1704.5 217.5 c 128,-1,71
 1735 229 1735 229 1756.5 249 c 128,-1,72
 1778 269 1778 269 1789.5 295.5 c 128,-1,73
 1801 322 1801 322 1801 351 c 0,74,75
 1801 377 1801 377 1789.5 402.5 c 128,-1,76
 1778 428 1778 428 1756.5 448 c 128,-1,77
 1735 468 1735 468 1703 480.5 c 128,-1,78
 1671 493 1671 493 1630 493 c 0,79,80
 1590 493 1590 493 1559 481 c 128,-1,81
 1528 469 1528 469 1506.5 449 c 128,-1,82
 1485 429 1485 429 1474 402.5 c 128,-1,83
 1463 376 1463 376 1463 348 c 256,64,65
EndSplineSet
EndChar

StartChar: ampersand
Encoding: 38 38 28
Width: 1414
Flags: W
LayerCount: 2
Fore
SplineSet
100 442 m 0,0,1
 100 505 100 505 118 563 c 128,-1,2
 136 621 136 621 167.5 670 c 128,-1,3
 199 719 199 719 243 757.5 c 128,-1,4
 287 796 287 796 340 821 c 1,5,6
 316 869 316 869 306 912 c 128,-1,7
 296 955 296 955 296 1000 c 0,8,9
 296 1078 296 1078 326 1143 c 128,-1,10
 356 1208 356 1208 409 1255 c 128,-1,11
 462 1302 462 1302 536 1328.5 c 128,-1,12
 610 1355 610 1355 699 1355 c 0,13,14
 770 1355 770 1355 829 1337 c 128,-1,15
 888 1319 888 1319 930 1295 c 1,16,17
 925 1271 925 1271 922 1240 c 128,-1,18
 919 1209 919 1209 917.5 1179 c 128,-1,19
 916 1149 916 1149 915.5 1123 c 128,-1,20
 915 1097 915 1097 917 1081 c 0,21,22
 918 1069 918 1069 919 1062.5 c 128,-1,23
 920 1056 920 1056 920.5 1052.5 c 128,-1,24
 921 1049 921 1049 922 1046 c 128,-1,25
 923 1043 923 1043 924 1038 c 1,26,-1
 919 1031 l 1,27,28
 907 1049 907 1049 883.5 1065.5 c 128,-1,29
 860 1082 860 1082 829.5 1095.5 c 128,-1,30
 799 1109 799 1109 764 1117 c 128,-1,31
 729 1125 729 1125 693 1125 c 0,32,33
 619 1125 619 1125 583.5 1092 c 128,-1,34
 548 1059 548 1059 548 1009 c 0,35,36
 548 990 548 990 552.5 969 c 128,-1,37
 557 948 557 948 570 922 c 128,-1,38
 583 896 583 896 607 864 c 128,-1,39
 631 832 631 832 669.5 790 c 128,-1,40
 708 748 708 748 762.5 695 c 128,-1,41
 817 642 817 642 893 574 c 2,42,-1
 997 480 l 1,43,44
 1012 521 1012 521 1020.5 566.5 c 128,-1,45
 1029 612 1029 612 1029 663 c 0,46,47
 1029 686 1029 686 1024 705 c 128,-1,48
 1019 724 1019 724 1012.5 738 c 128,-1,49
 1006 752 1006 752 999 761 c 128,-1,50
 992 770 992 770 988 773 c 1,51,-1
 988 785 l 1,52,53
 1002 779 1002 779 1020 770 c 0,54,55
 1035 762 1035 762 1055.5 751.5 c 128,-1,56
 1076 741 1076 741 1101 728 c 0,57,58
 1182 684 1182 684 1214 658.5 c 128,-1,59
 1246 633 1246 633 1246 619 c 0,60,61
 1246 542 1246 542 1230.5 466 c 128,-1,62
 1215 390 1215 390 1183 319 c 1,63,64
 1222 287 1222 287 1249.5 266.5 c 128,-1,65
 1277 246 1277 246 1296.5 234.5 c 128,-1,66
 1316 223 1316 223 1329 219 c 128,-1,67
 1342 215 1342 215 1352 215 c 0,68,69
 1372 215 1372 215 1384 222 c 128,-1,70
 1396 229 1396 229 1403 238 c 1,71,-1
 1408 232 l 1,72,-1
 1305 -11 l 1,73,74
 1297 -17 1297 -17 1287 -21 c 128,-1,75
 1277 -25 1277 -25 1257 -25 c 0,76,77
 1243 -25 1243 -25 1225.5 -19.5 c 128,-1,78
 1208 -14 1208 -14 1182.5 1 c 128,-1,79
 1157 16 1157 16 1120.5 43 c 128,-1,80
 1084 70 1084 70 1032 113 c 1,81,82
 958 49 958 49 858 12 c 128,-1,83
 758 -25 758 -25 627 -25 c 0,84,85
 511 -25 511 -25 414 11.5 c 128,-1,86
 317 48 317 48 247 111.5 c 128,-1,87
 177 175 177 175 138.5 260 c 128,-1,88
 100 345 100 345 100 442 c 0,0,1
351 459 m 0,89,90
 351 410 351 410 373 365.5 c 128,-1,91
 395 321 395 321 433.5 287.5 c 128,-1,92
 472 254 472 254 524.5 234.5 c 128,-1,93
 577 215 577 215 637 215 c 0,94,95
 750 215 750 215 843 279 c 1,96,-1
 735 378 l 2,97,98
 645 460 645 460 577.5 527.5 c 128,-1,99
 510 595 510 595 460 652 c 1,100,101
 351 573 351 573 351 459 c 0,89,90
EndSplineSet
EndChar

StartChar: quotesingle
Encoding: 39 39 29
Width: 530
Flags: W
LayerCount: 2
Fore
SplineSet
156 1110 m 2,0,1
 152 1237 152 1237 148 1313 c 128,-1,2
 144 1389 144 1389 140 1430 c 1,3,-1
 391 1430 l 1,4,5
 387 1393 387 1393 382 1313.5 c 128,-1,6
 377 1234 377 1234 374 1109 c 2,7,-1
 371 977 l 1,8,-1
 160 977 l 1,9,-1
 156 1110 l 2,0,1
EndSplineSet
EndChar

StartChar: parenleft
Encoding: 40 40 30
Width: 885
Flags: W
LayerCount: 2
Fore
SplineSet
478 -100 m 1,0,1
 325 32 325 32 242.5 229 c 128,-1,2
 160 426 160 426 160 680 c 0,3,4
 160 787 160 787 180 892 c 128,-1,5
 200 997 200 997 240 1093.5 c 128,-1,6
 280 1190 280 1190 339.5 1276 c 128,-1,7
 399 1362 399 1362 478 1430 c 1,8,-1
 734 1430 l 1,9,-1
 734 1424 l 1,10,11
 648 1346 648 1346 587.5 1264 c 128,-1,12
 527 1182 527 1182 488.5 1090.5 c 128,-1,13
 450 999 450 999 432 896.5 c 128,-1,14
 414 794 414 794 414 675 c 0,15,16
 414 456 414 456 491.5 264.5 c 128,-1,17
 569 73 569 73 724 -94 c 1,18,-1
 724 -100 l 1,19,-1
 478 -100 l 1,20,-1
 478 -100 l 1,0,1
EndSplineSet
EndChar

StartChar: parenright
Encoding: 41 41 31
Width: 885
Flags: W
LayerCount: 2
Fore
SplineSet
161 -94 m 1,0,1
 316 73 316 73 393.5 264.5 c 128,-1,2
 471 456 471 456 471 675 c 0,3,4
 471 794 471 794 453 896.5 c 128,-1,5
 435 999 435 999 396.5 1090.5 c 128,-1,6
 358 1182 358 1182 297 1264 c 128,-1,7
 236 1346 236 1346 151 1424 c 1,8,-1
 151 1430 l 1,9,-1
 407 1430 l 1,10,11
 486 1362 486 1362 545.5 1276 c 128,-1,12
 605 1190 605 1190 645 1093.5 c 128,-1,13
 685 997 685 997 705 892 c 128,-1,14
 725 787 725 787 725 680 c 0,15,16
 725 426 725 426 642.5 229 c 128,-1,17
 560 32 560 32 407 -100 c 1,18,-1
 161 -100 l 1,19,-1
 161 -94 l 1,20,-1
 161 -94 l 1,0,1
EndSplineSet
EndChar

StartChar: asterisk
Encoding: 42 42 32
Width: 1239
Flags: W
LayerCount: 2
Fore
SplineSet
503 724 m 1,0,1
 503 725 503 725 504.5 754 c 128,-1,2
 506 783 506 783 508 825.5 c 128,-1,3
 510 868 510 868 512 916.5 c 128,-1,4
 514 965 514 965 516 1005 c 1,5,-1
 281 842 l 1,6,-1
 153 1033 l 1,7,-1
 394 1166 l 1,8,-1
 154 1336 l 1,9,-1
 311 1516 l 1,10,-1
 515 1333 l 1,11,-1
 496 1605 l 1,12,-1
 740 1605 l 1,13,-1
 720 1319 l 1,14,-1
 926 1488 l 1,15,-1
 1077 1307 l 1,16,-1
 820 1160 l 1,17,-1
 1087 1011 l 1,18,-1
 953 825 l 1,19,-1
 722 994 l 1,20,-1
 736 724 l 1,21,-1
 503 724 l 1,22,-1
 503 724 l 1,0,1
EndSplineSet
EndChar

StartChar: plus
Encoding: 43 43 33
Width: 1239
Flags: W
LayerCount: 2
Fore
SplineSet
496 157 m 1,0,1
 500 172 500 172 501 202.5 c 128,-1,2
 502 233 502 233 502 289 c 2,3,-1
 502 500 l 1,4,-1
 289 500 l 2,5,6
 257 500 257 500 225.5 499 c 128,-1,7
 194 498 194 498 165 495 c 1,8,-1
 168 742 l 1,9,10
 183 738 183 738 213.5 737 c 128,-1,11
 244 736 244 736 300 736 c 2,12,-1
 502 736 l 1,13,-1
 502 928 l 2,14,15
 502 984 502 984 501 1014.5 c 128,-1,16
 500 1045 500 1045 496 1060 c 1,17,-1
 743 1063 l 1,18,19
 740 1034 740 1034 739 1002.5 c 128,-1,20
 738 971 738 971 738 939 c 2,21,-1
 738 736 l 1,22,-1
 939 736 l 2,23,24
 995 736 995 736 1025.5 737 c 128,-1,25
 1056 738 1056 738 1071 742 c 1,26,-1
 1074 495 l 1,27,28
 1045 498 1045 498 1013.5 499 c 128,-1,29
 982 500 982 500 950 500 c 2,30,-1
 738 500 l 1,31,-1
 738 278 l 2,32,33
 738 246 738 246 739 214.5 c 128,-1,34
 740 183 740 183 743 154 c 1,35,-1
 496 157 l 1,36,-1
 496 157 l 1,0,1
EndSplineSet
EndChar

StartChar: comma
Encoding: 44 44 34
Width: 530
Flags: W
LayerCount: 2
Fore
SplineSet
157 43 m 0,0,1
 157 82 157 82 155 125.5 c 128,-1,2
 153 169 153 169 146 220 c 1,3,-1
 395 260 l 1,4,5
 399 232 399 232 402.5 209 c 128,-1,6
 406 186 406 186 407.5 165 c 128,-1,7
 409 144 409 144 410 123.5 c 128,-1,8
 411 103 411 103 411 82 c 0,9,10
 411 34 411 34 405 -16.5 c 128,-1,11
 399 -67 399 -67 388.5 -110 c 128,-1,12
 378 -153 378 -153 364.5 -183 c 128,-1,13
 351 -213 351 -213 337 -222 c 0,14,15
 326 -229 326 -229 307.5 -236.5 c 128,-1,16
 289 -244 289 -244 261.5 -253 c 128,-1,17
 234 -262 234 -262 194.5 -271.5 c 128,-1,18
 155 -281 155 -281 102 -292 c 1,19,-1
 96 -286 l 1,20,21
 105 -270 105 -270 115.5 -235.5 c 128,-1,22
 126 -201 126 -201 135 -156 c 128,-1,23
 144 -111 144 -111 150.5 -59 c 128,-1,24
 157 -7 157 -7 157 43 c 0,0,1
EndSplineSet
EndChar

StartChar: hyphen
Encoding: 45 45 35
Width: 1239
Flags: W
LayerCount: 2
Fore
SplineSet
328 742 m 1,0,1
 343 738 343 738 373.5 737 c 128,-1,2
 404 736 404 736 460 736 c 2,3,-1
 779 736 l 2,4,5
 835 736 835 736 865.5 737 c 128,-1,6
 896 738 896 738 911 742 c 1,7,-1
 914 495 l 1,8,9
 885 498 885 498 853.5 499 c 128,-1,10
 822 500 822 500 790 500 c 2,11,-1
 449 500 l 2,12,13
 417 500 417 500 385.5 499 c 128,-1,14
 354 498 354 498 325 495 c 1,15,-1
 328 742 l 1,0,1
EndSplineSet
EndChar

StartChar: period
Encoding: 46 46 36
Width: 530
Flags: W
LayerCount: 2
Fore
SplineSet
119 0 m 1,0,1
 124 34 124 34 126 69 c 128,-1,2
 128 104 128 104 128 139 c 0,3,4
 128 155 128 155 127.5 172.5 c 128,-1,5
 127 190 127 190 126 207 c 128,-1,6
 125 224 125 224 123.5 239 c 128,-1,7
 122 254 122 254 121 264 c 1,8,-1
 411 264 l 1,9,10
 410 250 410 250 409 232.5 c 128,-1,11
 408 215 408 215 407.5 196.5 c 128,-1,12
 407 178 407 178 406.5 159.5 c 128,-1,13
 406 141 406 141 406 126 c 0,14,15
 406 91 406 91 406.5 60 c 128,-1,16
 407 29 407 29 411 0 c 1,17,-1
 119 0 l 1,18,-1
 119 0 l 1,0,1
EndSplineSet
EndChar

StartChar: slash
Encoding: 47 47 37
Width: 885
Flags: W
LayerCount: 2
Fore
SplineSet
504 1330 m 1,0,-1
 760 1330 l 1,1,-1
 380 0 l 1,2,-1
 124 0 l 1,3,-1
 504 1330 l 1,0,-1
EndSplineSet
EndChar

StartChar: zero
Encoding: 48 48 38
Width: 1325
Flags: W
LayerCount: 2
Fore
SplineSet
100 637 m 0,0,1
 100 784 100 784 143 914.5 c 128,-1,2
 186 1045 186 1045 263.5 1143 c 128,-1,3
 341 1241 341 1241 449.5 1298 c 128,-1,4
 558 1355 558 1355 690 1355 c 0,5,6
 817 1355 817 1355 916.5 1305.5 c 128,-1,7
 1016 1256 1016 1256 1084.5 1166.5 c 128,-1,8
 1153 1077 1153 1077 1189 952.5 c 128,-1,9
 1225 828 1225 828 1225 679 c 0,10,11
 1225 506 1225 506 1179 374 c 128,-1,12
 1133 242 1133 242 1054.5 153.5 c 128,-1,13
 976 65 976 65 872 20 c 128,-1,14
 768 -25 768 -25 653 -25 c 0,15,16
 533 -25 533 -25 432 23 c 128,-1,17
 331 71 331 71 257 158 c 128,-1,18
 183 245 183 245 141.5 367 c 128,-1,19
 100 489 100 489 100 637 c 0,0,1
676 215 m 0,20,21
 731 215 731 215 783.5 243.5 c 128,-1,22
 836 272 836 272 877.5 327.5 c 128,-1,23
 919 383 919 383 944.5 465.5 c 128,-1,24
 970 548 970 548 970 657 c 0,25,26
 970 762 970 762 950.5 846.5 c 128,-1,27
 931 931 931 931 892.5 991 c 128,-1,28
 854 1051 854 1051 798 1083.5 c 128,-1,29
 742 1116 742 1116 670 1116 c 256,30,31
 598 1116 598 1116 539.5 1084 c 128,-1,32
 481 1052 481 1052 440 992 c 128,-1,33
 399 932 399 932 377 845 c 128,-1,34
 355 758 355 758 355 648 c 0,35,36
 355 557 355 557 378 478 c 128,-1,37
 401 399 401 399 443.5 340.5 c 128,-1,38
 486 282 486 282 545 248.5 c 128,-1,39
 604 215 604 215 676 215 c 0,20,21
EndSplineSet
EndChar

StartChar: one
Encoding: 49 49 39
Width: 569
Flags: W
LayerCount: 2
Fore
SplineSet
157 1330 m 1,0,-1
 412 1330 l 1,1,-1
 412 0 l 1,2,-1
 157 0 l 1,3,-1
 157 1330 l 1,0,-1
EndSplineSet
EndChar

StartChar: two
Encoding: 50 50 40
Width: 1112
Flags: W
LayerCount: 2
Fore
SplineSet
521 600 m 2,0,1
 576 670 576 670 612 721.5 c 128,-1,2
 648 773 648 773 670 813 c 128,-1,3
 692 853 692 853 701 884.5 c 128,-1,4
 710 916 710 916 710 947 c 0,5,6
 710 987 710 987 694 1018.5 c 128,-1,7
 678 1050 678 1050 649.5 1071.5 c 128,-1,8
 621 1093 621 1093 581.5 1104 c 128,-1,9
 542 1115 542 1115 495 1115 c 0,10,11
 444 1115 444 1115 391.5 1100.5 c 128,-1,12
 339 1086 339 1086 293.5 1063.5 c 128,-1,13
 248 1041 248 1041 212.5 1012.5 c 128,-1,14
 177 984 177 984 159 957 c 1,15,-1
 146 955 l 1,16,-1
 154 1263 l 1,17,18
 179 1279 179 1279 218.5 1295 c 128,-1,19
 258 1311 258 1311 304 1324.5 c 128,-1,20
 350 1338 350 1338 399.5 1346.5 c 128,-1,21
 449 1355 449 1355 494 1355 c 0,22,23
 626 1355 626 1355 716 1322 c 128,-1,24
 806 1289 806 1289 861.5 1234.5 c 128,-1,25
 917 1180 917 1180 941.5 1109.5 c 128,-1,26
 966 1039 966 1039 966 964 c 0,27,28
 966 930 966 930 961.5 894.5 c 128,-1,29
 957 859 957 859 941.5 816 c 128,-1,30
 926 773 926 773 898 719.5 c 128,-1,31
 870 666 870 666 823.5 597 c 128,-1,32
 777 528 777 528 708.5 440 c 128,-1,33
 640 352 640 352 545 240 c 1,34,-1
 859 240 l 2,35,36
 925 240 925 240 962.5 245.5 c 128,-1,37
 1000 251 1000 251 1026 271 c 1,38,-1
 1033 268 l 1,39,-1
 920 -15 l 1,40,41
 865 -12 865 -12 817 -9 c 128,-1,42
 769 -6 769 -6 718 -4 c 128,-1,43
 667 -2 667 -2 606.5 -1 c 128,-1,44
 546 0 546 0 466 0 c 0,45,46
 417 0 417 0 309.5 -1.5 c 128,-1,47
 202 -3 202 -3 51 -7 c 1,48,-1
 521 600 l 2,0,1
EndSplineSet
EndChar

StartChar: three
Encoding: 51 51 41
Width: 1221
Flags: W
LayerCount: 2
Fore
SplineSet
100 385 m 1,0,-1
 110 397 l 1,1,2
 135 363 135 363 170 330.5 c 128,-1,3
 205 298 205 298 255.5 272 c 128,-1,4
 306 246 306 246 373 230 c 128,-1,5
 440 214 440 214 528 214 c 0,6,7
 604 214 604 214 668 229.5 c 128,-1,8
 732 245 732 245 778.5 274 c 128,-1,9
 825 303 825 303 850.5 346 c 128,-1,10
 876 389 876 389 876 445 c 0,11,12
 876 497 876 497 842.5 535 c 128,-1,13
 809 573 809 573 758 598 c 128,-1,14
 707 623 707 623 646 635 c 128,-1,15
 585 647 585 647 530 647 c 0,16,17
 454 647 454 647 388.5 626 c 128,-1,18
 323 605 323 605 272 567 c 1,19,-1
 266 574 l 1,20,-1
 276 810 l 1,21,22
 342 845 342 845 414 860 c 128,-1,23
 486 875 486 875 567 875 c 0,24,25
 576 875 576 875 585 875 c 128,-1,26
 594 875 594 875 603 874 c 1,27,28
 659 892 659 892 687.5 923 c 128,-1,29
 716 954 716 954 716 988 c 0,30,31
 716 1012 716 1012 703 1034.5 c 128,-1,32
 690 1057 690 1057 664 1074.5 c 128,-1,33
 638 1092 638 1092 599 1102.5 c 128,-1,34
 560 1113 560 1113 509 1113 c 0,35,36
 470 1113 470 1113 427 1105 c 128,-1,37
 384 1097 384 1097 343.5 1082 c 128,-1,38
 303 1067 303 1067 268.5 1046 c 128,-1,39
 234 1025 234 1025 212 1000 c 1,40,-1
 207 1005 l 1,41,-1
 195 1261 l 1,42,43
 229 1283 229 1283 270 1300.5 c 128,-1,44
 311 1318 311 1318 356 1330 c 128,-1,45
 401 1342 401 1342 449.5 1348.5 c 128,-1,46
 498 1355 498 1355 546 1355 c 0,47,48
 632 1355 632 1355 710 1334 c 128,-1,49
 788 1313 788 1313 847.5 1272 c 128,-1,50
 907 1231 907 1231 942.5 1170.5 c 128,-1,51
 978 1110 978 1110 978 1032 c 0,52,53
 978 963 978 963 946.5 907 c 128,-1,54
 915 851 915 851 865 815 c 1,55,56
 927 789 927 789 976 750 c 128,-1,57
 1025 711 1025 711 1059.5 661.5 c 128,-1,58
 1094 612 1094 612 1112.5 554 c 128,-1,59
 1131 496 1131 496 1131 432 c 0,60,61
 1131 345 1131 345 1090 263 c 128,-1,62
 1049 181 1049 181 971.5 117 c 128,-1,63
 894 53 894 53 782.5 14 c 128,-1,64
 671 -25 671 -25 530 -25 c 0,65,66
 456 -25 456 -25 396.5 -16 c 128,-1,67
 337 -7 337 -7 286 10 c 128,-1,68
 235 27 235 27 190.5 51.5 c 128,-1,69
 146 76 146 76 104 108 c 1,70,-1
 100 385 l 1,0,-1
EndSplineSet
EndChar

StartChar: four
Encoding: 52 52 42
Width: 1232
Flags: W
LayerCount: 2
Fore
SplineSet
20 404 m 1,0,-1
 652 1332 l 1,1,-1
 915 1330 l 1,2,-1
 915 630 l 1,3,4
 993 630 993 630 1063 636 c 128,-1,5
 1133 642 1133 642 1187 656 c 1,6,-1
 1192 649 l 1,7,-1
 1079 390 l 1,8,-1
 915 390 l 1,9,-1
 915 0 l 1,10,-1
 660 0 l 1,11,-1
 660 390 l 1,12,-1
 24 390 l 1,13,-1
 20 404 l 1,0,-1
660 630 m 1,14,-1
 660 938 l 1,15,-1
 454 630 l 1,16,-1
 660 630 l 1,14,-1
EndSplineSet
EndChar

StartChar: five
Encoding: 53 53 43
Width: 1339
Flags: W
LayerCount: 2
Fore
SplineSet
120 426 m 1,0,-1
 130 433 l 1,1,2
 167 378 167 378 221.5 337 c 128,-1,3
 276 296 276 296 343 269 c 128,-1,4
 410 242 410 242 488 228.5 c 128,-1,5
 566 215 566 215 650 215 c 0,6,7
 739 215 739 215 805 232.5 c 128,-1,8
 871 250 871 250 915 281.5 c 128,-1,9
 959 313 959 313 980.5 356 c 128,-1,10
 1002 399 1002 399 1002 449 c 0,11,12
 1002 500 1002 500 972 543 c 128,-1,13
 942 586 942 586 888 617.5 c 128,-1,14
 834 649 834 649 758 667 c 128,-1,15
 682 685 682 685 590 685 c 0,16,17
 476 685 476 685 373.5 664 c 128,-1,18
 271 643 271 643 193 604 c 1,19,-1
 193 1330 l 1,20,-1
 830 1330 l 2,21,22
 857 1330 857 1330 888.5 1331 c 128,-1,23
 920 1332 920 1332 949.5 1335.5 c 128,-1,24
 979 1339 979 1339 1002.5 1345.5 c 128,-1,25
 1026 1352 1026 1352 1037 1362 c 1,26,-1
 1041 1359 l 1,27,-1
 1017 1111 l 1,28,29
 1005 1105 1005 1105 990.5 1101 c 128,-1,30
 976 1097 976 1097 955 1094.5 c 128,-1,31
 934 1092 934 1092 905 1091 c 128,-1,32
 876 1090 876 1090 834 1090 c 2,33,-1
 448 1090 l 1,34,-1
 448 900 l 1,35,36
 496 911 496 911 549.5 917.5 c 128,-1,37
 603 924 603 924 651 924 c 0,38,39
 801 924 801 924 914.5 887 c 128,-1,40
 1028 850 1028 850 1104.5 788.5 c 128,-1,41
 1181 727 1181 727 1220 648 c 128,-1,42
 1259 569 1259 569 1259 486 c 0,43,44
 1259 374 1259 374 1210.5 280 c 128,-1,45
 1162 186 1162 186 1076 118.5 c 128,-1,46
 990 51 990 51 871.5 13 c 128,-1,47
 753 -25 753 -25 612 -25 c 0,48,49
 453 -25 453 -25 336 9.5 c 128,-1,50
 219 44 219 44 131 113 c 1,51,-1
 120 426 l 1,0,-1
EndSplineSet
EndChar

StartChar: six
Encoding: 54 54 44
Width: 1398
Flags: W
LayerCount: 2
Fore
SplineSet
120 610 m 0,0,1
 120 705 120 705 141 797.5 c 128,-1,2
 162 890 162 890 204 972.5 c 128,-1,3
 246 1055 246 1055 308.5 1125 c 128,-1,4
 371 1195 371 1195 453.5 1246.5 c 128,-1,5
 536 1298 536 1298 638 1326.5 c 128,-1,6
 740 1355 740 1355 862 1355 c 0,7,8
 955 1355 955 1355 1029 1339.5 c 128,-1,9
 1103 1324 1103 1324 1163 1296 c 1,10,-1
 1172 1040 l 1,11,-1
 1168 1034 l 1,12,13
 1138 1056 1138 1056 1098.5 1071 c 128,-1,14
 1059 1086 1059 1086 1016 1096 c 128,-1,15
 973 1106 973 1106 928.5 1110.5 c 128,-1,16
 884 1115 884 1115 844 1115 c 0,17,18
 747 1115 747 1115 662 1080.5 c 128,-1,19
 577 1046 577 1046 513.5 984.5 c 128,-1,20
 450 923 450 923 413 839 c 128,-1,21
 376 755 376 755 375 655 c 1,22,23
 412 734 412 734 463.5 789 c 128,-1,24
 515 844 515 844 575 878 c 128,-1,25
 635 912 635 912 702 927.5 c 128,-1,26
 769 943 769 943 839 943 c 0,27,28
 931 943 931 943 1014 910.5 c 128,-1,29
 1097 878 1097 878 1160 818.5 c 128,-1,30
 1223 759 1223 759 1260.5 676 c 128,-1,31
 1298 593 1298 593 1298 493 c 0,32,33
 1298 381 1298 381 1253.5 286 c 128,-1,34
 1209 191 1209 191 1132.5 122 c 128,-1,35
 1056 53 1056 53 954.5 14 c 128,-1,36
 853 -25 853 -25 738 -25 c 0,37,38
 595 -25 595 -25 480.5 25.5 c 128,-1,39
 366 76 366 76 286 163 c 128,-1,40
 206 250 206 250 163 365.5 c 128,-1,41
 120 481 120 481 120 610 c 0,0,1
502 316 m 1,42,43
 550 268 550 268 608 241.5 c 128,-1,44
 666 215 666 215 730 215 c 0,45,46
 795 215 795 215 852 233.5 c 128,-1,47
 909 252 909 252 951 286.5 c 128,-1,48
 993 321 993 321 1017.5 371.5 c 128,-1,49
 1042 422 1042 422 1042 485 c 0,50,51
 1042 529 1042 529 1027 568.5 c 128,-1,52
 1012 608 1012 608 982 638 c 128,-1,53
 952 668 952 668 908 685.5 c 128,-1,54
 864 703 864 703 806 703 c 0,55,56
 735 703 735 703 674.5 668.5 c 128,-1,57
 614 634 614 634 572 578.5 c 128,-1,58
 530 523 530 523 510.5 454 c 128,-1,59
 491 385 491 385 502 316 c 1,42,43
EndSplineSet
EndChar

StartChar: seven
Encoding: 55 55 45
Width: 1118
Flags: W
LayerCount: 2
Fore
SplineSet
328 0 m 1,0,1
 328 38 328 38 339 105.5 c 128,-1,2
 350 173 350 173 372 261 c 128,-1,3
 394 349 394 349 426 451.5 c 128,-1,4
 458 554 458 554 500 663 c 128,-1,5
 542 772 542 772 593.5 882.5 c 128,-1,6
 645 993 645 993 706 1095 c 1,7,-1
 203 1087 l 2,8,9
 170 1087 170 1087 146.5 1085.5 c 128,-1,10
 123 1084 123 1084 107.5 1080.5 c 128,-1,11
 92 1077 92 1077 82 1072.5 c 128,-1,12
 72 1068 72 1068 65 1062 c 1,13,-1
 58 1067 l 1,14,-1
 50 1337 l 1,15,-1
 590 1334 l 2,16,17
 615 1334 615 1334 654 1334 c 128,-1,18
 693 1334 693 1334 739.5 1334 c 128,-1,19
 786 1334 786 1334 836.5 1334.5 c 128,-1,20
 887 1335 887 1335 936.5 1335.5 c 128,-1,21
 986 1336 986 1336 1030 1337.5 c 128,-1,22
 1074 1339 1074 1339 1108 1341 c 1,23,-1
 928 971 l 2,24,25
 854 819 854 819 800 694 c 128,-1,26
 746 569 746 569 711 466 c 128,-1,27
 676 363 676 363 659.5 279 c 128,-1,28
 643 195 643 195 643 126 c 0,29,30
 643 100 643 100 644 71.5 c 128,-1,31
 645 43 645 43 650 0 c 1,32,-1
 328 0 l 1,33,-1
 328 0 l 1,0,1
EndSplineSet
EndChar

StartChar: eight
Encoding: 56 56 46
Width: 1418
Flags: W
LayerCount: 2
Fore
SplineSet
121 429 m 0,0,1
 121 523 121 523 167 606.5 c 128,-1,2
 213 690 213 690 308 753 c 1,3,4
 267 802 267 802 244.5 860 c 128,-1,5
 222 918 222 918 222 972 c 0,6,7
 222 1050 222 1050 254.5 1120 c 128,-1,8
 287 1190 287 1190 351 1242.5 c 128,-1,9
 415 1295 415 1295 510 1326 c 128,-1,10
 605 1357 605 1357 730 1357 c 0,11,12
 854 1357 854 1357 948 1323.5 c 128,-1,13
 1042 1290 1042 1290 1105 1237 c 128,-1,14
 1168 1184 1168 1184 1200 1119.5 c 128,-1,15
 1232 1055 1232 1055 1232 994 c 0,16,17
 1232 954 1232 954 1222 916.5 c 128,-1,18
 1212 879 1212 879 1194 845.5 c 128,-1,19
 1176 812 1176 812 1152 782 c 128,-1,20
 1128 752 1128 752 1100 728 c 1,21,22
 1200 686 1200 686 1247 610 c 128,-1,23
 1294 534 1294 534 1294 421 c 0,24,25
 1294 328 1294 328 1251 246 c 128,-1,26
 1208 164 1208 164 1130 103 c 128,-1,27
 1052 42 1052 42 942.5 7 c 128,-1,28
 833 -28 833 -28 701 -28 c 0,29,30
 588 -28 588 -28 483.5 2.5 c 128,-1,31
 379 33 379 33 298.5 91.5 c 128,-1,32
 218 150 218 150 169.5 235 c 128,-1,33
 121 320 121 320 121 429 c 0,0,1
477 978 m 0,34,35
 477 945 477 945 498 915.5 c 128,-1,36
 519 886 519 886 565.5 860.5 c 128,-1,37
 612 835 612 835 686 815 c 128,-1,38
 760 795 760 795 867 781 c 1,39,40
 919 810 919 810 948 856 c 128,-1,41
 977 902 977 902 977 950 c 0,42,43
 977 986 977 986 960 1016.5 c 128,-1,44
 943 1047 943 1047 910 1069.5 c 128,-1,45
 877 1092 877 1092 828.5 1104.5 c 128,-1,46
 780 1117 780 1117 717 1117 c 0,47,48
 603 1117 603 1117 540 1079 c 128,-1,49
 477 1041 477 1041 477 978 c 0,34,35
376 435 m 256,50,51
 376 387 376 387 399 346.5 c 128,-1,52
 422 306 422 306 467 276.5 c 128,-1,53
 512 247 512 247 578.5 230 c 128,-1,54
 645 213 645 213 732 212 c 0,55,56
 804 211 804 211 861 225 c 128,-1,57
 918 239 918 239 957.5 263 c 128,-1,58
 997 287 997 287 1018 319.5 c 128,-1,59
 1039 352 1039 352 1039 389 c 0,60,61
 1039 423 1039 423 1019 449 c 128,-1,62
 999 475 999 475 961.5 494 c 128,-1,63
 924 513 924 513 869 527 c 128,-1,64
 814 541 814 541 744 552 c 0,65,66
 694 559 694 559 655.5 567 c 128,-1,67
 617 575 617 575 587 583 c 128,-1,68
 557 591 557 591 534 599 c 128,-1,69
 511 607 511 607 492 615 c 1,70,71
 434 577 434 577 405 530 c 128,-1,72
 376 483 376 483 376 435 c 256,50,51
EndSplineSet
EndChar

StartChar: nine
Encoding: 57 57 47
Width: 1384
Flags: W
LayerCount: 2
Fore
SplineSet
161 118 m 1,0,1
 161 198 161 198 160.5 252 c 128,-1,2
 160 306 160 306 159 341.5 c 128,-1,3
 158 377 158 377 155.5 397 c 128,-1,4
 153 417 153 417 150 429 c 1,5,-1
 154 435 l 1,6,7
 188 383 188 383 237 342.5 c 128,-1,8
 286 302 286 302 345 273.5 c 128,-1,9
 404 245 404 245 472 230 c 128,-1,10
 540 215 540 215 614 215 c 0,11,12
 710 215 710 215 788 242 c 128,-1,13
 866 269 866 269 921 322 c 128,-1,14
 976 375 976 375 1006 453 c 128,-1,15
 1036 531 1036 531 1036 633 c 2,16,-1
 1036 657 l 1,17,18
 1000 599 1000 599 952.5 555.5 c 128,-1,19
 905 512 905 512 850.5 482.5 c 128,-1,20
 796 453 796 453 736 438.5 c 128,-1,21
 676 424 676 424 615 424 c 0,22,23
 507 424 507 424 416 456 c 128,-1,24
 325 488 325 488 259.5 546.5 c 128,-1,25
 194 605 194 605 157 687 c 128,-1,26
 120 769 120 769 120 868 c 0,27,28
 120 965 120 965 160 1053.5 c 128,-1,29
 200 1142 200 1142 275 1209 c 128,-1,30
 350 1276 350 1276 457 1315.5 c 128,-1,31
 564 1355 564 1355 698 1355 c 0,32,33
 842 1355 842 1355 948.5 1303.5 c 128,-1,34
 1055 1252 1055 1252 1127 1163.5 c 128,-1,35
 1199 1075 1199 1075 1237 956.5 c 128,-1,36
 1275 838 1275 838 1283 704 c 0,37,38
 1291 554 1291 554 1250 421 c 128,-1,39
 1209 288 1209 288 1121.5 189 c 128,-1,40
 1034 90 1034 90 902 32.5 c 128,-1,41
 770 -25 770 -25 598 -25 c 0,42,43
 467 -25 467 -25 358 11.5 c 128,-1,44
 249 48 249 48 161 118 c 1,0,1
626 666 m 0,45,46
 691 666 691 666 749 684.5 c 128,-1,47
 807 703 807 703 850.5 734 c 128,-1,48
 894 765 894 765 919.5 806.5 c 128,-1,49
 945 848 945 848 945 895 c 0,50,51
 945 938 945 938 927.5 977.5 c 128,-1,52
 910 1017 910 1017 877 1047 c 128,-1,53
 844 1077 844 1077 795.5 1095 c 128,-1,54
 747 1113 747 1113 686 1113 c 0,55,56
 617 1113 617 1113 559.5 1096 c 128,-1,57
 502 1079 502 1079 461 1048.5 c 128,-1,58
 420 1018 420 1018 397.5 976 c 128,-1,59
 375 934 375 934 375 883 c 0,60,61
 375 830 375 830 395 790 c 128,-1,62
 415 750 415 750 449.5 722 c 128,-1,63
 484 694 484 694 529.5 680 c 128,-1,64
 575 666 575 666 626 666 c 0,45,46
EndSplineSet
EndChar

StartChar: colon
Encoding: 58 58 48
Width: 530
Flags: W
LayerCount: 2
Fore
SplineSet
119 610 m 1,0,1
 124 644 124 644 126 679 c 128,-1,2
 128 714 128 714 128 749 c 0,3,4
 128 765 128 765 127.5 782.5 c 128,-1,5
 127 800 127 800 126 817 c 128,-1,6
 125 834 125 834 123.5 849 c 128,-1,7
 122 864 122 864 121 874 c 1,8,-1
 411 874 l 1,9,10
 410 860 410 860 409 842.5 c 128,-1,11
 408 825 408 825 407.5 806.5 c 128,-1,12
 407 788 407 788 406.5 769.5 c 128,-1,13
 406 751 406 751 406 736 c 0,14,15
 406 701 406 701 406.5 670 c 128,-1,16
 407 639 407 639 411 610 c 1,17,-1
 119 610 l 1,0,1
119 0 m 1,18,19
 124 34 124 34 126 69 c 128,-1,20
 128 104 128 104 128 139 c 0,21,22
 128 155 128 155 127.5 172.5 c 128,-1,23
 127 190 127 190 126 207 c 128,-1,24
 125 224 125 224 123.5 239 c 128,-1,25
 122 254 122 254 121 264 c 1,26,-1
 411 264 l 1,27,28
 410 250 410 250 409 232.5 c 128,-1,29
 408 215 408 215 407.5 196.5 c 128,-1,30
 407 178 407 178 406.5 159.5 c 128,-1,31
 406 141 406 141 406 126 c 0,32,33
 406 91 406 91 406.5 60 c 128,-1,34
 407 29 407 29 411 0 c 1,35,-1
 119 0 l 1,18,19
EndSplineSet
EndChar

StartChar: semicolon
Encoding: 59 59 49
Width: 530
Flags: W
LayerCount: 2
Fore
SplineSet
132 450 m 1,0,1
 136 481 136 481 138 512.5 c 128,-1,2
 140 544 140 544 140 576 c 0,3,4
 140 605 140 605 138 638 c 128,-1,5
 136 671 136 671 134 690 c 1,6,-1
 397 690 l 1,7,8
 395 665 395 665 394 628.5 c 128,-1,9
 393 592 393 592 393 564 c 0,10,11
 393 532 393 532 393.5 504 c 128,-1,12
 394 476 394 476 397 450 c 1,13,-1
 132 450 l 1,0,1
157 43 m 0,14,15
 157 82 157 82 155 125.5 c 128,-1,16
 153 169 153 169 146 220 c 1,17,-1
 395 260 l 1,18,19
 399 232 399 232 402.5 209 c 128,-1,20
 406 186 406 186 407.5 165 c 128,-1,21
 409 144 409 144 410 123.5 c 128,-1,22
 411 103 411 103 411 82 c 0,23,24
 411 34 411 34 405 -16.5 c 128,-1,25
 399 -67 399 -67 388.5 -110 c 128,-1,26
 378 -153 378 -153 364.5 -183 c 128,-1,27
 351 -213 351 -213 337 -222 c 0,28,29
 326 -229 326 -229 307.5 -236.5 c 128,-1,30
 289 -244 289 -244 261.5 -253 c 128,-1,31
 234 -262 234 -262 194.5 -271.5 c 128,-1,32
 155 -281 155 -281 102 -292 c 1,33,-1
 96 -286 l 1,34,35
 105 -270 105 -270 115.5 -235.5 c 128,-1,36
 126 -201 126 -201 135 -156 c 128,-1,37
 144 -111 144 -111 150.5 -59 c 128,-1,38
 157 -7 157 -7 157 43 c 0,14,15
EndSplineSet
EndChar

StartChar: less
Encoding: 60 60 50
Width: 1239
Flags: W
LayerCount: 2
Fore
SplineSet
282 648 m 1,0,-1
 957 1065 l 1,1,-1
 957 784 l 1,2,-1
 517 536 l 1,3,-1
 957 265 l 1,4,-1
 957 -15 l 1,5,-1
 282 434 l 1,6,-1
 282 648 l 1,0,-1
EndSplineSet
EndChar

StartChar: equal
Encoding: 61 61 51
Width: 1239
Flags: W
LayerCount: 2
Fore
SplineSet
168 962 m 1,0,1
 183 958 183 958 213.5 957 c 128,-1,2
 244 956 244 956 300 956 c 2,3,-1
 939 956 l 2,4,5
 995 956 995 956 1025.5 957 c 128,-1,6
 1056 958 1056 958 1071 962 c 1,7,-1
 1074 715 l 1,8,9
 1045 718 1045 718 1013.5 719 c 128,-1,10
 982 720 982 720 950 720 c 2,11,-1
 289 720 l 2,12,13
 257 720 257 720 225.5 719 c 128,-1,14
 194 718 194 718 165 715 c 1,15,-1
 168 962 l 1,0,1
168 542 m 1,16,17
 183 538 183 538 213.5 537 c 128,-1,18
 244 536 244 536 300 536 c 2,19,-1
 939 536 l 2,20,21
 995 536 995 536 1025.5 537 c 128,-1,22
 1056 538 1056 538 1071 542 c 1,23,-1
 1074 295 l 1,24,25
 1045 298 1045 298 1013.5 299 c 128,-1,26
 982 300 982 300 950 300 c 2,27,-1
 289 300 l 2,28,29
 257 300 257 300 225.5 299 c 128,-1,30
 194 298 194 298 165 295 c 1,31,-1
 168 542 l 1,16,17
EndSplineSet
EndChar

StartChar: greater
Encoding: 62 62 52
Width: 1239
Flags: W
LayerCount: 2
Fore
SplineSet
282 265 m 1,0,-1
 722 536 l 1,1,-1
 282 784 l 1,2,-1
 282 1065 l 1,3,-1
 957 648 l 1,4,-1
 957 434 l 1,5,-1
 282 -15 l 1,6,-1
 282 265 l 1,0,-1
EndSplineSet
EndChar

StartChar: question
Encoding: 63 63 53
Width: 956
Flags: W
LayerCount: 2
Fore
SplineSet
410 343 m 1,0,1
 347 367 347 367 316 412.5 c 128,-1,2
 285 458 285 458 285 521 c 0,3,4
 285 545 285 545 292.5 573 c 128,-1,5
 300 601 300 601 322 635.5 c 128,-1,6
 344 670 344 670 382.5 712.5 c 128,-1,7
 421 755 421 755 483 807 c 0,8,9
 525 842 525 842 551.5 868.5 c 128,-1,10
 578 895 578 895 593 917 c 128,-1,11
 608 939 608 939 613.5 959 c 128,-1,12
 619 979 619 979 619 1001 c 0,13,14
 619 1037 619 1037 602 1065.5 c 128,-1,15
 585 1094 585 1094 555 1114 c 128,-1,16
 525 1134 525 1134 485.5 1144.5 c 128,-1,17
 446 1155 446 1155 401 1155 c 0,18,19
 369 1155 369 1155 330 1146.5 c 128,-1,20
 291 1138 291 1138 253.5 1119.5 c 128,-1,21
 216 1101 216 1101 182.5 1072.5 c 128,-1,22
 149 1044 149 1044 128 1004 c 1,23,-1
 121 1002 l 1,24,25
 122 1018 122 1018 121 1028 c 128,-1,26
 120 1038 120 1038 117 1059 c 0,27,28
 116 1068 116 1068 113.5 1081 c 128,-1,29
 111 1094 111 1094 105.5 1114.5 c 128,-1,30
 100 1135 100 1135 91.5 1165.5 c 128,-1,31
 83 1196 83 1196 70 1241 c 1,32,33
 140 1307 140 1307 228 1341 c 128,-1,34
 316 1375 316 1375 437 1375 c 0,35,36
 536 1375 536 1375 617 1345 c 128,-1,37
 698 1315 698 1315 755.5 1265.5 c 128,-1,38
 813 1216 813 1216 844.5 1151 c 128,-1,39
 876 1086 876 1086 876 1017 c 0,40,41
 876 982 876 982 867.5 948.5 c 128,-1,42
 859 915 859 915 838 878.5 c 128,-1,43
 817 842 817 842 781 801.5 c 128,-1,44
 745 761 745 761 691 713 c 0,45,46
 639 668 639 668 609 637 c 128,-1,47
 579 606 579 606 564 585 c 128,-1,48
 549 564 549 564 545 549.5 c 128,-1,49
 541 535 541 535 541 523 c 0,50,51
 541 495 541 495 558.5 477.5 c 128,-1,52
 576 460 576 460 598 456 c 1,53,54
 578 441 578 441 553.5 424.5 c 128,-1,55
 529 408 529 408 503.5 393 c 128,-1,56
 478 378 478 378 453.5 365 c 128,-1,57
 429 352 429 352 410 343 c 1,0,1
311 0 m 1,58,59
 315 31 315 31 317 62.5 c 128,-1,60
 319 94 319 94 319 126 c 0,61,62
 319 155 319 155 317 188 c 128,-1,63
 315 221 315 221 313 240 c 1,64,-1
 576 240 l 1,65,66
 574 215 574 215 573 178.5 c 128,-1,67
 572 142 572 142 572 114 c 0,68,69
 572 82 572 82 572.5 54 c 128,-1,70
 573 26 573 26 576 0 c 1,71,-1
 311 0 l 1,58,59
EndSplineSet
EndChar

StartChar: at
Encoding: 64 64 54
Width: 2478
Flags: W
LayerCount: 2
Fore
SplineSet
205 428 m 0,0,1
 205 548 205 548 240 663.5 c 128,-1,2
 275 779 275 779 340.5 881 c 128,-1,3
 406 983 406 983 498.5 1069 c 128,-1,4
 591 1155 591 1155 705.5 1217.5 c 128,-1,5
 820 1280 820 1280 954 1314.5 c 128,-1,6
 1088 1349 1088 1349 1236 1349 c 0,7,8
 1405 1349 1405 1349 1547 1317 c 128,-1,9
 1689 1285 1689 1285 1804.5 1228 c 128,-1,10
 1920 1171 1920 1171 2007.5 1093 c 128,-1,11
 2095 1015 2095 1015 2153.5 923.5 c 128,-1,12
 2212 832 2212 832 2242 730 c 128,-1,13
 2272 628 2272 628 2272 523 c 0,14,15
 2272 392 2272 392 2233 291.5 c 128,-1,16
 2194 191 2194 191 2130.5 123 c 128,-1,17
 2067 55 2067 55 1985 20 c 128,-1,18
 1903 -15 1903 -15 1816 -15 c 0,19,20
 1721 -15 1721 -15 1652.5 12.5 c 128,-1,21
 1584 40 1584 40 1538 87 c 1,22,23
 1471 39 1471 39 1390 12 c 128,-1,24
 1309 -15 1309 -15 1215 -15 c 0,25,26
 1098 -15 1098 -15 1005.5 22 c 128,-1,27
 913 59 913 59 849 121 c 128,-1,28
 785 183 785 183 751 264 c 128,-1,29
 717 345 717 345 717 432 c 0,30,31
 717 523 717 523 756 603.5 c 128,-1,32
 795 684 795 684 865 744.5 c 128,-1,33
 935 805 935 805 1031.5 840 c 128,-1,34
 1128 875 1128 875 1242 875 c 0,35,36
 1296 875 1296 875 1346 865 c 128,-1,37
 1396 855 1396 855 1445 836 c 1,38,-1
 1445 855 l 1,39,-1
 1698 855 l 1,40,-1
 1698 400 l 2,41,42
 1698 352 1698 352 1703.5 317 c 128,-1,43
 1709 282 1709 282 1723 259.5 c 128,-1,44
 1737 237 1737 237 1761.5 226 c 128,-1,45
 1786 215 1786 215 1824 215 c 0,46,47
 1864 215 1864 215 1899 230.5 c 128,-1,48
 1934 246 1934 246 1960 279 c 128,-1,49
 1986 312 1986 312 2001.5 363 c 128,-1,50
 2017 414 2017 414 2017 485 c 0,51,52
 2017 624 2017 624 1963 743.5 c 128,-1,53
 1909 863 1909 863 1808.5 951 c 128,-1,54
 1708 1039 1708 1039 1566 1089.5 c 128,-1,55
 1424 1140 1424 1140 1247 1140 c 0,56,57
 1053 1140 1053 1140 906 1081 c 128,-1,58
 759 1022 759 1022 660 922.5 c 128,-1,59
 561 823 561 823 510.5 693 c 128,-1,60
 460 563 460 563 460 421 c 0,61,62
 460 274 460 274 516 147.5 c 128,-1,63
 572 21 572 21 679 -72.5 c 128,-1,64
 786 -166 786 -166 941 -219.5 c 128,-1,65
 1096 -273 1096 -273 1293 -273 c 0,66,67
 1402 -273 1402 -273 1505 -259 c 128,-1,68
 1608 -245 1608 -245 1693.5 -222.5 c 128,-1,69
 1779 -200 1779 -200 1841 -172.5 c 128,-1,70
 1903 -145 1903 -145 1929 -118 c 1,71,-1
 1935 -121 l 1,72,-1
 1863 -361 l 1,73,74
 1757 -417 1757 -417 1614.5 -452 c 128,-1,75
 1472 -487 1472 -487 1285 -487 c 0,76,77
 1040 -487 1040 -487 840.5 -425.5 c 128,-1,78
 641 -364 641 -364 500 -246.5 c 128,-1,79
 359 -129 359 -129 282 41 c 128,-1,80
 205 211 205 211 205 428 c 0,0,1
980 434 m 0,81,82
 980 388 980 388 996.5 349 c 128,-1,83
 1013 310 1013 310 1046 281.5 c 128,-1,84
 1079 253 1079 253 1128.5 236.5 c 128,-1,85
 1178 220 1178 220 1244 220 c 0,86,87
 1298 220 1298 220 1352.5 235 c 128,-1,88
 1407 250 1407 250 1448 276 c 1,89,90
 1445 303 1445 303 1445 332 c 2,91,-1
 1445 598 l 1,92,93
 1410 618 1410 618 1359.5 631.5 c 128,-1,94
 1309 645 1309 645 1246 645 c 0,95,96
 1184 645 1184 645 1135 629 c 128,-1,97
 1086 613 1086 613 1051.5 584.5 c 128,-1,98
 1017 556 1017 556 998.5 517.5 c 128,-1,99
 980 479 980 479 980 434 c 0,81,82
EndSplineSet
EndChar

StartChar: A
Encoding: 65 65 55
Width: 1259
Flags: W
LayerCount: 2
Fore
SplineSet
455 1219 m 2,0,1
 472 1267 472 1267 478 1289.5 c 128,-1,2
 484 1312 484 1312 484 1323 c 0,3,4
 484 1328 484 1328 483 1331 c 1,5,-1
 484 1333 l 1,6,7
 527 1331 527 1331 560 1330.5 c 128,-1,8
 593 1330 593 1330 622 1330 c 256,9,10
 651 1330 651 1330 687.5 1330.5 c 128,-1,11
 724 1331 724 1331 766 1332 c 1,12,-1
 767 1330 l 1,13,14
 765 1326 765 1326 765 1322 c 0,15,16
 765 1312 765 1312 771 1289.5 c 128,-1,17
 777 1267 777 1267 795 1218 c 2,18,-1
 1239 -3 l 1,19,20
 1219 -2 1219 -2 1192 -1.5 c 128,-1,21
 1165 -1 1165 -1 1140 -0.5 c 128,-1,22
 1115 0 1115 0 1095.5 0 c 128,-1,23
 1076 0 1076 0 1072 0 c 2,24,-1
 940 0 l 1,25,-1
 846 288 l 1,26,-1
 394 288 l 1,27,-1
 300 -8 l 1,28,29
 246 -3 246 -3 192.5 -1.5 c 128,-1,30
 139 0 139 0 99 0 c 2,31,-1
 20 0 l 1,32,-1
 455 1219 l 2,0,1
768 528 m 1,33,-1
 617 993 l 1,34,-1
 470 528 l 1,35,-1
 768 528 l 1,33,-1
EndSplineSet
EndChar

StartChar: B
Encoding: 66 66 56
Width: 1221
Flags: W
LayerCount: 2
Fore
SplineSet
180 1324 m 1,0,1
 359 1355 359 1355 491 1355 c 0,2,3
 619 1355 619 1355 710.5 1327 c 128,-1,4
 802 1299 802 1299 860.5 1254 c 128,-1,5
 919 1209 919 1209 946.5 1151.5 c 128,-1,6
 974 1094 974 1094 974 1035 c 0,7,8
 974 977 974 977 951 921.5 c 128,-1,9
 928 866 928 866 882 821 c 1,10,11
 944 795 944 795 992 755 c 128,-1,12
 1040 715 1040 715 1073 665 c 128,-1,13
 1106 615 1106 615 1123.5 558 c 128,-1,14
 1141 501 1141 501 1141 440 c 0,15,16
 1141 335 1141 335 1097 249.5 c 128,-1,17
 1053 164 1053 164 970 103 c 128,-1,18
 887 42 887 42 767 8.5 c 128,-1,19
 647 -25 647 -25 495 -25 c 0,20,21
 461 -25 461 -25 419 -22 c 128,-1,22
 377 -19 377 -19 334.5 -14.5 c 128,-1,23
 292 -10 292 -10 251.5 -4.5 c 128,-1,24
 211 1 211 1 180 6 c 1,25,-1
 180 1324 l 1,0,1
435 874 m 1,26,27
 452 870 452 870 470.5 868.5 c 128,-1,28
 489 867 489 867 506 867 c 0,29,30
 561 867 561 867 600.5 879.5 c 128,-1,31
 640 892 640 892 664.5 911.5 c 128,-1,32
 689 931 689 931 700.5 954.5 c 128,-1,33
 712 978 712 978 712 1001 c 0,34,35
 712 1059 712 1059 656.5 1092 c 128,-1,36
 601 1125 601 1125 508 1125 c 0,37,38
 463 1125 463 1125 435 1122 c 1,39,-1
 435 874 l 1,26,27
435 228 m 1,40,41
 503 211 503 211 573 211 c 0,42,43
 649 211 649 211 707.5 228 c 128,-1,44
 766 245 766 245 806 276.5 c 128,-1,45
 846 308 846 308 866.5 351.5 c 128,-1,46
 887 395 887 395 887 448 c 0,47,48
 887 489 887 489 866 526.5 c 128,-1,49
 845 564 845 564 804 593 c 128,-1,50
 763 622 763 622 703 639 c 128,-1,51
 643 656 643 656 565 656 c 0,52,53
 527 656 527 656 494 651.5 c 128,-1,54
 461 647 461 647 435 640 c 1,55,-1
 435 228 l 1,40,41
EndSplineSet
EndChar

StartChar: C
Encoding: 67 67 57
Width: 1304
Flags: W
LayerCount: 2
Fore
SplineSet
100 649 m 0,0,1
 100 756 100 756 126.5 849.5 c 128,-1,2
 153 943 153 943 201.5 1021.5 c 128,-1,3
 250 1100 250 1100 318 1162 c 128,-1,4
 386 1224 386 1224 469 1267 c 128,-1,5
 552 1310 552 1310 647.5 1332.5 c 128,-1,6
 743 1355 743 1355 847 1355 c 0,7,8
 954 1355 954 1355 1032 1338 c 128,-1,9
 1110 1321 1110 1321 1173 1290 c 1,10,-1
 1173 982 l 1,11,-1
 1171 980 l 1,12,13
 1152 1009 1152 1009 1118 1034 c 128,-1,14
 1084 1059 1084 1059 1040.5 1077 c 128,-1,15
 997 1095 997 1095 945.5 1105 c 128,-1,16
 894 1115 894 1115 841 1115 c 0,17,18
 732 1115 732 1115 642.5 1081.5 c 128,-1,19
 553 1048 553 1048 489 988 c 128,-1,20
 425 928 425 928 390 846 c 128,-1,21
 355 764 355 764 355 667 c 0,22,23
 355 540 355 540 397 453.5 c 128,-1,24
 439 367 439 367 504.5 314 c 128,-1,25
 570 261 570 261 649 238 c 128,-1,26
 728 215 728 215 802 215 c 0,27,28
 857 215 857 215 913.5 227.5 c 128,-1,29
 970 240 970 240 1022 264 c 128,-1,30
 1074 288 1074 288 1117.5 322 c 128,-1,31
 1161 356 1161 356 1191 399 c 1,32,-1
 1194 397 l 1,33,-1
 1194 112 l 1,34,35
 1118 49 1118 49 1011.5 12 c 128,-1,36
 905 -25 905 -25 774 -25 c 0,37,38
 618 -25 618 -25 493 25 c 128,-1,39
 368 75 368 75 280.5 164 c 128,-1,40
 193 253 193 253 146.5 377 c 128,-1,41
 100 501 100 501 100 649 c 0,0,1
EndSplineSet
EndChar

StartChar: D
Encoding: 68 68 58
Width: 1300
Flags: W
LayerCount: 2
Fore
SplineSet
180 1339 m 1,0,1
 247 1347 247 1347 314 1351 c 128,-1,2
 381 1355 381 1355 444 1355 c 0,3,4
 630 1355 630 1355 773 1305 c 128,-1,5
 916 1255 916 1255 1013 1165 c 128,-1,6
 1110 1075 1110 1075 1160 951 c 128,-1,7
 1210 827 1210 827 1210 679 c 0,8,9
 1210 507 1210 507 1151.5 375.5 c 128,-1,10
 1093 244 1093 244 991.5 155 c 128,-1,11
 890 66 890 66 753.5 20.5 c 128,-1,12
 617 -25 617 -25 462 -25 c 0,13,14
 431 -25 431 -25 395.5 -23.5 c 128,-1,15
 360 -22 360 -22 323 -18.5 c 128,-1,16
 286 -15 286 -15 249.5 -10 c 128,-1,17
 213 -5 213 -5 180 1 c 1,18,-1
 180 1339 l 1,0,1
435 221 m 1,19,20
 480 215 480 215 528 215 c 0,21,22
 614 215 614 215 691.5 241 c 128,-1,23
 769 267 769 267 827 319 c 128,-1,24
 885 371 885 371 919 448.5 c 128,-1,25
 953 526 953 526 953 628 c 0,26,27
 953 740 953 740 919.5 830 c 128,-1,28
 886 920 886 920 823 983.5 c 128,-1,29
 760 1047 760 1047 670 1081 c 128,-1,30
 580 1115 580 1115 467 1115 c 0,31,32
 459 1115 459 1115 451 1115 c 128,-1,33
 443 1115 443 1115 435 1114 c 1,34,-1
 435 221 l 1,19,20
EndSplineSet
EndChar

StartChar: E
Encoding: 69 69 59
Width: 1049
Flags: W
LayerCount: 2
Fore
SplineSet
180 1337 m 1,0,1
 207 1335 207 1335 239.5 1334 c 128,-1,2
 272 1333 272 1333 306.5 1332 c 128,-1,3
 341 1331 341 1331 375.5 1330.5 c 128,-1,4
 410 1330 410 1330 442 1330 c 0,5,6
 537 1330 537 1330 661 1331.5 c 128,-1,7
 785 1333 785 1333 925 1338 c 1,8,9
 922 1314 922 1314 920 1280 c 128,-1,10
 918 1246 918 1246 916.5 1212 c 128,-1,11
 915 1178 915 1178 914.5 1148.5 c 128,-1,12
 914 1119 914 1119 914 1103 c 256,13,14
 914 1087 914 1087 916 1079 c 1,15,-1
 914 1076 l 1,16,17
 900 1080 900 1080 887 1083 c 128,-1,18
 874 1086 874 1086 857.5 1087.5 c 128,-1,19
 841 1089 841 1089 819 1090 c 128,-1,20
 797 1091 797 1091 766 1091 c 2,21,-1
 435 1091 l 1,22,-1
 435 836 l 1,23,-1
 727 836 l 2,24,25
 783 836 783 836 813.5 837 c 128,-1,26
 844 838 844 838 859 842 c 1,27,-1
 862 595 l 1,28,29
 833 598 833 598 801.5 599 c 128,-1,30
 770 600 770 600 738 600 c 2,31,-1
 435 600 l 1,32,-1
 435 240 l 1,33,-1
 859 240 l 2,34,35
 898 240 898 240 916.5 243.5 c 128,-1,36
 935 247 935 247 945 252 c 1,37,-1
 949 251 l 1,38,-1
 939 0 l 1,39,-1
 180 0 l 1,40,-1
 180 1337 l 1,0,1
EndSplineSet
EndChar

StartChar: F
Encoding: 70 70 60
Width: 1025
Flags: W
LayerCount: 2
Fore
SplineSet
180 1337 m 1,0,1
 207 1335 207 1335 239.5 1334 c 128,-1,2
 272 1333 272 1333 306.5 1332 c 128,-1,3
 341 1331 341 1331 375.5 1330.5 c 128,-1,4
 410 1330 410 1330 442 1330 c 0,5,6
 537 1330 537 1330 661 1331.5 c 128,-1,7
 785 1333 785 1333 925 1338 c 1,8,9
 922 1314 922 1314 920 1280 c 128,-1,10
 918 1246 918 1246 916.5 1212 c 128,-1,11
 915 1178 915 1178 914.5 1148.5 c 128,-1,12
 914 1119 914 1119 914 1103 c 256,13,14
 914 1087 914 1087 916 1079 c 1,15,-1
 914 1076 l 1,16,17
 900 1080 900 1080 887 1083 c 128,-1,18
 874 1086 874 1086 857.5 1087.5 c 128,-1,19
 841 1089 841 1089 819 1090 c 128,-1,20
 797 1091 797 1091 766 1091 c 2,21,-1
 435 1091 l 1,22,-1
 435 816 l 1,23,-1
 727 816 l 2,24,25
 783 816 783 816 813.5 817 c 128,-1,26
 844 818 844 818 859 822 c 1,27,-1
 862 575 l 1,28,29
 833 578 833 578 801.5 579 c 128,-1,30
 770 580 770 580 738 580 c 2,31,-1
 435 580 l 1,32,-1
 435 0 l 1,33,-1
 180 0 l 1,34,-1
 180 1337 l 1,0,1
EndSplineSet
EndChar

StartChar: G
Encoding: 71 71 61
Width: 1336
Flags: W
LayerCount: 2
Fore
SplineSet
100 630 m 0,0,1
 100 722 100 722 121.5 811.5 c 128,-1,2
 143 901 143 901 185 981.5 c 128,-1,3
 227 1062 227 1062 288.5 1130.5 c 128,-1,4
 350 1199 350 1199 431 1249 c 128,-1,5
 512 1299 512 1299 611 1327 c 128,-1,6
 710 1355 710 1355 826 1355 c 0,7,8
 934 1355 934 1355 1011 1331.5 c 128,-1,9
 1088 1308 1088 1308 1145 1265 c 1,10,-1
 1129 970 l 1,11,-1
 1121 968 l 1,12,13
 1105 999 1105 999 1074 1026 c 128,-1,14
 1043 1053 1043 1053 1002 1073 c 128,-1,15
 961 1093 961 1093 914 1104 c 128,-1,16
 867 1115 867 1115 819 1115 c 0,17,18
 715 1115 715 1115 629.5 1079 c 128,-1,19
 544 1043 544 1043 483 979 c 128,-1,20
 422 915 422 915 388.5 826.5 c 128,-1,21
 355 738 355 738 355 633 c 0,22,23
 355 540 355 540 384.5 463 c 128,-1,24
 414 386 414 386 465 331 c 128,-1,25
 516 276 516 276 583.5 245.5 c 128,-1,26
 651 215 651 215 727 215 c 0,27,28
 783 215 783 215 831.5 221.5 c 128,-1,29
 880 228 880 228 915.5 243.5 c 128,-1,30
 951 259 951 259 971 284 c 128,-1,31
 991 309 991 309 991 347 c 2,32,-1
 991 553 l 1,33,-1
 862 553 l 2,34,35
 826 553 826 553 805 552 c 128,-1,36
 784 551 784 551 772 548.5 c 128,-1,37
 760 546 760 546 755.5 542.5 c 128,-1,38
 751 539 751 539 749 535 c 1,39,-1
 746 536 l 1,40,-1
 737 797 l 1,41,42
 744 795 744 795 771 794 c 128,-1,43
 798 793 798 793 833 791.5 c 128,-1,44
 868 790 868 790 904 789.5 c 128,-1,45
 940 789 940 789 964 789 c 2,46,-1
 1082 789 l 2,47,48
 1106 789 1106 789 1132 790 c 128,-1,49
 1158 791 1158 791 1182 793 c 128,-1,50
 1206 795 1206 795 1227 798 c 128,-1,51
 1248 801 1248 801 1262 804 c 1,52,-1
 1265 802 l 1,53,54
 1260 793 1260 793 1256.5 782 c 128,-1,55
 1253 771 1253 771 1250.5 753.5 c 128,-1,56
 1248 736 1248 736 1247 708.5 c 128,-1,57
 1246 681 1246 681 1246 639 c 2,58,-1
 1246 329 l 2,59,60
 1246 253 1246 253 1207.5 188.5 c 128,-1,61
 1169 124 1169 124 1100 76.5 c 128,-1,62
 1031 29 1031 29 936.5 2 c 128,-1,63
 842 -25 842 -25 730 -25 c 0,64,65
 592 -25 592 -25 476.5 26 c 128,-1,66
 361 77 361 77 277.5 165.5 c 128,-1,67
 194 254 194 254 147 373.5 c 128,-1,68
 100 493 100 493 100 630 c 0,0,1
EndSplineSet
EndChar

StartChar: H
Encoding: 72 72 62
Width: 1300
Flags: W
LayerCount: 2
Fore
SplineSet
180 1335 m 1,0,1
 205 1333 205 1333 221.5 1332.5 c 128,-1,2
 238 1332 238 1332 251.5 1331 c 128,-1,3
 265 1330 265 1330 277 1330 c 128,-1,4
 289 1330 289 1330 304 1330 c 0,5,6
 344 1330 344 1330 376.5 1332 c 128,-1,7
 409 1334 409 1334 435 1338 c 1,8,-1
 435 805 l 1,9,-1
 865 805 l 1,10,-1
 865 1335 l 1,11,12
 915 1332 915 1332 944.5 1331 c 128,-1,13
 974 1330 974 1330 994 1330 c 0,14,15
 1044 1330 1044 1330 1079.5 1333 c 128,-1,16
 1115 1336 1115 1336 1120 1338 c 1,17,-1
 1120 -6 l 1,18,19
 1112 -5 1112 -5 1093.5 -4 c 128,-1,20
 1075 -3 1075 -3 1050 -2 c 128,-1,21
 1025 -1 1025 -1 995 -0.5 c 128,-1,22
 965 0 965 0 935 0 c 2,23,-1
 865 0 l 1,24,-1
 865 565 l 1,25,-1
 435 565 l 1,26,-1
 435 -6 l 1,27,28
 427 -5 427 -5 411 -4 c 128,-1,29
 395 -3 395 -3 368 -2 c 128,-1,30
 341 -1 341 -1 302.5 -0.5 c 128,-1,31
 264 0 264 0 212 0 c 2,32,-1
 180 0 l 1,33,-1
 180 1335 l 1,0,1
EndSplineSet
EndChar

StartChar: I
Encoding: 73 73 63
Width: 627
Flags: W
LayerCount: 2
Fore
SplineSet
186 1334 m 1,0,1
 211 1333 211 1333 227.5 1332 c 128,-1,2
 244 1331 244 1331 258.5 1330.5 c 128,-1,3
 273 1330 273 1330 288.5 1330 c 128,-1,4
 304 1330 304 1330 325 1330 c 0,5,6
 358 1330 358 1330 391.5 1332 c 128,-1,7
 425 1334 425 1334 441 1338 c 1,8,-1
 441 -6 l 1,9,10
 424 -4 424 -4 375 -2 c 128,-1,11
 326 0 326 0 266 0 c 2,12,-1
 186 0 l 1,13,-1
 186 1334 l 1,0,1
EndSplineSet
EndChar

StartChar: J
Encoding: 74 74 64
Width: 921
Flags: W
LayerCount: 2
Fore
SplineSet
50 392 m 1,0,-1
 57 394 l 1,1,2
 92 305 92 305 161.5 259.5 c 128,-1,3
 231 214 231 214 316 214 c 0,4,5
 368 214 368 214 407 230 c 128,-1,6
 446 246 446 246 472.5 275.5 c 128,-1,7
 499 305 499 305 512.5 345.5 c 128,-1,8
 526 386 526 386 526 434 c 2,9,-1
 526 1335 l 1,10,11
 551 1333 551 1333 566 1332.5 c 128,-1,12
 581 1332 581 1332 594 1331 c 128,-1,13
 607 1330 607 1330 620.5 1330 c 128,-1,14
 634 1330 634 1330 655 1330 c 0,15,16
 693 1330 693 1330 725 1332 c 128,-1,17
 757 1334 757 1334 781 1338 c 1,18,-1
 781 442 l 2,19,20
 781 329 781 329 747 242 c 128,-1,21
 713 155 713 155 654 95.5 c 128,-1,22
 595 36 595 36 515 5.5 c 128,-1,23
 435 -25 435 -25 344 -25 c 0,24,25
 257 -25 257 -25 186.5 -3.5 c 128,-1,26
 116 18 116 18 50 73 c 1,27,-1
 50 392 l 1,0,-1
EndSplineSet
EndChar

StartChar: K
Encoding: 75 75 65
Width: 1189
Flags: W
LayerCount: 2
Fore
SplineSet
180 1334 m 1,0,1
 200 1333 200 1333 220.5 1332 c 128,-1,2
 241 1331 241 1331 259 1330.5 c 128,-1,3
 277 1330 277 1330 290.5 1330 c 128,-1,4
 304 1330 304 1330 312 1330 c 0,5,6
 351 1330 351 1330 386.5 1332.5 c 128,-1,7
 422 1335 422 1335 435 1338 c 1,8,-1
 435 775 l 1,9,-1
 810 1334 l 1,10,11
 826 1333 826 1333 848.5 1332 c 128,-1,12
 871 1331 871 1331 893 1330.5 c 128,-1,13
 915 1330 915 1330 934 1330 c 128,-1,14
 953 1330 953 1330 963 1330 c 0,15,16
 982 1330 982 1330 1003 1330.5 c 128,-1,17
 1024 1331 1024 1331 1044.5 1332 c 128,-1,18
 1065 1333 1065 1333 1082 1334.5 c 128,-1,19
 1099 1336 1099 1336 1110 1338 c 1,20,-1
 777 866 l 1,21,-1
 1114 80 l 2,22,23
 1128 48 1128 48 1138.5 30 c 128,-1,24
 1149 12 1149 12 1159 0 c 1,25,-1
 1098 0 l 2,26,27
 984 0 984 0 922.5 -2 c 128,-1,28
 861 -4 861 -4 835 -8 c 1,29,30
 830 23 830 23 822.5 53 c 128,-1,31
 815 83 815 83 805 109 c 1,32,-1
 590 601 l 1,33,-1
 435 380 l 1,34,-1
 435 -6 l 1,35,36
 412 -4 412 -4 368.5 -2 c 128,-1,37
 325 0 325 0 259 0 c 2,38,-1
 180 0 l 1,39,-1
 180 1334 l 1,0,1
EndSplineSet
EndChar

StartChar: L
Encoding: 76 76 66
Width: 936
Flags: W
LayerCount: 2
Fore
SplineSet
180 1336 m 1,0,1
 188 1334 188 1334 223 1332 c 128,-1,2
 258 1330 258 1330 305 1330 c 0,3,4
 326 1330 326 1330 355.5 1331 c 128,-1,5
 385 1332 385 1332 435 1334 c 1,6,-1
 435 240 l 1,7,-1
 702 240 l 2,8,9
 717 240 717 240 738 240.5 c 128,-1,10
 759 241 759 241 780 242 c 128,-1,11
 801 243 801 243 819 244 c 128,-1,12
 837 245 837 245 846 246 c 1,13,14
 844 179 844 179 842 124 c 0,15,16
 841 101 841 101 840.5 78 c 128,-1,17
 840 55 840 55 839.5 37 c 128,-1,18
 839 19 839 19 839 7 c 128,-1,19
 839 -5 839 -5 839 -7 c 1,20,21
 811 -5 811 -5 780.5 -3.5 c 128,-1,22
 750 -2 750 -2 712.5 -1.5 c 128,-1,23
 675 -1 675 -1 628 -0.5 c 128,-1,24
 581 0 581 0 520 0 c 2,25,-1
 355 0 l 2,26,27
 295 0 295 0 246 -2 c 128,-1,28
 197 -4 197 -4 180 -6 c 1,29,-1
 180 1336 l 1,0,1
EndSplineSet
EndChar

StartChar: M
Encoding: 77 77 67
Width: 1545
Flags: W
LayerCount: 2
Fore
SplineSet
180 1334 m 1,0,1
 212 1332 212 1332 235.5 1331 c 128,-1,2
 259 1330 259 1330 278 1330 c 0,3,4
 335 1330 335 1330 374.5 1332 c 128,-1,5
 414 1334 414 1334 430 1338 c 1,6,-1
 766 767 l 1,7,-1
 1089 1338 l 1,8,9
 1097 1336 1097 1336 1115.5 1334.5 c 128,-1,10
 1134 1333 1134 1333 1157 1332 c 128,-1,11
 1180 1331 1180 1331 1205 1330.5 c 128,-1,12
 1230 1330 1230 1330 1251 1330 c 0,13,14
 1286 1330 1286 1330 1309.5 1331 c 128,-1,15
 1333 1332 1333 1332 1365 1334 c 1,16,-1
 1365 0 l 1,17,-1
 1285 0 l 2,18,19
 1225 0 1225 0 1176 -2 c 128,-1,20
 1127 -4 1127 -4 1110 -6 c 1,21,-1
 1110 907 l 1,22,-1
 773 305 l 1,23,-1
 435 859 l 1,24,-1
 435 -6 l 1,25,26
 418 -4 418 -4 369 -2 c 128,-1,27
 320 0 320 0 260 0 c 2,28,-1
 180 0 l 1,29,-1
 180 1334 l 1,0,1
EndSplineSet
EndChar

StartChar: N
Encoding: 78 78 68
Width: 1276
Flags: W
LayerCount: 2
Fore
SplineSet
160 0 m 1,0,1
 163 17 163 17 164.5 33.5 c 128,-1,2
 166 50 166 50 166 74 c 2,3,-1
 166 1330 l 1,4,-1
 386 1330 l 1,5,6
 438 1232 438 1232 490.5 1138 c 128,-1,7
 543 1044 543 1044 600 947 c 128,-1,8
 657 850 657 850 720.5 747 c 128,-1,9
 784 644 784 644 856 528 c 1,10,-1
 856 1262 l 2,11,12
 856 1317 856 1317 846 1330 c 1,13,-1
 1116 1330 l 1,14,15
 1114 1314 1114 1314 1112.5 1292.5 c 128,-1,16
 1111 1271 1111 1271 1111 1242 c 2,17,-1
 1111 0 l 1,18,-1
 893 0 l 1,19,20
 838 85 838 85 793 153.5 c 128,-1,21
 748 222 748 222 710 281 c 128,-1,22
 672 340 672 340 637.5 394.5 c 128,-1,23
 603 449 603 449 569 505 c 128,-1,24
 535 561 535 561 499 623.5 c 128,-1,25
 463 686 463 686 421 762 c 1,26,-1
 421 0 l 1,27,-1
 160 0 l 1,28,-1
 160 0 l 1,0,1
EndSplineSet
EndChar

StartChar: O
Encoding: 79 79 69
Width: 1565
Flags: W
LayerCount: 2
Fore
SplineSet
100 637 m 0,0,1
 100 780 100 780 149.5 910 c 128,-1,2
 199 1040 199 1040 290.5 1139 c 128,-1,3
 382 1238 382 1238 511 1296.5 c 128,-1,4
 640 1355 640 1355 800 1355 c 0,5,6
 931 1355 931 1355 1051.5 1311 c 128,-1,7
 1172 1267 1172 1267 1264 1181 c 128,-1,8
 1356 1095 1356 1095 1410.5 969 c 128,-1,9
 1465 843 1465 843 1465 679 c 0,10,11
 1465 574 1465 574 1439.5 481 c 128,-1,12
 1414 388 1414 388 1367.5 310 c 128,-1,13
 1321 232 1321 232 1257 169.5 c 128,-1,14
 1193 107 1193 107 1116 64 c 128,-1,15
 1039 21 1039 21 952 -2 c 128,-1,16
 865 -25 865 -25 773 -25 c 0,17,18
 632 -25 632 -25 509.5 23 c 128,-1,19
 387 71 387 71 296 158 c 128,-1,20
 205 245 205 245 152.5 367 c 128,-1,21
 100 489 100 489 100 637 c 0,0,1
358 648 m 0,22,23
 358 555 358 555 392.5 475.5 c 128,-1,24
 427 396 427 396 486 338 c 128,-1,25
 545 280 545 280 625 247.5 c 128,-1,26
 705 215 705 215 796 215 c 0,27,28
 882 215 882 215 957.5 245.5 c 128,-1,29
 1033 276 1033 276 1088.5 333.5 c 128,-1,30
 1144 391 1144 391 1176 473 c 128,-1,31
 1208 555 1208 555 1208 657 c 0,32,33
 1208 747 1208 747 1179 829 c 128,-1,34
 1150 911 1150 911 1094.5 973.5 c 128,-1,35
 1039 1036 1039 1036 959.5 1073 c 128,-1,36
 880 1110 880 1110 780 1110 c 0,37,38
 682 1110 682 1110 604 1072.5 c 128,-1,39
 526 1035 526 1035 471 971.5 c 128,-1,40
 416 908 416 908 387 824 c 128,-1,41
 358 740 358 740 358 648 c 0,22,23
EndSplineSet
EndChar

StartChar: P
Encoding: 80 80 70
Width: 1110
Flags: W
LayerCount: 2
Fore
SplineSet
180 1337 m 1,0,1
 303 1355 303 1355 425 1355 c 0,2,3
 560 1355 560 1355 670 1320 c 128,-1,4
 780 1285 780 1285 858 1219.5 c 128,-1,5
 936 1154 936 1154 978 1059.5 c 128,-1,6
 1020 965 1020 965 1020 846 c 0,7,8
 1020 768 1020 768 997.5 700 c 128,-1,9
 975 632 975 632 936 576.5 c 128,-1,10
 897 521 897 521 844.5 477.5 c 128,-1,11
 792 434 792 434 731 404 c 128,-1,12
 670 374 670 374 604 358.5 c 128,-1,13
 538 343 538 343 472 343 c 0,14,15
 463 343 463 343 454 343.5 c 128,-1,16
 445 344 445 344 435 345 c 1,17,-1
 435 0 l 1,18,-1
 180 0 l 1,19,-1
 180 1337 l 1,0,1
435 584 m 1,20,21
 445 582 445 582 455 582 c 128,-1,22
 465 582 465 582 476 582 c 0,23,24
 532 582 532 582 584 598.5 c 128,-1,25
 636 615 636 615 676 646.5 c 128,-1,26
 716 678 716 678 740 723.5 c 128,-1,27
 764 769 764 769 764 828 c 0,28,29
 764 891 764 891 742.5 943.5 c 128,-1,30
 721 996 721 996 683 1034 c 128,-1,31
 645 1072 645 1072 592 1093 c 128,-1,32
 539 1114 539 1114 475 1114 c 0,33,34
 464 1114 464 1114 454 1114 c 128,-1,35
 444 1114 444 1114 435 1113 c 1,36,-1
 435 584 l 1,20,21
EndSplineSet
EndChar

StartChar: Q
Encoding: 81 81 71
Width: 1565
Flags: W
LayerCount: 2
Fore
SplineSet
100 637 m 0,0,1
 100 780 100 780 149.5 910 c 128,-1,2
 199 1040 199 1040 290.5 1139 c 128,-1,3
 382 1238 382 1238 511 1296.5 c 128,-1,4
 640 1355 640 1355 800 1355 c 0,5,6
 935 1355 935 1355 1056 1309.5 c 128,-1,7
 1177 1264 1177 1264 1267.5 1177 c 128,-1,8
 1358 1090 1358 1090 1411.5 964.5 c 128,-1,9
 1465 839 1465 839 1465 679 c 0,10,11
 1465 587 1465 587 1445 504.5 c 128,-1,12
 1425 422 1425 422 1389 350.5 c 128,-1,13
 1353 279 1353 279 1302.5 219 c 128,-1,14
 1252 159 1252 159 1191 113 c 1,15,16
 1236 92 1236 92 1267 77.5 c 128,-1,17
 1298 63 1298 63 1322 54 c 128,-1,18
 1346 45 1346 45 1365.5 41.5 c 128,-1,19
 1385 38 1385 38 1405 38 c 0,20,21
 1420 38 1420 38 1434 45.5 c 128,-1,22
 1448 53 1448 53 1459 71 c 1,23,-1
 1463 68 l 1,24,-1
 1387 -143 l 2,25,26
 1379 -167 1379 -167 1367 -176.5 c 128,-1,27
 1355 -186 1355 -186 1334 -186 c 0,28,29
 1316 -186 1316 -186 1295.5 -182.5 c 128,-1,30
 1275 -179 1275 -179 1249 -171.5 c 128,-1,31
 1223 -164 1223 -164 1191 -151 c 128,-1,32
 1159 -138 1159 -138 1117 -119 c 0,33,34
 1064 -95 1064 -95 1021 -78.5 c 128,-1,35
 978 -62 978 -62 938 -51.5 c 128,-1,36
 898 -41 898 -41 858 -35 c 128,-1,37
 818 -29 818 -29 773 -25 c 1,38,39
 632 -25 632 -25 509.5 23 c 128,-1,40
 387 71 387 71 296 158 c 128,-1,41
 205 245 205 245 152.5 367 c 128,-1,42
 100 489 100 489 100 637 c 0,0,1
358 648 m 0,43,44
 358 555 358 555 392.5 475.5 c 128,-1,45
 427 396 427 396 486 338 c 128,-1,46
 545 280 545 280 625 247.5 c 128,-1,47
 705 215 705 215 796 215 c 0,48,49
 882 215 882 215 957.5 245.5 c 128,-1,50
 1033 276 1033 276 1088.5 333.5 c 128,-1,51
 1144 391 1144 391 1176 473 c 128,-1,52
 1208 555 1208 555 1208 657 c 0,53,54
 1208 747 1208 747 1179 829 c 128,-1,55
 1150 911 1150 911 1094.5 973.5 c 128,-1,56
 1039 1036 1039 1036 959.5 1073 c 128,-1,57
 880 1110 880 1110 780 1110 c 0,58,59
 682 1110 682 1110 604 1072.5 c 128,-1,60
 526 1035 526 1035 471 971.5 c 128,-1,61
 416 908 416 908 387 824 c 128,-1,62
 358 740 358 740 358 648 c 0,43,44
EndSplineSet
EndChar

StartChar: R
Encoding: 82 82 72
Width: 1182
Flags: W
LayerCount: 2
Fore
SplineSet
180 1337 m 1,0,1
 242 1346 242 1346 306.5 1350.5 c 128,-1,2
 371 1355 371 1355 454 1355 c 0,3,4
 592 1355 592 1355 700.5 1323.5 c 128,-1,5
 809 1292 809 1292 883 1235.5 c 128,-1,6
 957 1179 957 1179 996 1100 c 128,-1,7
 1035 1021 1035 1021 1035 926 c 0,8,9
 1035 830 1035 830 991 748.5 c 128,-1,10
 947 667 947 667 862 610 c 1,11,-1
 1070 156 l 2,12,13
 1102 85 1102 85 1123 48.5 c 128,-1,14
 1144 12 1144 12 1162 -2 c 1,15,-1
 1157 -7 l 1,16,17
 1132 -3 1132 -3 1108 -1.5 c 128,-1,18
 1084 0 1084 0 1060 0 c 0,19,20
 1022 0 1022 0 973.5 -1.5 c 128,-1,21
 925 -3 925 -3 862 -8 c 1,22,-1
 634 525 l 1,23,24
 604 520 604 520 572.5 517.5 c 128,-1,25
 541 515 541 515 507 515 c 0,26,27
 490 515 490 515 471.5 516 c 128,-1,28
 453 517 453 517 435 519 c 1,29,-1
 435 0 l 1,30,-1
 180 0 l 1,31,-1
 180 1337 l 1,0,1
435 750 m 1,32,33
 462 745 462 745 487.5 744.5 c 128,-1,34
 513 744 513 744 534 744 c 0,35,36
 586 744 586 744 631 758 c 128,-1,37
 676 772 676 772 709 796 c 128,-1,38
 742 820 742 820 761 852 c 128,-1,39
 780 884 780 884 780 921 c 0,40,41
 780 960 780 960 760 995.5 c 128,-1,42
 740 1031 740 1031 701.5 1057.5 c 128,-1,43
 663 1084 663 1084 606 1099.5 c 128,-1,44
 549 1115 549 1115 475 1115 c 0,45,46
 464 1115 464 1115 454 1115 c 128,-1,47
 444 1115 444 1115 435 1114 c 1,48,-1
 435 750 l 1,32,33
EndSplineSet
EndChar

StartChar: S
Encoding: 83 83 73
Width: 1216
Flags: W
LayerCount: 2
Fore
SplineSet
131 456 m 1,0,-1
 135 459 l 1,1,2
 161 402 161 402 205 357 c 128,-1,3
 249 312 249 312 307.5 280.5 c 128,-1,4
 366 249 366 249 435.5 232 c 128,-1,5
 505 215 505 215 582 215 c 0,6,7
 644 215 644 215 698 225 c 128,-1,8
 752 235 752 235 792.5 256.5 c 128,-1,9
 833 278 833 278 856.5 311.5 c 128,-1,10
 880 345 880 345 880 392 c 0,11,12
 880 426 880 426 866.5 454 c 128,-1,13
 853 482 853 482 822 503.5 c 128,-1,14
 791 525 791 525 740 539 c 128,-1,15
 689 553 689 553 614 560 c 0,16,17
 479 572 479 572 387 604.5 c 128,-1,18
 295 637 295 637 238 686.5 c 128,-1,19
 181 736 181 736 156.5 801.5 c 128,-1,20
 132 867 132 867 132 945 c 0,21,22
 132 1033 132 1033 168 1108 c 128,-1,23
 204 1183 204 1183 269.5 1238 c 128,-1,24
 335 1293 335 1293 425 1324 c 128,-1,25
 515 1355 515 1355 623 1355 c 0,26,27
 689 1355 689 1355 743.5 1348 c 128,-1,28
 798 1341 798 1341 844.5 1328 c 128,-1,29
 891 1315 891 1315 931 1296.5 c 128,-1,30
 971 1278 971 1278 1007 1256 c 1,31,-1
 988 962 l 1,32,-1
 981 960 l 1,33,34
 957 996 957 996 919 1025 c 128,-1,35
 881 1054 881 1054 833 1074 c 128,-1,36
 785 1094 785 1094 729 1104.5 c 128,-1,37
 673 1115 673 1115 614 1115 c 0,38,39
 560 1115 560 1115 518 1104 c 128,-1,40
 476 1093 476 1093 446.5 1074.5 c 128,-1,41
 417 1056 417 1056 401.5 1030.5 c 128,-1,42
 386 1005 386 1005 386 976 c 0,43,44
 386 942 386 942 399 915 c 128,-1,45
 412 888 412 888 445.5 867.5 c 128,-1,46
 479 847 479 847 536.5 831.5 c 128,-1,47
 594 816 594 816 683 804 c 1,48,49
 805 789 805 789 891 757 c 128,-1,50
 977 725 977 725 1031.5 676.5 c 128,-1,51
 1086 628 1086 628 1111 563 c 128,-1,52
 1136 498 1136 498 1136 416 c 0,53,54
 1136 337 1136 337 1113 273.5 c 128,-1,55
 1090 210 1090 210 1050.5 161 c 128,-1,56
 1011 112 1011 112 957 77 c 128,-1,57
 903 42 903 42 841.5 19 c 128,-1,58
 780 -4 780 -4 713.5 -14.5 c 128,-1,59
 647 -25 647 -25 582 -25 c 0,60,61
 434 -25 434 -25 319 9.5 c 128,-1,62
 204 44 204 44 120 102 c 1,63,-1
 131 456 l 1,0,-1
EndSplineSet
EndChar

StartChar: T
Encoding: 84 84 74
Width: 1100
Flags: W
LayerCount: 2
Fore
SplineSet
420 1106 m 1,0,-1
 192 1106 l 2,1,2
 159 1106 159 1106 138 1105 c 128,-1,3
 117 1104 117 1104 103.5 1101 c 128,-1,4
 90 1098 90 1098 81 1093 c 128,-1,5
 72 1088 72 1088 63 1081 c 1,6,-1
 60 1082 l 1,7,-1
 60 1338 l 1,8,-1
 63 1341 l 1,9,10
 72 1338 72 1338 84 1336 c 128,-1,11
 96 1334 96 1334 116 1332.5 c 128,-1,12
 136 1331 136 1331 166 1330.5 c 128,-1,13
 196 1330 196 1330 241 1330 c 2,14,-1
 908 1330 l 2,15,16
 941 1330 941 1330 962 1331 c 128,-1,17
 983 1332 983 1332 996.5 1335 c 128,-1,18
 1010 1338 1010 1338 1019 1343 c 128,-1,19
 1028 1348 1028 1348 1037 1355 c 1,20,-1
 1040 1354 l 1,21,-1
 1040 1098 l 1,22,-1
 1037 1095 l 1,23,24
 1028 1098 1028 1098 1016 1100 c 128,-1,25
 1004 1102 1004 1102 984 1103.5 c 128,-1,26
 964 1105 964 1105 934 1105.5 c 128,-1,27
 904 1106 904 1106 859 1106 c 2,28,-1
 679 1106 l 1,29,-1
 679 -6 l 1,30,31
 663 -5 663 -5 610 -2.5 c 128,-1,32
 557 0 557 0 452 0 c 2,33,-1
 420 0 l 1,34,-1
 420 1106 l 1,0,-1
EndSplineSet
EndChar

StartChar: U
Encoding: 85 85 75
Width: 1321
Flags: W
LayerCount: 2
Fore
SplineSet
180 1335 m 1,0,1
 230 1332 230 1332 256.5 1331 c 128,-1,2
 283 1330 283 1330 297 1330 c 0,3,4
 330 1330 330 1330 351.5 1330.5 c 128,-1,5
 373 1331 373 1331 388 1332 c 128,-1,6
 403 1333 403 1333 414.5 1334.5 c 128,-1,7
 426 1336 426 1336 438 1338 c 1,8,-1
 438 475 l 2,9,10
 438 409 438 409 456 360 c 128,-1,11
 474 311 474 311 506 279 c 128,-1,12
 538 247 538 247 581 231 c 128,-1,13
 624 215 624 215 675 215 c 0,14,15
 720 215 720 215 758.5 231 c 128,-1,16
 797 247 797 247 824.5 283.5 c 128,-1,17
 852 320 852 320 867.5 379 c 128,-1,18
 883 438 883 438 883 525 c 2,19,-1
 883 1335 l 1,20,21
 908 1333 908 1333 926 1332.5 c 128,-1,22
 944 1332 944 1332 960.5 1331 c 128,-1,23
 977 1330 977 1330 993.5 1330 c 128,-1,24
 1010 1330 1010 1330 1031 1330 c 0,25,26
 1069 1330 1069 1330 1093.5 1332 c 128,-1,27
 1118 1334 1118 1334 1141 1338 c 1,28,-1
 1141 511 l 2,29,30
 1141 384 1141 384 1107 284.5 c 128,-1,31
 1073 185 1073 185 1012 116 c 128,-1,32
 951 47 951 47 865.5 11 c 128,-1,33
 780 -25 780 -25 678 -25 c 0,34,35
 570 -25 570 -25 478.5 4.5 c 128,-1,36
 387 34 387 34 321 96.5 c 128,-1,37
 255 159 255 159 217.5 256 c 128,-1,38
 180 353 180 353 180 488 c 2,39,-1
 180 1335 l 1,0,1
EndSplineSet
EndChar

StartChar: V
Encoding: 86 86 76
Width: 1124
Flags: W
LayerCount: 2
Fore
SplineSet
442 0 m 1,0,1
 446 7 446 7 446 17 c 0,2,3
 446 25 446 25 444.5 35 c 128,-1,4
 443 45 443 45 436 71 c 128,-1,5
 429 97 429 97 414 146 c 128,-1,6
 399 195 399 195 372 280 c 2,7,-1
 40 1334 l 1,8,9
 71 1332 71 1332 108.5 1331 c 128,-1,10
 146 1330 146 1330 205 1330 c 0,11,12
 245 1330 245 1330 278 1332.5 c 128,-1,13
 311 1335 311 1335 321 1338 c 1,14,-1
 583 440 l 1,15,-1
 806 1334 l 1,16,17
 836 1332 836 1332 882.5 1331 c 128,-1,18
 929 1330 929 1330 989 1330 c 0,19,20
 1031 1330 1031 1330 1052.5 1332 c 128,-1,21
 1074 1334 1074 1334 1084 1338 c 1,22,-1
 769 283 l 2,23,24
 747 210 747 210 734 165.5 c 128,-1,25
 721 121 721 121 714.5 93.5 c 128,-1,26
 708 66 708 66 706.5 49.5 c 128,-1,27
 705 33 705 33 705 15 c 0,28,29
 705 10 705 10 706 6.5 c 128,-1,30
 707 3 707 3 709 -1 c 1,31,-1
 707 -4 l 1,32,33
 699 -3 699 -3 684.5 -2.5 c 128,-1,34
 670 -2 670 -2 650.5 -1.5 c 128,-1,35
 631 -1 631 -1 609 -0.5 c 128,-1,36
 587 0 587 0 565 0 c 0,37,38
 553 0 553 0 536.5 0 c 128,-1,39
 520 0 520 0 503 0 c 128,-1,40
 486 0 486 0 470 -0.5 c 128,-1,41
 454 -1 454 -1 443 -2 c 1,42,-1
 442 0 l 1,43,-1
 442 0 l 1,0,1
EndSplineSet
EndChar

StartChar: W
Encoding: 87 87 77
Width: 1674
Flags: W
LayerCount: 2
Fore
SplineSet
423 0 m 1,0,1
 427 7 427 7 427 17 c 0,2,3
 427 25 427 25 425 35 c 128,-1,4
 423 45 423 45 415.5 71 c 128,-1,5
 408 97 408 97 393 145.5 c 128,-1,6
 378 194 378 194 352 280 c 2,7,-1
 40 1334 l 1,8,9
 72 1332 72 1332 111 1331 c 128,-1,10
 150 1330 150 1330 210 1330 c 0,11,12
 250 1330 250 1330 282.5 1332.5 c 128,-1,13
 315 1335 315 1335 325 1338 c 1,14,-1
 553 496 l 1,15,-1
 734 1334 l 1,16,17
 749 1333 749 1333 760.5 1332.5 c 128,-1,18
 772 1332 772 1332 783 1331.5 c 128,-1,19
 794 1331 794 1331 807.5 1330.5 c 128,-1,20
 821 1330 821 1330 839 1330 c 0,21,22
 874 1330 874 1330 905 1331.5 c 128,-1,23
 936 1333 936 1333 969 1338 c 1,24,-1
 1146 487 l 1,25,-1
 1349 1334 l 1,26,27
 1379 1332 1379 1332 1429 1331 c 128,-1,28
 1479 1330 1479 1330 1539 1330 c 0,29,30
 1581 1330 1581 1330 1602.5 1332 c 128,-1,31
 1624 1334 1624 1334 1634 1338 c 1,32,-1
 1329 283 l 2,33,34
 1307 210 1307 210 1294.5 165.5 c 128,-1,35
 1282 121 1282 121 1275.5 93.5 c 128,-1,36
 1269 66 1269 66 1267 49.5 c 128,-1,37
 1265 33 1265 33 1265 15 c 0,38,39
 1265 10 1265 10 1266 6.5 c 128,-1,40
 1267 3 1267 3 1269 -1 c 1,41,-1
 1267 -4 l 1,42,43
 1259 -3 1259 -3 1242 -2.5 c 128,-1,44
 1225 -2 1225 -2 1202.5 -1.5 c 128,-1,45
 1180 -1 1180 -1 1155 -0.5 c 128,-1,46
 1130 0 1130 0 1108 0 c 0,47,48
 1096 0 1096 0 1079.5 0 c 128,-1,49
 1063 0 1063 0 1046 0 c 128,-1,50
 1029 0 1029 0 1013 -0.5 c 128,-1,51
 997 -1 997 -1 986 -2 c 1,52,-1
 985 0 l 1,53,54
 989 7 989 7 989 17 c 0,55,56
 989 25 989 25 988.5 34 c 128,-1,57
 988 43 988 43 984 68.5 c 128,-1,58
 980 94 980 94 971 143.5 c 128,-1,59
 962 193 962 193 944 280 c 2,60,-1
 844 778 l 1,61,-1
 740 283 l 2,62,63
 724 208 724 208 715.5 163.5 c 128,-1,64
 707 119 707 119 702.5 92 c 128,-1,65
 698 65 698 65 697 49 c 128,-1,66
 696 33 696 33 696 15 c 0,67,68
 696 10 696 10 697 6.5 c 128,-1,69
 698 3 698 3 700 -1 c 1,70,-1
 698 -4 l 1,71,72
 683 -2 683 -2 647 -1 c 128,-1,73
 611 0 611 0 566 0 c 0,74,75
 554 0 554 0 534.5 0 c 128,-1,76
 515 0 515 0 494 0 c 128,-1,77
 473 0 473 0 454 -0.5 c 128,-1,78
 435 -1 435 -1 424 -2 c 1,79,-1
 423 0 l 1,80,-1
 423 0 l 1,0,1
EndSplineSet
EndChar

StartChar: X
Encoding: 88 88 78
Width: 1159
Flags: W
LayerCount: 2
Fore
SplineSet
0 0 m 1,0,1
 20 21 20 21 43 55 c 128,-1,2
 66 89 66 89 91 132 c 128,-1,3
 116 175 116 175 142.5 223.5 c 128,-1,4
 169 272 169 272 196 320 c 2,5,-1
 420 721 l 1,6,-1
 208 1132 l 2,7,8
 186 1176 186 1176 169 1208 c 128,-1,9
 152 1240 152 1240 138.5 1263 c 128,-1,10
 125 1286 125 1286 113 1302 c 128,-1,11
 101 1318 101 1318 90 1330 c 1,12,-1
 426 1330 l 1,13,14
 424 1325 424 1325 423 1319 c 128,-1,15
 422 1313 422 1313 422 1308 c 0,16,17
 422 1295 422 1295 427.5 1277.5 c 128,-1,18
 433 1260 433 1260 447 1233 c 2,19,-1
 574 970 l 1,20,-1
 703 1233 l 2,21,22
 716 1260 716 1260 720 1277.5 c 128,-1,23
 724 1295 724 1295 724 1308 c 0,24,25
 724 1313 724 1313 723 1319 c 128,-1,26
 722 1325 722 1325 720 1330 c 1,27,-1
 1072 1330 l 1,28,29
 1061 1318 1061 1318 1047 1301.5 c 128,-1,30
 1033 1285 1033 1285 1016 1261.5 c 128,-1,31
 999 1238 999 1238 978.5 1206 c 128,-1,32
 958 1174 958 1174 934 1132 c 2,33,-1
 711 731 l 1,34,-1
 943 269 l 2,35,36
 953 249 953 249 970 213.5 c 128,-1,37
 987 178 987 178 1008 138.5 c 128,-1,38
 1029 99 1029 99 1052.5 61.5 c 128,-1,39
 1076 24 1076 24 1099 0 c 1,40,-1
 776 0 l 1,41,42
 775 8 775 8 773.5 16.5 c 128,-1,43
 772 25 772 25 768 35.5 c 128,-1,44
 764 46 764 46 758 60 c 128,-1,45
 752 74 752 74 742 94 c 2,46,-1
 555 470 l 1,47,-1
 360 94 l 2,48,49
 350 74 350 74 343.5 60 c 128,-1,50
 337 46 337 46 333.5 35.5 c 128,-1,51
 330 25 330 25 328.5 16.5 c 128,-1,52
 327 8 327 8 326 0 c 1,53,-1
 0 0 l 1,54,-1
 0 0 l 1,0,1
EndSplineSet
EndChar

StartChar: Y
Encoding: 89 89 79
Width: 1144
Flags: W
LayerCount: 2
Fore
SplineSet
479 0 m 1,0,1
 482 9 482 9 484.5 22.5 c 128,-1,2
 487 36 487 36 488.5 57.5 c 128,-1,3
 490 79 490 79 491 109.5 c 128,-1,4
 492 140 492 140 492 182 c 2,5,-1
 492 543 l 1,6,7
 462 602 462 602 425 670.5 c 128,-1,8
 388 739 388 739 348 811 c 128,-1,9
 308 883 308 883 266.5 955.5 c 128,-1,10
 225 1028 225 1028 185 1094 c 0,11,12
 129 1186 129 1186 82 1241 c 128,-1,13
 35 1296 35 1296 -9 1330 c 1,14,-1
 346 1330 l 1,15,16
 357 1310 357 1310 376 1275 c 128,-1,17
 395 1240 395 1240 419 1195.5 c 128,-1,18
 443 1151 443 1151 470 1100.5 c 128,-1,19
 497 1050 497 1050 523.5 999.5 c 128,-1,20
 550 949 550 949 574 902.5 c 128,-1,21
 598 856 598 856 617 820 c 1,22,23
 632 859 632 859 651.5 905 c 128,-1,24
 671 951 671 951 692 1000 c 128,-1,25
 713 1049 713 1049 734.5 1097.5 c 128,-1,26
 756 1146 756 1146 775.5 1189.5 c 128,-1,27
 795 1233 795 1233 811.5 1269.5 c 128,-1,28
 828 1306 828 1306 839 1330 c 1,29,-1
 1159 1330 l 1,30,31
 1144 1318 1144 1318 1122.5 1292 c 128,-1,32
 1101 1266 1101 1266 1078.5 1232 c 128,-1,33
 1056 1198 1056 1198 1033.5 1158.5 c 128,-1,34
 1011 1119 1011 1119 994 1081 c 1,35,36
 963 1017 963 1017 928.5 945.5 c 128,-1,37
 894 874 894 874 860.5 801.5 c 128,-1,38
 827 729 827 729 797.5 659.5 c 128,-1,39
 768 590 768 590 747 531 c 1,40,-1
 747 158 l 2,41,42
 747 126 747 126 749 82.5 c 128,-1,43
 751 39 751 39 759 0 c 1,44,-1
 479 0 l 1,45,-1
 479 0 l 1,0,1
EndSplineSet
EndChar

StartChar: Z
Encoding: 90 90 80
Width: 1125
Flags: W
LayerCount: 2
Fore
SplineSet
653 1090 m 1,0,-1
 317 1090 l 2,1,2
 259 1090 259 1090 217 1088.5 c 128,-1,3
 175 1087 175 1087 145.5 1084 c 128,-1,4
 116 1081 116 1081 97.5 1077 c 128,-1,5
 79 1073 79 1073 69 1069 c 1,6,7
 74 1090 74 1090 77.5 1130.5 c 128,-1,8
 81 1171 81 1171 81 1210 c 0,9,10
 81 1223 81 1223 81 1232.5 c 128,-1,11
 81 1242 81 1242 81 1254.5 c 128,-1,12
 81 1267 81 1267 80 1284.5 c 128,-1,13
 79 1302 79 1302 78 1330 c 1,14,-1
 1066 1330 l 1,15,-1
 484 240 l 1,16,-1
 867 240 l 2,17,18
 922 240 922 240 956 241 c 128,-1,19
 990 242 990 242 1011.5 245 c 128,-1,20
 1033 248 1033 248 1046.5 252.5 c 128,-1,21
 1060 257 1060 257 1075 264 c 1,22,-1
 1075 -15 l 1,23,24
 1032 -11 1032 -11 999 -8 c 128,-1,25
 966 -5 966 -5 930 -3 c 128,-1,26
 894 -1 894 -1 848 -0.5 c 128,-1,27
 802 0 802 0 733 0 c 2,28,-1
 50 0 l 1,29,-1
 653 1090 l 1,0,-1
EndSplineSet
EndChar

StartChar: bracketleft
Encoding: 91 91 81
Width: 885
Flags: W
LayerCount: 2
Fore
SplineSet
177 1112 m 2,0,1
 177 1144 177 1144 177 1190.5 c 128,-1,2
 177 1237 177 1237 176 1283.5 c 128,-1,3
 175 1330 175 1330 174 1370 c 128,-1,4
 173 1410 173 1410 172 1430 c 1,5,-1
 452 1430 l 2,6,7
 468 1430 468 1430 501 1430 c 128,-1,8
 534 1430 534 1430 570.5 1431 c 128,-1,9
 607 1432 607 1432 639 1432.5 c 128,-1,10
 671 1433 671 1433 686 1435 c 1,11,-1
 683 1188 l 1,12,13
 675 1190 675 1190 647 1191 c 128,-1,14
 619 1192 619 1192 582.5 1193 c 128,-1,15
 546 1194 546 1194 507.5 1194 c 128,-1,16
 469 1194 469 1194 441 1194 c 2,17,-1
 432 1194 l 1,18,-1
 432 126 l 1,19,-1
 441 126 l 2,20,21
 469 126 469 126 507.5 126 c 128,-1,22
 546 126 546 126 582.5 127 c 128,-1,23
 619 128 619 128 647 129 c 128,-1,24
 675 130 675 130 683 132 c 1,25,-1
 686 -115 l 1,26,27
 671 -114 671 -114 639 -113 c 128,-1,28
 607 -112 607 -112 570.5 -111 c 128,-1,29
 534 -110 534 -110 501 -110 c 128,-1,30
 468 -110 468 -110 452 -110 c 2,31,-1
 173 -110 l 1,32,33
 174 -94 174 -94 175 -82.5 c 128,-1,34
 176 -71 176 -71 176.5 -59.5 c 128,-1,35
 177 -48 177 -48 177 -34.5 c 128,-1,36
 177 -21 177 -21 177 -1 c 2,37,-1
 177 1112 l 2,0,1
EndSplineSet
EndChar

StartChar: backslash
Encoding: 92 92 82
Width: 885
Flags: W
LayerCount: 2
Fore
SplineSet
124 1330 m 1,0,-1
 380 1330 l 1,1,-1
 760 0 l 1,2,-1
 504 0 l 1,3,-1
 124 1330 l 1,0,-1
EndSplineSet
EndChar

StartChar: bracketright
Encoding: 93 93 83
Width: 885
Flags: W
LayerCount: 2
Fore
SplineSet
202 132 m 1,0,1
 209 130 209 130 237.5 129 c 128,-1,2
 266 128 266 128 302.5 127 c 128,-1,3
 339 126 339 126 377.5 126 c 128,-1,4
 416 126 416 126 444 126 c 2,5,-1
 453 126 l 1,6,-1
 453 1194 l 1,7,-1
 444 1194 l 2,8,9
 416 1194 416 1194 377.5 1194 c 128,-1,10
 339 1194 339 1194 302.5 1193 c 128,-1,11
 266 1192 266 1192 237.5 1191 c 128,-1,12
 209 1190 209 1190 202 1188 c 1,13,-1
 199 1435 l 1,14,15
 214 1433 214 1433 246 1432.5 c 128,-1,16
 278 1432 278 1432 314.5 1431 c 128,-1,17
 351 1430 351 1430 384 1430 c 128,-1,18
 417 1430 417 1430 433 1430 c 2,19,-1
 713 1430 l 1,20,21
 711 1410 711 1410 710.5 1370 c 128,-1,22
 710 1330 710 1330 709 1283.5 c 128,-1,23
 708 1237 708 1237 708 1190.5 c 128,-1,24
 708 1144 708 1144 708 1112 c 2,25,-1
 708 -1 l 2,26,27
 708 -21 708 -21 708 -34.5 c 128,-1,28
 708 -48 708 -48 708.5 -59.5 c 128,-1,29
 709 -71 709 -71 709.5 -82.5 c 128,-1,30
 710 -94 710 -94 712 -110 c 1,31,-1
 433 -110 l 2,32,33
 417 -110 417 -110 384 -110 c 128,-1,34
 351 -110 351 -110 314.5 -111 c 128,-1,35
 278 -112 278 -112 246 -113 c 128,-1,36
 214 -114 214 -114 199 -115 c 1,37,-1
 202 132 l 1,0,1
EndSplineSet
EndChar

StartChar: asciicircum
Encoding: 94 94 84
Width: 1239
Flags: W
LayerCount: 2
Fore
SplineSet
503 1415 m 1,0,-1
 717 1415 l 1,1,-1
 1134 655 l 1,2,-1
 852 655 l 1,3,-1
 613 1138 l 1,4,-1
 385 655 l 1,5,-1
 104 655 l 1,6,-1
 503 1415 l 1,0,-1
EndSplineSet
EndChar

StartChar: underscore
Encoding: 95 95 85
Width: 1061
Flags: W
LayerCount: 2
Fore
SplineSet
1063 -176 m 1,0,-1
 1063 -356 l 1,1,-1
 -1 -356 l 1,2,-1
 -1 -176 l 1,3,-1
 1063 -176 l 1,0,-1
EndSplineSet
EndChar

StartChar: grave
Encoding: 96 96 86
Width: 759
Flags: W
LayerCount: 2
Fore
SplineSet
171 1513 m 1,0,-1
 170 1520 l 1,1,2
 210 1516 210 1516 244 1513 c 128,-1,3
 278 1510 278 1510 314 1507.5 c 128,-1,4
 350 1505 350 1505 392 1504 c 128,-1,5
 434 1503 434 1503 490 1503 c 1,6,-1
 659 1190 l 1,7,-1
 433 1190 l 1,8,-1
 171 1513 l 1,0,-1
EndSplineSet
EndChar

StartChar: a
Encoding: 97 97 87
Width: 1024
Flags: W
LayerCount: 2
Fore
SplineSet
95 332 m 0,0,1
 95 414 95 414 133.5 485.5 c 128,-1,2
 172 557 172 557 239 609 c 128,-1,3
 306 661 306 661 397 691 c 128,-1,4
 488 721 488 721 594 721 c 0,5,6
 605 721 605 721 618 720 c 128,-1,7
 631 719 631 719 642 718 c 1,8,9
 627 794 627 794 577.5 826.5 c 128,-1,10
 528 859 528 859 450 859 c 0,11,12
 412 859 412 859 375.5 849.5 c 128,-1,13
 339 840 339 840 305.5 823 c 128,-1,14
 272 806 272 806 242.5 782 c 128,-1,15
 213 758 213 758 190 729 c 1,16,-1
 187 731 l 1,17,-1
 157 962 l 1,18,19
 229 1013 229 1013 309 1039 c 128,-1,20
 389 1065 389 1065 488 1065 c 0,21,22
 584 1065 584 1065 659.5 1037.5 c 128,-1,23
 735 1010 735 1010 787 957.5 c 128,-1,24
 839 905 839 905 866.5 830 c 128,-1,25
 894 755 894 755 894 661 c 2,26,-1
 894 299 l 2,27,28
 894 268 894 268 897.5 245.5 c 128,-1,29
 901 223 901 223 909 206 c 128,-1,30
 917 189 917 189 930.5 176.5 c 128,-1,31
 944 164 944 164 964 154 c 1,32,-1
 785 -15 l 1,33,34
 765 -4 765 -4 748.5 8.5 c 128,-1,35
 732 21 732 21 718 38 c 1,36,37
 618 -15 618 -15 483 -15 c 0,38,39
 390 -15 390 -15 317.5 11.5 c 128,-1,40
 245 38 245 38 195.5 84.5 c 128,-1,41
 146 131 146 131 120.5 194.5 c 128,-1,42
 95 258 95 258 95 332 c 0,0,1
340 356 m 0,43,44
 340 317 340 317 354.5 287.5 c 128,-1,45
 369 258 369 258 393 238.5 c 128,-1,46
 417 219 417 219 449.5 209 c 128,-1,47
 482 199 482 199 518 199 c 0,48,49
 557 199 557 199 589.5 207 c 128,-1,50
 622 215 622 215 651 232 c 1,51,52
 649 245 649 245 649 258.5 c 128,-1,53
 649 272 649 272 649 286 c 2,54,-1
 649 511 l 1,55,56
 638 513 638 513 626 514 c 128,-1,57
 614 515 614 515 599 515 c 0,58,59
 538 515 538 515 490 502.5 c 128,-1,60
 442 490 442 490 408.5 468 c 128,-1,61
 375 446 375 446 357.5 417.5 c 128,-1,62
 340 389 340 389 340 356 c 0,43,44
EndSplineSet
EndChar

StartChar: b
Encoding: 98 98 88
Width: 1113
Flags: W
LayerCount: 2
Fore
SplineSet
140 1430 m 1,0,-1
 385 1430 l 1,1,-1
 385 1012 l 1,2,3
 434 1040 434 1040 487.5 1052.5 c 128,-1,4
 541 1065 541 1065 598 1065 c 0,5,6
 691 1065 691 1065 770.5 1028.5 c 128,-1,7
 850 992 850 992 908.5 923.5 c 128,-1,8
 967 855 967 855 1000 758.5 c 128,-1,9
 1033 662 1033 662 1033 542 c 0,10,11
 1033 412 1033 412 994 309 c 128,-1,12
 955 206 955 206 889 134 c 128,-1,13
 823 62 823 62 735.5 23.5 c 128,-1,14
 648 -15 648 -15 551 -15 c 0,15,16
 463 -15 463 -15 387.5 16 c 128,-1,17
 312 47 312 47 257 105 c 128,-1,18
 202 163 202 163 171 246 c 128,-1,19
 140 329 140 329 140 433 c 2,20,-1
 140 1430 l 1,0,-1
385 436 m 2,21,22
 385 331 385 331 429.5 275.5 c 128,-1,23
 474 220 474 220 564 220 c 0,24,25
 613 220 613 220 654 244.5 c 128,-1,26
 695 269 695 269 725 313.5 c 128,-1,27
 755 358 755 358 771.5 419 c 128,-1,28
 788 480 788 480 788 553 c 0,29,30
 788 629 788 629 770 682.5 c 128,-1,31
 752 736 752 736 720.5 770 c 128,-1,32
 689 804 689 804 646 819.5 c 128,-1,33
 603 835 603 835 552 835 c 0,34,35
 510 835 510 835 466 814 c 128,-1,36
 422 793 422 793 385 758 c 1,37,-1
 385 436 l 2,21,22
EndSplineSet
EndChar

StartChar: c
Encoding: 99 99 89
Width: 1059
Flags: W
LayerCount: 2
Fore
SplineSet
80 506 m 0,0,1
 80 614 80 614 120.5 715 c 128,-1,2
 161 816 161 816 237 894 c 128,-1,3
 313 972 313 972 421 1018.5 c 128,-1,4
 529 1065 529 1065 664 1065 c 0,5,6
 761 1065 761 1065 838.5 1042 c 128,-1,7
 916 1019 916 1019 984 975 c 1,8,-1
 944 709 l 1,9,-1
 937 710 l 1,10,11
 888 769 888 769 813.5 802 c 128,-1,12
 739 835 739 835 630 835 c 0,13,14
 568 835 568 835 512.5 813 c 128,-1,15
 457 791 457 791 415.5 752 c 128,-1,16
 374 713 374 713 349.5 659 c 128,-1,17
 325 605 325 605 325 540 c 0,18,19
 325 468 325 468 350.5 409 c 128,-1,20
 376 350 376 350 421.5 308 c 128,-1,21
 467 266 467 266 530 243 c 128,-1,22
 593 220 593 220 669 220 c 0,23,24
 718 220 718 220 763.5 235 c 128,-1,25
 809 250 809 250 846.5 275 c 128,-1,26
 884 300 884 300 913 333.5 c 128,-1,27
 942 367 942 367 959 404 c 1,28,-1
 966 401 l 1,29,-1
 989 107 l 1,30,31
 917 51 917 51 827 18 c 128,-1,32
 737 -15 737 -15 628 -15 c 0,33,34
 513 -15 513 -15 413 23 c 128,-1,35
 313 61 313 61 239 129.5 c 128,-1,36
 165 198 165 198 122.5 294 c 128,-1,37
 80 390 80 390 80 506 c 0,0,1
EndSplineSet
EndChar

StartChar: d
Encoding: 100 100 90
Width: 1208
Flags: W
LayerCount: 2
Fore
SplineSet
80 509 m 0,0,1
 80 627 80 627 123.5 728.5 c 128,-1,2
 167 830 167 830 244.5 905 c 128,-1,3
 322 980 322 980 429 1022.5 c 128,-1,4
 536 1065 536 1065 662 1065 c 0,5,6
 739 1065 739 1065 813 1045 c 1,7,-1
 813 1430 l 1,8,-1
 1058 1430 l 1,9,-1
 1058 421 l 2,10,11
 1058 353 1058 353 1061.5 309 c 128,-1,12
 1065 265 1065 265 1074 235.5 c 128,-1,13
 1083 206 1083 206 1098.5 187 c 128,-1,14
 1114 168 1114 168 1138 151 c 1,15,-1
 950 -15 l 1,16,17
 905 8 905 8 873 48 c 1,18,19
 817 14 817 14 751 -0.5 c 128,-1,20
 685 -15 685 -15 604 -15 c 0,21,22
 485 -15 485 -15 388.5 25 c 128,-1,23
 292 65 292 65 223.5 135 c 128,-1,24
 155 205 155 205 117.5 301 c 128,-1,25
 80 397 80 397 80 509 c 0,0,1
322 539 m 0,26,27
 322 470 322 470 344 412 c 128,-1,28
 366 354 366 354 408 311 c 128,-1,29
 450 268 450 268 512 244 c 128,-1,30
 574 220 574 220 654 220 c 0,31,32
 697 220 697 220 736.5 227 c 128,-1,33
 776 234 776 234 813 251 c 1,34,-1
 813 806 l 1,35,36
 743 835 743 835 651 835 c 0,37,38
 579 835 579 835 519 813 c 128,-1,39
 459 791 459 791 415 752 c 128,-1,40
 371 713 371 713 346.5 658.5 c 128,-1,41
 322 604 322 604 322 539 c 0,26,27
EndSplineSet
EndChar

StartChar: e
Encoding: 101 101 91
Width: 1210
Flags: W
LayerCount: 2
Fore
SplineSet
80 516 m 0,0,1
 80 631 80 631 121.5 731 c 128,-1,2
 163 831 163 831 238 905.5 c 128,-1,3
 313 980 313 980 418 1022.5 c 128,-1,4
 523 1065 523 1065 651 1065 c 0,5,6
 756 1065 756 1065 843.5 1031.5 c 128,-1,7
 931 998 931 998 995 935 c 128,-1,8
 1059 872 1059 872 1094.5 782.5 c 128,-1,9
 1130 693 1130 693 1130 582 c 0,10,11
 1130 544 1130 544 1125.5 516 c 128,-1,12
 1121 488 1121 488 1118 476 c 1,13,14
 1092 469 1092 469 1051 463.5 c 128,-1,15
 1010 458 1010 458 956 454 c 128,-1,16
 902 450 902 450 837.5 448 c 128,-1,17
 773 446 773 446 701 446 c 0,18,19
 623 446 623 446 558 446 c 128,-1,20
 493 446 493 446 439 448 c 1,21,-1
 439 670 l 1,22,23
 468 665 468 665 513.5 664 c 128,-1,24
 559 663 559 663 613 663 c 0,25,26
 637 663 637 663 671.5 663.5 c 128,-1,27
 706 664 706 664 743.5 665 c 128,-1,28
 781 666 781 666 817 667 c 128,-1,29
 853 668 853 668 881 670 c 1,30,31
 870 707 870 707 845.5 737.5 c 128,-1,32
 821 768 821 768 787 789.5 c 128,-1,33
 753 811 753 811 710.5 823 c 128,-1,34
 668 835 668 835 620 835 c 0,35,36
 558 835 558 835 504 813 c 128,-1,37
 450 791 450 791 410 751 c 128,-1,38
 370 711 370 711 346.5 655 c 128,-1,39
 323 599 323 599 323 531 c 0,40,41
 323 386 323 386 423 303 c 128,-1,42
 523 220 523 220 717 220 c 0,43,44
 777 220 777 220 828 231.5 c 128,-1,45
 879 243 879 243 919.5 259.5 c 128,-1,46
 960 276 960 276 989 294.5 c 128,-1,47
 1018 313 1018 313 1034 326 c 1,48,49
 1032 277 1032 277 1028.5 213.5 c 128,-1,50
 1025 150 1025 150 1019 63 c 1,51,52
 993 46 993 46 954 32 c 128,-1,53
 915 18 915 18 869.5 7.5 c 128,-1,54
 824 -3 824 -3 774.5 -9 c 128,-1,55
 725 -15 725 -15 677 -15 c 0,56,57
 542 -15 542 -15 431.5 20 c 128,-1,58
 321 55 321 55 243 122.5 c 128,-1,59
 165 190 165 190 122.5 289 c 128,-1,60
 80 388 80 388 80 516 c 0,0,1
EndSplineSet
EndChar

StartChar: f
Encoding: 102 102 92
Width: 700
Flags: W
LayerCount: 2
Fore
SplineSet
140 928 m 2,0,1
 140 1047 140 1047 173 1145.5 c 128,-1,2
 206 1244 206 1244 270.5 1315 c 128,-1,3
 335 1386 335 1386 429.5 1425.5 c 128,-1,4
 524 1465 524 1465 646 1465 c 1,5,-1
 730 1202 l 1,6,-1
 728 1197 l 1,7,8
 712 1213 712 1213 680 1224 c 128,-1,9
 648 1235 648 1235 609 1235 c 0,10,11
 556 1235 556 1235 514.5 1215.5 c 128,-1,12
 473 1196 473 1196 444 1160.5 c 128,-1,13
 415 1125 415 1125 400 1075 c 128,-1,14
 385 1025 385 1025 385 963 c 2,15,-1
 385 930 l 1,16,-1
 601 930 l 1,17,18
 598 919 598 919 595.5 884 c 128,-1,19
 593 849 593 849 593 784 c 2,20,-1
 593 695 l 1,21,-1
 385 695 l 1,22,-1
 385 0 l 1,23,-1
 140 0 l 1,24,-1
 140 928 l 2,0,1
EndSplineSet
EndChar

StartChar: g
Encoding: 103 103 93
Width: 1195
Flags: W
LayerCount: 2
Fore
SplineSet
199 16 m 1,0,1
 163 52 163 52 146.5 94.5 c 128,-1,2
 130 137 130 137 130 187 c 0,3,4
 130 295 130 295 214 394 c 1,5,6
 172 445 172 445 148.5 508.5 c 128,-1,7
 125 572 125 572 125 644 c 0,8,9
 125 719 125 719 154 794 c 128,-1,10
 183 869 183 869 241 929.5 c 128,-1,11
 299 990 299 990 386.5 1027.5 c 128,-1,12
 474 1065 474 1065 590 1065 c 0,13,14
 684 1065 684 1065 759.5 1036.5 c 128,-1,15
 835 1008 835 1008 891 960 c 1,16,17
 967 981 967 981 1018.5 1014.5 c 128,-1,18
 1070 1048 1070 1048 1090 1088 c 1,19,-1
 1096 1086 l 1,20,21
 1099 1072 1099 1072 1103 1048 c 128,-1,22
 1107 1024 1107 1024 1112 995.5 c 128,-1,23
 1117 967 1117 967 1121 936.5 c 128,-1,24
 1125 906 1125 906 1129 879.5 c 128,-1,25
 1133 853 1133 853 1135 833 c 128,-1,26
 1137 813 1137 813 1137 806 c 1,27,28
 1110 787 1110 787 1080.5 772.5 c 128,-1,29
 1051 758 1051 758 1022 747 c 1,30,31
 1033 698 1033 698 1033 654 c 0,32,33
 1033 572 1033 572 999.5 497 c 128,-1,34
 966 422 966 422 904.5 364.5 c 128,-1,35
 843 307 843 307 757 273 c 128,-1,36
 671 239 671 239 566 239 c 0,37,38
 473 239 473 239 394 269 c 1,39,40
 374 237 374 237 374 210 c 0,41,42
 374 192 374 192 385.5 177 c 128,-1,43
 397 162 397 162 433.5 148 c 128,-1,44
 470 134 470 134 538 119.5 c 128,-1,45
 606 105 606 105 720 88 c 0,46,47
 949 53 949 53 1059.5 -42.5 c 128,-1,48
 1170 -138 1170 -138 1173 -283 c 0,49,50
 1175 -386 1175 -386 1134 -465.5 c 128,-1,51
 1093 -545 1093 -545 1019.5 -599.5 c 128,-1,52
 946 -654 946 -654 846.5 -683.5 c 128,-1,53
 747 -713 747 -713 632 -716 c 0,54,55
 501 -719 501 -719 393 -690 c 128,-1,56
 285 -661 285 -661 207.5 -605.5 c 128,-1,57
 130 -550 130 -550 86.5 -470.5 c 128,-1,58
 43 -391 43 -391 41 -293 c 0,59,60
 39 -190 39 -190 82 -113 c 128,-1,61
 125 -36 125 -36 199 16 c 1,0,1
585 468 m 0,62,63
 627 468 627 468 665.5 481 c 128,-1,64
 704 494 704 494 733.5 518 c 128,-1,65
 763 542 763 542 780 577 c 128,-1,66
 797 612 797 612 797 656 c 0,67,68
 797 690 797 690 781.5 723.5 c 128,-1,69
 766 757 766 757 737.5 783.5 c 128,-1,70
 709 810 709 810 668.5 826 c 128,-1,71
 628 842 628 842 579 842 c 0,72,73
 531 842 531 842 491.5 826.5 c 128,-1,74
 452 811 452 811 424.5 785 c 128,-1,75
 397 759 397 759 382 725 c 128,-1,76
 367 691 367 691 367 654 c 0,77,78
 367 612 367 612 384.5 578 c 128,-1,79
 402 544 402 544 432 519.5 c 128,-1,80
 462 495 462 495 501.5 481.5 c 128,-1,81
 541 468 541 468 585 468 c 0,62,63
285 -266 m 1,82,83
 286 -313 286 -313 310.5 -354 c 128,-1,84
 335 -395 335 -395 384.5 -425.5 c 128,-1,85
 434 -456 434 -456 509 -472.5 c 128,-1,86
 584 -489 584 -489 686 -487 c 0,87,88
 748 -486 748 -486 793.5 -470 c 128,-1,89
 839 -454 839 -454 868.5 -429.5 c 128,-1,90
 898 -405 898 -405 912 -374 c 128,-1,91
 926 -343 926 -343 925 -311 c 0,92,93
 924 -283 924 -283 908.5 -258 c 128,-1,94
 893 -233 893 -233 858.5 -212 c 128,-1,95
 824 -191 824 -191 767 -173.5 c 128,-1,96
 710 -156 710 -156 627 -143 c 0,97,98
 562 -132 562 -132 507 -120 c 128,-1,99
 452 -108 452 -108 406 -93 c 1,100,101
 338 -131 338 -131 310.5 -177 c 128,-1,102
 283 -223 283 -223 285 -266 c 1,82,83
EndSplineSet
EndChar

StartChar: h
Encoding: 104 104 94
Width: 1092
Flags: W
LayerCount: 2
Fore
SplineSet
140 1430 m 1,0,-1
 385 1430 l 1,1,-1
 385 1006 l 1,2,3
 435 1037 435 1037 484.5 1051 c 128,-1,4
 534 1065 534 1065 594 1065 c 0,5,6
 678 1065 678 1065 746.5 1036 c 128,-1,7
 815 1007 815 1007 863.5 953.5 c 128,-1,8
 912 900 912 900 938 825.5 c 128,-1,9
 964 751 964 751 964 660 c 0,10,11
 964 498 964 498 964 389.5 c 128,-1,12
 964 281 964 281 964.5 212 c 128,-1,13
 965 143 965 143 966 106 c 128,-1,14
 967 69 967 69 970 51 c 0,15,16
 974 25 974 25 982.5 15 c 128,-1,17
 991 5 991 5 997 -3 c 1,18,-1
 995 -7 l 1,19,20
 972 -5 972 -5 931 -2.5 c 128,-1,21
 890 0 890 0 848 0 c 0,22,23
 839 0 839 0 806 0 c 128,-1,24
 773 0 773 0 719 -3 c 1,25,-1
 719 576 l 2,26,27
 719 652 719 652 702 701.5 c 128,-1,28
 685 751 685 751 658.5 779.5 c 128,-1,29
 632 808 632 808 599 819 c 128,-1,30
 566 830 566 830 533 830 c 0,31,32
 493 830 493 830 456 813.5 c 128,-1,33
 419 797 419 797 385 765 c 1,34,-1
 385 112 l 2,35,36
 385 61 385 61 386 37 c 128,-1,37
 387 13 387 13 389 0 c 1,38,-1
 140 0 l 1,39,-1
 140 1430 l 1,0,-1
EndSplineSet
EndChar

StartChar: i
Encoding: 105 105 95
Width: 560
Flags: W
LayerCount: 2
Fore
SplineSet
115 1296 m 1,0,1
 152 1355 152 1355 192.5 1406.5 c 128,-1,2
 233 1458 233 1458 264 1492 c 1,3,-1
 455 1341 l 1,4,5
 435 1316 435 1316 418 1294 c 128,-1,6
 401 1272 401 1272 385 1250 c 128,-1,7
 369 1228 369 1228 352 1204.5 c 128,-1,8
 335 1181 335 1181 316 1152 c 1,9,-1
 115 1296 l 1,0,1
157 1045 m 1,10,-1
 407 1045 l 1,11,-1
 407 112 l 2,12,13
 407 61 407 61 408 37 c 128,-1,14
 409 13 409 13 411 0 c 1,15,-1
 157 0 l 1,16,-1
 157 1045 l 1,10,-1
EndSplineSet
EndChar

StartChar: j
Encoding: 106 106 96
Width: 589
Flags: W
LayerCount: 2
Fore
SplineSet
115 1296 m 1,0,1
 152 1355 152 1355 192.5 1406.5 c 128,-1,2
 233 1458 233 1458 264 1492 c 1,3,-1
 455 1341 l 1,4,5
 435 1316 435 1316 418 1294 c 128,-1,6
 401 1272 401 1272 385 1250 c 128,-1,7
 369 1228 369 1228 352 1204.5 c 128,-1,8
 335 1181 335 1181 316 1152 c 1,9,-1
 115 1296 l 1,0,1
-88 -117 m 1,10,11
 -58 -137 -58 -137 -28.5 -146 c 128,-1,12
 1 -155 1 -155 39 -155 c 0,13,14
 74 -155 74 -155 101 -143 c 128,-1,15
 128 -131 128 -131 147 -104.5 c 128,-1,16
 166 -78 166 -78 175.5 -36 c 128,-1,17
 185 6 185 6 185 65 c 2,18,-1
 185 1045 l 1,19,-1
 430 1045 l 1,20,-1
 430 137 l 2,21,22
 430 -13 430 -13 402 -113.5 c 128,-1,23
 374 -214 374 -214 321 -274.5 c 128,-1,24
 268 -335 268 -335 190.5 -360 c 128,-1,25
 113 -385 113 -385 14 -385 c 1,26,-1
 -90 -122 l 1,27,-1
 -88 -117 l 1,10,11
EndSplineSet
EndChar

StartChar: k
Encoding: 107 107 97
Width: 1071
Flags: W
LayerCount: 2
Fore
SplineSet
140 1430 m 1,0,-1
 385 1430 l 1,1,-1
 385 619 l 1,2,-1
 667 1045 l 1,3,-1
 939 1045 l 1,4,-1
 675 661 l 1,5,-1
 921 218 l 2,6,7
 942 181 942 181 960.5 150 c 128,-1,8
 979 119 979 119 997 93 c 128,-1,9
 1015 67 1015 67 1033 44 c 128,-1,10
 1051 21 1051 21 1071 0 c 1,11,-1
 923 0 l 2,12,13
 892 0 892 0 870 -1.5 c 128,-1,14
 848 -3 848 -3 832 -5 c 128,-1,15
 816 -7 816 -7 804 -9.5 c 128,-1,16
 792 -12 792 -12 782 -15 c 1,17,-1
 519 449 l 1,18,-1
 461 373 l 2,19,20
 440 346 440 346 421 323.5 c 128,-1,21
 402 301 402 301 385 283 c 1,22,-1
 385 132 l 2,23,24
 385 81 385 81 387.5 47 c 128,-1,25
 390 13 390 13 392 0 c 1,26,-1
 140 0 l 1,27,-1
 140 1430 l 1,0,-1
EndSplineSet
EndChar

StartChar: l
Encoding: 108 108 98
Width: 560
Flags: W
LayerCount: 2
Fore
SplineSet
155 1430 m 1,0,-1
 405 1430 l 1,1,-1
 405 112 l 2,2,3
 405 61 405 61 406 37 c 128,-1,4
 407 13 407 13 409 0 c 1,5,-1
 155 0 l 1,6,-1
 155 1430 l 1,0,-1
EndSplineSet
EndChar

StartChar: m
Encoding: 109 109 99
Width: 1531
Flags: W
LayerCount: 2
Fore
SplineSet
140 1045 m 1,0,-1
 385 1045 l 1,1,-1
 385 1002 l 1,2,3
 434 1034 434 1034 483 1049.5 c 128,-1,4
 532 1065 532 1065 594 1065 c 0,5,6
 669 1065 669 1065 723.5 1037.5 c 128,-1,7
 778 1010 778 1010 815 960 c 1,8,9
 878 1014 878 1014 942.5 1039.5 c 128,-1,10
 1007 1065 1007 1065 1083 1065 c 0,11,12
 1165 1065 1165 1065 1225 1036 c 128,-1,13
 1285 1007 1285 1007 1324.5 953.5 c 128,-1,14
 1364 900 1364 900 1383.5 825.5 c 128,-1,15
 1403 751 1403 751 1403 660 c 0,16,17
 1403 498 1403 498 1403 389.5 c 128,-1,18
 1403 281 1403 281 1403.5 212 c 128,-1,19
 1404 143 1404 143 1405 106 c 128,-1,20
 1406 69 1406 69 1409 51 c 0,21,22
 1413 25 1413 25 1421.5 15 c 128,-1,23
 1430 5 1430 5 1436 -3 c 1,24,-1
 1434 -7 l 1,25,26
 1411 -5 1411 -5 1370 -2.5 c 128,-1,27
 1329 0 1329 0 1287 0 c 0,28,29
 1278 0 1278 0 1245 0 c 128,-1,30
 1212 0 1212 0 1158 -3 c 1,31,-1
 1158 538 l 2,32,33
 1158 620 1158 620 1149 676 c 128,-1,34
 1140 732 1140 732 1122.5 766.5 c 128,-1,35
 1105 801 1105 801 1079.5 815.5 c 128,-1,36
 1054 830 1054 830 1022 830 c 0,37,38
 980 830 980 830 948 813.5 c 128,-1,39
 916 797 916 797 887 765 c 1,40,41
 890 740 890 740 892 714 c 128,-1,42
 894 688 894 688 894 660 c 0,43,44
 894 538 894 538 894.5 448.5 c 128,-1,45
 895 359 895 359 895.5 294.5 c 128,-1,46
 896 230 896 230 896.5 185.5 c 128,-1,47
 897 141 897 141 898.5 108.5 c 128,-1,48
 900 76 900 76 901.5 51 c 128,-1,49
 903 26 903 26 905 0 c 1,50,-1
 778 0 l 2,51,52
 769 0 769 0 736 0 c 128,-1,53
 703 0 703 0 649 -3 c 1,54,-1
 649 539 l 2,55,56
 649 620 649 620 643 676 c 128,-1,57
 637 732 637 732 623 766 c 128,-1,58
 609 800 609 800 587 815 c 128,-1,59
 565 830 565 830 533 830 c 0,60,61
 487 830 487 830 452 813 c 128,-1,62
 417 796 417 796 385 764 c 1,63,-1
 385 289 l 2,64,65
 385 218 385 218 385.5 170 c 128,-1,66
 386 122 386 122 387 89.5 c 128,-1,67
 388 57 388 57 389.5 36.5 c 128,-1,68
 391 16 391 16 393 0 c 1,69,-1
 140 0 l 1,70,-1
 140 1045 l 1,0,-1
EndSplineSet
EndChar

StartChar: n
Encoding: 110 110 100
Width: 1092
Flags: W
LayerCount: 2
Fore
SplineSet
140 1045 m 1,0,-1
 385 1045 l 1,1,-1
 385 999 l 1,2,3
 491 1065 491 1065 607 1065 c 0,4,5
 689 1065 689 1065 755.5 1036 c 128,-1,6
 822 1007 822 1007 869 953.5 c 128,-1,7
 916 900 916 900 941.5 825.5 c 128,-1,8
 967 751 967 751 967 660 c 0,9,10
 967 498 967 498 967 389.5 c 128,-1,11
 967 281 967 281 967.5 212 c 128,-1,12
 968 143 968 143 969 106 c 128,-1,13
 970 69 970 69 973 51 c 0,14,15
 977 25 977 25 985.5 15 c 128,-1,16
 994 5 994 5 1000 -3 c 1,17,-1
 998 -7 l 1,18,19
 975 -5 975 -5 934 -2.5 c 128,-1,20
 893 0 893 0 851 0 c 0,21,22
 842 0 842 0 809 0 c 128,-1,23
 776 0 776 0 722 -3 c 1,24,-1
 722 542 l 2,25,26
 722 618 722 618 709.5 673.5 c 128,-1,27
 697 729 697 729 673.5 765 c 128,-1,28
 650 801 650 801 617.5 818 c 128,-1,29
 585 835 585 835 546 835 c 0,30,31
 459 835 459 835 385 763 c 1,32,-1
 385 128 l 2,33,34
 385 83 385 83 386.5 54 c 128,-1,35
 388 25 388 25 393 0 c 1,36,-1
 140 0 l 1,37,-1
 140 1045 l 1,0,-1
EndSplineSet
EndChar

StartChar: o
Encoding: 111 111 101
Width: 1261
Flags: W
LayerCount: 2
Fore
SplineSet
80 512 m 0,0,1
 80 629 80 629 119 730 c 128,-1,2
 158 831 158 831 231.5 905.5 c 128,-1,3
 305 980 305 980 409.5 1022.5 c 128,-1,4
 514 1065 514 1065 645 1065 c 0,5,6
 769 1065 769 1065 868.5 1024.5 c 128,-1,7
 968 984 968 984 1037.5 912.5 c 128,-1,8
 1107 841 1107 841 1144 743.5 c 128,-1,9
 1181 646 1181 646 1181 533 c 0,10,11
 1181 421 1181 421 1143 321.5 c 128,-1,12
 1105 222 1105 222 1033.5 147 c 128,-1,13
 962 72 962 72 860.5 28.5 c 128,-1,14
 759 -15 759 -15 632 -15 c 0,15,16
 532 -15 532 -15 452 6.5 c 128,-1,17
 372 28 372 28 310.5 65.5 c 128,-1,18
 249 103 249 103 205.5 154 c 128,-1,19
 162 205 162 205 134 263.5 c 128,-1,20
 106 322 106 322 93 385.5 c 128,-1,21
 80 449 80 449 80 512 c 0,0,1
324 529 m 0,22,23
 324 451 324 451 348 392.5 c 128,-1,24
 372 334 372 334 414.5 295.5 c 128,-1,25
 457 257 457 257 516 238 c 128,-1,26
 575 219 575 219 645 219 c 0,27,28
 710 219 710 219 763.5 241 c 128,-1,29
 817 263 817 263 855.5 303 c 128,-1,30
 894 343 894 343 915 399 c 128,-1,31
 936 455 936 455 936 522 c 256,32,33
 936 589 936 589 913 646.5 c 128,-1,34
 890 704 890 704 848.5 746 c 128,-1,35
 807 788 807 788 751 811.5 c 128,-1,36
 695 835 695 835 629 835 c 0,37,38
 557 835 557 835 500 808.5 c 128,-1,39
 443 782 443 782 404 739 c 128,-1,40
 365 696 365 696 344.5 641 c 128,-1,41
 324 586 324 586 324 529 c 0,22,23
EndSplineSet
EndChar

StartChar: p
Encoding: 112 112 102
Width: 1183
Flags: W
LayerCount: 2
Fore
SplineSet
385 -273 m 2,0,1
 385 -324 385 -324 386 -348 c 128,-1,2
 387 -372 387 -372 389 -385 c 1,3,-1
 140 -385 l 1,4,-1
 140 1045 l 1,5,-1
 385 1045 l 1,6,-1
 385 1005 l 1,7,8
 443 1036 443 1036 503 1050.5 c 128,-1,9
 563 1065 563 1065 624 1065 c 0,10,11
 718 1065 718 1065 804.5 1033 c 128,-1,12
 891 1001 891 1001 957.5 935.5 c 128,-1,13
 1024 870 1024 870 1063.5 770.5 c 128,-1,14
 1103 671 1103 671 1103 536 c 0,15,16
 1103 446 1103 446 1080 369.5 c 128,-1,17
 1057 293 1057 293 1018 231.5 c 128,-1,18
 979 170 979 170 928 123.5 c 128,-1,19
 877 77 877 77 820 45.5 c 128,-1,20
 763 14 763 14 704.5 -2 c 128,-1,21
 646 -18 646 -18 593 -18 c 0,22,23
 520 -18 520 -18 471.5 -8 c 128,-1,24
 423 2 423 2 385 19 c 1,25,-1
 385 -273 l 2,0,1
385 293 m 1,26,27
 427 255 427 255 475.5 237.5 c 128,-1,28
 524 220 524 220 572 220 c 0,29,30
 633 220 633 220 685.5 242.5 c 128,-1,31
 738 265 738 265 776 307.5 c 128,-1,32
 814 350 814 350 836 411.5 c 128,-1,33
 858 473 858 473 858 552 c 0,34,35
 858 611 858 611 844 655 c 128,-1,36
 830 699 830 699 807.5 730.5 c 128,-1,37
 785 762 785 762 757 782 c 128,-1,38
 729 802 729 802 700 814 c 128,-1,39
 671 826 671 826 644 830.5 c 128,-1,40
 617 835 617 835 598 835 c 0,41,42
 541 835 541 835 483 811.5 c 128,-1,43
 425 788 425 788 385 746 c 1,44,-1
 385 293 l 1,26,27
EndSplineSet
EndChar

StartChar: q
Encoding: 113 113 103
Width: 1211
Flags: W
LayerCount: 2
Fore
SplineSet
80 486 m 0,0,1
 80 607 80 607 120 713 c 128,-1,2
 160 819 160 819 229.5 897 c 128,-1,3
 299 975 299 975 391.5 1020 c 128,-1,4
 484 1065 484 1065 589 1065 c 0,5,6
 664 1065 664 1065 719.5 1050 c 128,-1,7
 775 1035 775 1035 826 1004 c 1,8,-1
 826 1045 l 1,9,-1
 1071 1045 l 1,10,-1
 1071 -385 l 1,11,-1
 822 -385 l 1,12,13
 824 -372 824 -372 825 -348 c 128,-1,14
 826 -324 826 -324 826 -273 c 2,15,-1
 826 70 l 1,16,17
 768 29 768 29 700.5 7 c 128,-1,18
 633 -15 633 -15 551 -15 c 0,19,20
 450 -15 450 -15 364 19 c 128,-1,21
 278 53 278 53 215 117.5 c 128,-1,22
 152 182 152 182 116 275 c 128,-1,23
 80 368 80 368 80 486 c 0,0,1
325 511 m 0,24,25
 325 449 325 449 341 395.5 c 128,-1,26
 357 342 357 342 390 303 c 128,-1,27
 423 264 423 264 473 242 c 128,-1,28
 523 220 523 220 591 220 c 0,29,30
 665 220 665 220 723 250.5 c 128,-1,31
 781 281 781 281 826 341 c 1,32,-1
 826 736 l 1,33,34
 805 759 805 759 778 777.5 c 128,-1,35
 751 796 751 796 720 808.5 c 128,-1,36
 689 821 689 821 657.5 828 c 128,-1,37
 626 835 626 835 596 835 c 0,38,39
 537 835 537 835 487.5 810 c 128,-1,40
 438 785 438 785 402 741.5 c 128,-1,41
 366 698 366 698 345.5 639 c 128,-1,42
 325 580 325 580 325 511 c 0,24,25
EndSplineSet
EndChar

StartChar: r
Encoding: 114 114 104
Width: 749
Flags: W
LayerCount: 2
Fore
SplineSet
140 1045 m 1,0,-1
 385 1045 l 1,1,-1
 385 989 l 1,2,3
 422 1021 422 1021 469 1043 c 128,-1,4
 516 1065 516 1065 567 1065 c 0,5,6
 607 1065 607 1065 645 1059 c 128,-1,7
 683 1053 683 1053 709 1042 c 1,8,-1
 691 773 l 1,9,-1
 687 770 l 1,10,11
 670 803 670 803 630 817.5 c 128,-1,12
 590 832 590 832 544 832 c 0,13,14
 502 832 502 832 458.5 808 c 128,-1,15
 415 784 415 784 385 739 c 1,16,-1
 385 112 l 2,17,18
 385 61 385 61 386 37 c 128,-1,19
 387 13 387 13 389 0 c 1,20,-1
 140 0 l 1,21,-1
 140 1045 l 1,0,-1
EndSplineSet
EndChar

StartChar: s
Encoding: 115 115 105
Width: 1133
Flags: W
LayerCount: 2
Fore
SplineSet
100 88 m 1,0,1
 102 118 102 118 106.5 161.5 c 128,-1,2
 111 205 111 205 115 246.5 c 128,-1,3
 119 288 119 288 122.5 320 c 128,-1,4
 126 352 126 352 127 358 c 0,5,6
 130 370 130 370 130 371.5 c 128,-1,7
 130 373 130 373 136 366 c 0,8,9
 160 338 160 338 201.5 311.5 c 128,-1,10
 243 285 243 285 296.5 264.5 c 128,-1,11
 350 244 350 244 413.5 231.5 c 128,-1,12
 477 219 477 219 546 219 c 0,13,14
 601 219 601 219 644 227 c 128,-1,15
 687 235 687 235 717 248.5 c 128,-1,16
 747 262 747 262 763 279.5 c 128,-1,17
 779 297 779 297 779 317 c 0,18,19
 779 332 779 332 770.5 345.5 c 128,-1,20
 762 359 762 359 736.5 371 c 128,-1,21
 711 383 711 383 665.5 393.5 c 128,-1,22
 620 404 620 404 545 414 c 0,23,24
 426 429 426 429 345 456.5 c 128,-1,25
 264 484 264 484 214 522 c 128,-1,26
 164 560 164 560 142.5 608 c 128,-1,27
 121 656 121 656 121 712 c 0,28,29
 121 783 121 783 156.5 847 c 128,-1,30
 192 911 192 911 257 959.5 c 128,-1,31
 322 1008 322 1008 413 1036.5 c 128,-1,32
 504 1065 504 1065 615 1065 c 256,33,34
 726 1065 726 1065 822.5 1032.5 c 128,-1,35
 919 1000 919 1000 986 947 c 1,36,37
 972 894 972 894 954.5 838.5 c 128,-1,38
 937 783 937 783 914 722 c 0,39,40
 912 714 912 714 910 714 c 256,41,42
 908 714 908 714 907 717 c 0,43,44
 905 722 905 722 902 726 c 128,-1,45
 899 730 899 730 895 735 c 0,46,47
 874 758 874 758 842 776.5 c 128,-1,48
 810 795 810 795 770.5 808 c 128,-1,49
 731 821 731 821 687 828 c 128,-1,50
 643 835 643 835 599 835 c 0,51,52
 542 835 542 835 500.5 826.5 c 128,-1,53
 459 818 459 818 432.5 805 c 128,-1,54
 406 792 406 792 393.5 776 c 128,-1,55
 381 760 381 760 381 746 c 0,56,57
 381 731 381 731 394.5 716 c 128,-1,58
 408 701 408 701 440.5 686.5 c 128,-1,59
 473 672 473 672 528 658.5 c 128,-1,60
 583 645 583 645 667 634 c 0,61,62
 768 620 768 620 840 595.5 c 128,-1,63
 912 571 912 571 958.5 535.5 c 128,-1,64
 1005 500 1005 500 1026.5 453 c 128,-1,65
 1048 406 1048 406 1048 347 c 0,66,67
 1048 275 1048 275 1009.5 209.5 c 128,-1,68
 971 144 971 144 903.5 94 c 128,-1,69
 836 44 836 44 742.5 14.5 c 128,-1,70
 649 -15 649 -15 540 -15 c 0,71,72
 393 -15 393 -15 281 12.5 c 128,-1,73
 169 40 169 40 100 88 c 1,0,1
EndSplineSet
EndChar

StartChar: t
Encoding: 116 116 106
Width: 838
Flags: W
LayerCount: 2
Fore
SplineSet
227 815 m 1,0,-1
 56 815 l 1,1,2
 55 879 55 879 55 930 c 0,3,4
 55 951 55 951 55 972 c 128,-1,5
 55 993 55 993 55 1009 c 128,-1,6
 55 1025 55 1025 55.5 1035 c 128,-1,7
 56 1045 56 1045 56 1045 c 1,8,-1
 227 1045 l 1,9,-1
 227 1330 l 1,10,-1
 472 1330 l 1,11,-1
 472 1045 l 1,12,-1
 709 1045 l 1,13,-1
 709 815 l 1,14,-1
 472 815 l 1,15,-1
 472 427 l 2,16,17
 472 369 472 369 483.5 329.5 c 128,-1,18
 495 290 495 290 516 265.5 c 128,-1,19
 537 241 537 241 567 230.5 c 128,-1,20
 597 220 597 220 634 220 c 0,21,22
 679 220 679 220 720 242 c 128,-1,23
 761 264 761 264 790 305 c 1,24,-1
 798 305 l 1,25,-1
 733 21 l 1,26,27
 719 13 719 13 699 6.5 c 128,-1,28
 679 0 679 0 657 -4.5 c 128,-1,29
 635 -9 635 -9 613 -12 c 128,-1,30
 591 -15 591 -15 574 -15 c 0,31,32
 497 -15 497 -15 433 11 c 128,-1,33
 369 37 369 37 323 88 c 128,-1,34
 277 139 277 139 252 214.5 c 128,-1,35
 227 290 227 290 227 389 c 2,36,-1
 227 815 l 1,0,-1
EndSplineSet
EndChar

StartChar: u
Encoding: 117 117 107
Width: 1105
Flags: W
LayerCount: 2
Fore
SplineSet
141 385 m 0,0,1
 141 547 141 547 141 655.5 c 128,-1,2
 141 764 141 764 140.5 833 c 128,-1,3
 140 902 140 902 139 939 c 128,-1,4
 138 976 138 976 135 994 c 0,5,6
 132 1013 132 1013 128 1027 c 128,-1,7
 124 1041 124 1041 120 1049 c 1,8,9
 143 1047 143 1047 179 1046 c 128,-1,10
 215 1045 215 1045 257 1045 c 0,11,12
 266 1045 266 1045 299 1045 c 128,-1,13
 332 1045 332 1045 386 1048 c 1,14,-1
 386 469 l 2,15,16
 386 392 386 392 400 344 c 128,-1,17
 414 296 414 296 439 268 c 128,-1,18
 464 240 464 240 498 230 c 128,-1,19
 532 220 532 220 572 220 c 0,20,21
 646 220 646 220 712 278 c 1,22,-1
 712 1045 l 1,23,-1
 957 1045 l 1,24,-1
 957 128 l 2,25,26
 957 83 957 83 958.5 54 c 128,-1,27
 960 25 960 25 965 0 c 1,28,-1
 712 0 l 1,29,-1
 712 51 l 1,30,31
 661 16 661 16 612 0.5 c 128,-1,32
 563 -15 563 -15 501 -15 c 0,33,34
 419 -15 419 -15 352.5 13.5 c 128,-1,35
 286 42 286 42 239 94 c 128,-1,36
 192 146 192 146 166.5 220 c 128,-1,37
 141 294 141 294 141 385 c 0,0,1
EndSplineSet
EndChar

StartChar: v
Encoding: 118 118 108
Width: 1060
Flags: W
LayerCount: 2
Fore
SplineSet
0 1045 m 1,0,-1
 286 1045 l 1,1,-1
 553 384 l 1,2,-1
 783 1045 l 1,3,-1
 1060 1045 l 1,4,-1
 651 0 l 1,5,-1
 445 0 l 1,6,-1
 0 1045 l 1,0,-1
EndSplineSet
EndChar

StartChar: w
Encoding: 119 119 109
Width: 1424
Flags: W
LayerCount: 2
Fore
SplineSet
0 1045 m 1,0,-1
 284 1045 l 1,1,-1
 451 387 l 1,2,-1
 617 1045 l 1,3,-1
 814 1045 l 1,4,-1
 973 389 l 1,5,-1
 1140 1045 l 1,6,-1
 1424 1045 l 1,7,-1
 1105 0 l 1,8,-1
 851 0 l 1,9,-1
 712 522 l 1,10,-1
 573 0 l 1,11,-1
 319 0 l 1,12,-1
 0 1045 l 1,0,-1
EndSplineSet
EndChar

StartChar: x
Encoding: 120 120 110
Width: 1013
Flags: W
LayerCount: 2
Fore
SplineSet
370 530 m 1,0,-1
 85 1045 l 1,1,-1
 375 1045 l 1,2,-1
 500 787 l 1,3,-1
 626 1045 l 1,4,-1
 896 1045 l 1,5,6
 896 1045 896 1045 880.5 1016.5 c 128,-1,7
 865 988 865 988 841.5 942.5 c 128,-1,8
 818 897 818 897 788.5 841 c 128,-1,9
 759 785 759 785 730.5 730 c 128,-1,10
 702 675 702 675 677 627.5 c 128,-1,11
 652 580 652 580 637 551 c 1,12,-1
 948 0 l 1,13,-1
 660 0 l 1,14,-1
 512 288 l 1,15,-1
 379 0 l 1,16,-1
 89 0 l 1,17,-1
 370 530 l 1,0,-1
EndSplineSet
EndChar

StartChar: y
Encoding: 121 121 111
Width: 972
Flags: W
LayerCount: 2
Fore
SplineSet
357 207 m 1,0,-1
 17 1045 l 1,1,-1
 293 1045 l 1,2,-1
 489 492 l 1,3,-1
 685 1045 l 1,4,-1
 959 1045 l 1,5,6
 934 1009 934 1009 907.5 946.5 c 128,-1,7
 881 884 881 884 850 805 c 0,8,9
 763 581 763 581 691.5 406.5 c 128,-1,10
 620 232 620 232 562.5 100.5 c 128,-1,11
 505 -31 505 -31 459.5 -124.5 c 128,-1,12
 414 -218 414 -218 377.5 -281 c 128,-1,13
 341 -344 341 -344 313 -381.5 c 128,-1,14
 285 -419 285 -419 262 -438 c 1,15,-1
 20 -348 l 1,16,-1
 25 -342 l 1,17,18
 50 -327 50 -327 78 -299.5 c 128,-1,19
 106 -272 106 -272 141 -220.5 c 128,-1,20
 176 -169 176 -169 219 -89 c 128,-1,21
 262 -9 262 -9 318 111 c 1,22,-1
 357 207 l 1,0,-1
EndSplineSet
EndChar

StartChar: z
Encoding: 122 122 112
Width: 977
Flags: W
LayerCount: 2
Fore
SplineSet
10 -15 m 1,0,1
 18 -4 18 -4 40 30.5 c 128,-1,2
 62 65 62 65 93 114.5 c 128,-1,3
 124 164 124 164 162 226 c 128,-1,4
 200 288 200 288 240.5 355 c 128,-1,5
 281 422 281 422 323 491 c 128,-1,6
 365 560 365 560 403.5 623.5 c 128,-1,7
 442 687 442 687 475 741.5 c 128,-1,8
 508 796 508 796 531 835 c 1,9,-1
 315 835 l 2,10,11
 295 835 295 835 270.5 833.5 c 128,-1,12
 246 832 246 832 220.5 829 c 128,-1,13
 195 826 195 826 170 821 c 128,-1,14
 145 816 145 816 125 809 c 1,15,16
 127 848 127 848 128 886.5 c 128,-1,17
 129 925 129 925 129 957 c 0,18,19
 129 977 129 977 129 989 c 128,-1,20
 129 1001 129 1001 128.5 1010 c 128,-1,21
 128 1019 128 1019 127.5 1026.5 c 128,-1,22
 127 1034 127 1034 127 1045 c 1,23,-1
 942 1045 l 1,24,-1
 436 220 l 1,25,-1
 805 220 l 2,26,27
 817 220 817 220 833.5 221 c 128,-1,28
 850 222 850 222 866.5 225 c 128,-1,29
 883 228 883 228 898.5 232.5 c 128,-1,30
 914 237 914 237 924 245 c 1,31,-1
 838 -15 l 1,32,33
 794 -12 794 -12 740.5 -9.5 c 128,-1,34
 687 -7 687 -7 632.5 -4.5 c 128,-1,35
 578 -2 578 -2 528 -1 c 128,-1,36
 478 0 478 0 441 0 c 256,37,38
 404 0 404 0 352 -1 c 128,-1,39
 300 -2 300 -2 241.5 -3.5 c 128,-1,40
 183 -5 183 -5 122.5 -8 c 128,-1,41
 62 -11 62 -11 10 -15 c 1,0,1
EndSplineSet
EndChar

StartChar: braceleft
Encoding: 123 123 113
Width: 885
Flags: W
LayerCount: 2
Fore
SplineSet
205 160 m 0,0,1
 205 181 205 181 208 204.5 c 128,-1,2
 211 228 211 228 220 253.5 c 128,-1,3
 229 279 229 279 246 306.5 c 128,-1,4
 263 334 263 334 291 363 c 1,5,6
 318 424 318 424 332.5 461.5 c 128,-1,7
 347 499 347 499 347 534 c 0,8,9
 347 615 347 615 160 648 c 1,10,-1
 160 703 l 1,11,12
 200 710 200 710 234 718 c 128,-1,13
 268 726 268 726 293 737 c 128,-1,14
 318 748 318 748 332.5 762 c 128,-1,15
 347 776 347 776 347 796 c 0,16,17
 347 812 347 812 344.5 827.5 c 128,-1,18
 342 843 342 843 335.5 861 c 128,-1,19
 329 879 329 879 318.5 902 c 128,-1,20
 308 925 308 925 292 957 c 1,21,22
 243 1004 243 1004 224 1059.5 c 128,-1,23
 205 1115 205 1115 205 1166 c 0,24,25
 205 1212 205 1212 225 1261.5 c 128,-1,26
 245 1311 245 1311 289 1352 c 128,-1,27
 333 1393 333 1393 402 1419 c 128,-1,28
 471 1445 471 1445 569 1445 c 0,29,30
 598 1445 598 1445 635.5 1441.5 c 128,-1,31
 673 1438 673 1438 705 1433 c 1,32,-1
 695 1230 l 1,33,-1
 691 1228 l 1,34,35
 663 1235 663 1235 642.5 1236.5 c 128,-1,36
 622 1238 622 1238 603 1240 c 0,37,38
 572 1243 572 1243 546 1236.5 c 128,-1,39
 520 1230 520 1230 501 1217.5 c 128,-1,40
 482 1205 482 1205 471.5 1187 c 128,-1,41
 461 1169 461 1169 461 1149 c 0,42,43
 461 1114 461 1114 484.5 1071.5 c 128,-1,44
 508 1029 508 1029 561 978 c 1,45,46
 588 921 588 921 603.5 877 c 128,-1,47
 619 833 619 833 619 793 c 0,48,49
 619 772 619 772 606 753.5 c 128,-1,50
 593 735 593 735 571.5 718.5 c 128,-1,51
 550 702 550 702 521 688.5 c 128,-1,52
 492 675 492 675 460 665 c 1,53,54
 494 654 494 654 523 641 c 128,-1,55
 552 628 552 628 573.5 613 c 128,-1,56
 595 598 595 598 607 581 c 128,-1,57
 619 564 619 564 619 546 c 0,58,59
 619 511 619 511 605.5 468.5 c 128,-1,60
 592 426 592 426 569 375 c 1,61,62
 540 343 540 343 519.5 318.5 c 128,-1,63
 499 294 499 294 486 273.5 c 128,-1,64
 473 253 473 253 467 236 c 128,-1,65
 461 219 461 219 461 203 c 0,66,67
 461 182 461 182 472 161.5 c 128,-1,68
 483 141 483 141 503.5 126 c 128,-1,69
 524 111 524 111 551.5 103.5 c 128,-1,70
 579 96 579 96 612 100 c 0,71,72
 632 102 632 102 650.5 103.5 c 128,-1,73
 669 105 669 105 691 112 c 1,74,-1
 695 110 l 1,75,-1
 705 -93 l 1,76,77
 682 -97 682 -97 664 -99 c 128,-1,78
 646 -101 646 -101 630.5 -102.5 c 128,-1,79
 615 -104 615 -104 600 -104.5 c 128,-1,80
 585 -105 585 -105 569 -105 c 0,81,82
 474 -105 474 -105 405 -84 c 128,-1,83
 336 -63 336 -63 291.5 -27 c 128,-1,84
 247 9 247 9 226 57 c 128,-1,85
 205 105 205 105 205 160 c 0,0,1
EndSplineSet
EndChar

StartChar: bar
Encoding: 124 124 114
Width: 885
Flags: W
LayerCount: 2
Fore
SplineSet
315 1251 m 2,0,1
 315 1283 315 1283 315 1308 c 128,-1,2
 315 1333 315 1333 314 1353.5 c 128,-1,3
 313 1374 313 1374 312 1392 c 128,-1,4
 311 1410 311 1410 310 1430 c 1,5,-1
 575 1430 l 1,6,7
 573 1390 573 1390 571.5 1345.5 c 128,-1,8
 570 1301 570 1301 570 1247 c 2,9,-1
 570 -138 l 2,10,11
 570 -189 570 -189 571 -213 c 128,-1,12
 572 -237 572 -237 574 -250 c 1,13,-1
 311 -250 l 1,14,15
 312 -234 312 -234 313 -211.5 c 128,-1,16
 314 -189 314 -189 314.5 -162 c 128,-1,17
 315 -135 315 -135 315 -105.5 c 128,-1,18
 315 -76 315 -76 315 -45 c 2,19,-1
 315 1251 l 2,0,1
EndSplineSet
EndChar

StartChar: braceright
Encoding: 125 125 115
Width: 885
Flags: W
LayerCount: 2
Fore
SplineSet
190 110 m 1,0,-1
 194 112 l 1,1,2
 216 105 216 105 234.5 103.5 c 128,-1,3
 253 102 253 102 273 100 c 0,4,5
 306 96 306 96 333.5 103.5 c 128,-1,6
 361 111 361 111 381.5 126 c 128,-1,7
 402 141 402 141 413 161.5 c 128,-1,8
 424 182 424 182 424 203 c 0,9,10
 424 234 424 234 399 273 c 128,-1,11
 374 312 374 312 316 375 c 1,12,13
 293 426 293 426 279.5 468.5 c 128,-1,14
 266 511 266 511 266 546 c 0,15,16
 266 564 266 564 278 581 c 128,-1,17
 290 598 290 598 311.5 613 c 128,-1,18
 333 628 333 628 362 641 c 128,-1,19
 391 654 391 654 425 665 c 1,20,21
 393 675 393 675 364 688.5 c 128,-1,22
 335 702 335 702 313.5 718.5 c 128,-1,23
 292 735 292 735 279 753.5 c 128,-1,24
 266 772 266 772 266 793 c 0,25,26
 266 833 266 833 281.5 877 c 128,-1,27
 297 921 297 921 324 978 c 1,28,29
 377 1029 377 1029 400.5 1071.5 c 128,-1,30
 424 1114 424 1114 424 1149 c 0,31,32
 424 1169 424 1169 413.5 1187 c 128,-1,33
 403 1205 403 1205 384 1217.5 c 128,-1,34
 365 1230 365 1230 339 1236.5 c 128,-1,35
 313 1243 313 1243 282 1240 c 0,36,37
 263 1238 263 1238 242.5 1236.5 c 128,-1,38
 222 1235 222 1235 194 1228 c 1,39,-1
 190 1230 l 1,40,-1
 180 1433 l 1,41,42
 212 1438 212 1438 249.5 1441.5 c 128,-1,43
 287 1445 287 1445 316 1445 c 0,44,45
 414 1445 414 1445 483 1419 c 128,-1,46
 552 1393 552 1393 596 1352 c 128,-1,47
 640 1311 640 1311 660 1261.5 c 128,-1,48
 680 1212 680 1212 680 1166 c 0,49,50
 680 1115 680 1115 661 1059.5 c 128,-1,51
 642 1004 642 1004 593 957 c 1,52,53
 577 925 577 925 566.5 902 c 128,-1,54
 556 879 556 879 549.5 861 c 128,-1,55
 543 843 543 843 540.5 827.5 c 128,-1,56
 538 812 538 812 538 796 c 0,57,58
 538 776 538 776 552.5 762 c 128,-1,59
 567 748 567 748 592 737 c 128,-1,60
 617 726 617 726 651 718 c 128,-1,61
 685 710 685 710 725 703 c 1,62,-1
 725 648 l 1,63,64
 538 615 538 615 538 534 c 0,65,66
 538 499 538 499 552.5 461.5 c 128,-1,67
 567 424 567 424 594 363 c 1,68,69
 622 334 622 334 639 306.5 c 128,-1,70
 656 279 656 279 665 253.5 c 128,-1,71
 674 228 674 228 677 204.5 c 128,-1,72
 680 181 680 181 680 160 c 0,73,74
 680 105 680 105 659 57 c 128,-1,75
 638 9 638 9 593.5 -27 c 128,-1,76
 549 -63 549 -63 480 -84 c 128,-1,77
 411 -105 411 -105 316 -105 c 0,78,79
 299 -105 299 -105 284.5 -104.5 c 128,-1,80
 270 -104 270 -104 254.5 -102.5 c 128,-1,81
 239 -101 239 -101 221 -99 c 128,-1,82
 203 -97 203 -97 180 -93 c 1,83,-1
 190 110 l 1,0,-1
EndSplineSet
EndChar

StartChar: asciitilde
Encoding: 126 126 116
Width: 1408
Flags: W
LayerCount: 2
Fore
SplineSet
88 396 m 1,0,-1
 80 672 l 1,1,2
 116 714 116 714 157.5 741.5 c 128,-1,3
 199 769 199 769 243.5 785 c 128,-1,4
 288 801 288 801 334.5 807.5 c 128,-1,5
 381 814 381 814 427 814 c 0,6,7
 480 814 480 814 533.5 794 c 128,-1,8
 587 774 587 774 640.5 744 c 128,-1,9
 694 714 694 714 746 678.5 c 128,-1,10
 798 643 798 643 848.5 613 c 128,-1,11
 899 583 899 583 947 563 c 128,-1,12
 995 543 995 543 1039 543 c 0,13,14
 1139 543 1139 543 1211.5 590.5 c 128,-1,15
 1284 638 1284 638 1322 748 c 1,16,-1
 1328 745 l 1,17,-1
 1347 472 l 1,18,19
 1323 428 1323 428 1284.5 397.5 c 128,-1,20
 1246 367 1246 367 1200 348 c 128,-1,21
 1154 329 1154 329 1104 321 c 128,-1,22
 1054 313 1054 313 1009 313 c 0,23,24
 947 313 947 313 892.5 332.5 c 128,-1,25
 838 352 838 352 788 381.5 c 128,-1,26
 738 411 738 411 690.5 445.5 c 128,-1,27
 643 480 643 480 596 509.5 c 128,-1,28
 549 539 549 539 500 558.5 c 128,-1,29
 451 578 451 578 399 578 c 0,30,31
 349 578 349 578 307 569 c 128,-1,32
 265 560 265 560 228 538.5 c 128,-1,33
 191 517 191 517 158 481.5 c 128,-1,34
 125 446 125 446 94 393 c 1,35,-1
 88 396 l 1,0,-1
EndSplineSet
EndChar

StartChar: exclamdown
Encoding: 161 161 118
Width: 530
Flags: W
LayerCount: 2
Fore
SplineSet
134 1090 m 1,0,1
 136 1109 136 1109 138 1142 c 128,-1,2
 140 1175 140 1175 140 1204 c 0,3,4
 140 1236 140 1236 138 1267.5 c 128,-1,5
 136 1299 136 1299 132 1330 c 1,6,-1
 397 1330 l 1,7,8
 394 1304 394 1304 393.5 1276 c 128,-1,9
 393 1248 393 1248 393 1216 c 0,10,11
 393 1188 393 1188 394 1151.5 c 128,-1,12
 395 1115 395 1115 397 1090 c 1,13,-1
 134 1090 l 1,0,1
136 950 m 1,14,-1
 216 950 l 2,15,16
 276 950 276 950 325 952 c 128,-1,17
 374 954 374 954 391 956 c 1,18,-1
 395 -32 l 1,19,20
 379 -28 379 -28 339.5 -26 c 128,-1,21
 300 -24 300 -24 247 -24 c 0,22,23
 235 -24 235 -24 225.5 -24 c 128,-1,24
 216 -24 216 -24 204 -24.5 c 128,-1,25
 192 -25 192 -25 175.5 -26 c 128,-1,26
 159 -27 159 -27 134 -28 c 1,27,-1
 136 950 l 1,14,-1
EndSplineSet
EndChar

StartChar: cent
Encoding: 162 162 119
Width: 1257
Flags: W
LayerCount: 2
Fore
SplineSet
129 496 m 0,0,1
 129 605 129 605 165.5 698.5 c 128,-1,2
 202 792 202 792 268 865 c 128,-1,3
 334 938 334 938 426.5 986.5 c 128,-1,4
 519 1035 519 1035 630 1054 c 1,5,-1
 630 1121 l 2,6,7
 630 1177 630 1177 627.5 1209 c 128,-1,8
 625 1241 625 1241 621 1256 c 1,9,-1
 890 1256 l 1,10,11
 888 1227 888 1227 887 1195.5 c 128,-1,12
 886 1164 886 1164 886 1132 c 2,13,-1
 886 1060 l 1,14,15
 963 1054 963 1054 1031 1041.5 c 128,-1,16
 1099 1029 1099 1029 1150 1009 c 1,17,-1
 1122 737 l 1,18,-1
 1113 728 l 1,19,20
 1086 751 1086 751 1044 769 c 128,-1,21
 1002 787 1002 787 953 799.5 c 128,-1,22
 904 812 904 812 851.5 818.5 c 128,-1,23
 799 825 799 825 753 825 c 0,24,25
 661 825 661 825 593 801.5 c 128,-1,26
 525 778 525 778 480 738 c 128,-1,27
 435 698 435 698 413 644.5 c 128,-1,28
 391 591 391 591 391 532 c 0,29,30
 391 466 391 466 416.5 408 c 128,-1,31
 442 350 442 350 491 307.5 c 128,-1,32
 540 265 540 265 610 240 c 128,-1,33
 680 215 680 215 769 215 c 0,34,35
 832 215 832 215 893.5 228.5 c 128,-1,36
 955 242 955 242 1007.5 267.5 c 128,-1,37
 1060 293 1060 293 1099 328 c 128,-1,38
 1138 363 1138 363 1158 407 c 1,39,-1
 1165 401 l 1,40,-1
 1151 106 l 1,41,42
 1106 64 1106 64 1037.5 36.5 c 128,-1,43
 969 9 969 9 893 -5 c 1,44,-1
 893 -71 l 1,45,46
 894 -103 894 -103 894.5 -134.5 c 128,-1,47
 895 -166 895 -166 897 -195 c 1,48,-1
 628 -195 l 1,49,50
 632 -180 632 -180 634.5 -148 c 128,-1,51
 637 -116 637 -116 637 -60 c 2,52,-1
 637 -23 l 1,53,54
 524 -14 524 -14 430.5 29 c 128,-1,55
 337 72 337 72 270 141 c 128,-1,56
 203 210 203 210 166 300.5 c 128,-1,57
 129 391 129 391 129 496 c 0,0,1
EndSplineSet
EndChar

StartChar: sterling
Encoding: 163 163 120
Width: 1265
Flags: W
LayerCount: 2
Fore
SplineSet
140 228 m 1,0,1
 152 235 152 235 171 241.5 c 128,-1,2
 190 248 190 248 212.5 253.5 c 128,-1,3
 235 259 235 259 260.5 263.5 c 128,-1,4
 286 268 286 268 311 271 c 1,5,6
 331 316 331 316 347 372.5 c 128,-1,7
 363 429 363 429 363 482 c 0,8,9
 363 508 363 508 362 531.5 c 128,-1,10
 361 555 361 555 359 576 c 1,11,-1
 184 576 l 1,12,-1
 171 816 l 1,13,-1
 316 816 l 1,14,15
 311 848 311 848 307.5 884 c 128,-1,16
 304 920 304 920 304 968 c 0,17,18
 304 1059 304 1059 336 1131 c 128,-1,19
 368 1203 368 1203 426.5 1252.5 c 128,-1,20
 485 1302 485 1302 567 1328.5 c 128,-1,21
 649 1355 649 1355 750 1355 c 0,22,23
 784 1355 784 1355 823.5 1352.5 c 128,-1,24
 863 1350 863 1350 904.5 1345 c 128,-1,25
 946 1340 946 1340 986 1332 c 128,-1,26
 1026 1324 1026 1324 1060 1312 c 1,27,-1
 1024 1062 l 1,28,-1
 1022 1057 l 1,29,30
 999 1067 999 1067 963.5 1077.5 c 128,-1,31
 928 1088 928 1088 888 1096 c 128,-1,32
 848 1104 848 1104 809.5 1109.5 c 128,-1,33
 771 1115 771 1115 743 1115 c 0,34,35
 703 1115 703 1115 669 1106.5 c 128,-1,36
 635 1098 635 1098 610.5 1079 c 128,-1,37
 586 1060 586 1060 572.5 1028.5 c 128,-1,38
 559 997 559 997 559 952 c 0,39,40
 559 908 559 908 561 875 c 128,-1,41
 563 842 563 842 567 816 c 1,42,-1
 823 816 l 2,43,44
 879 816 879 816 909.5 817 c 128,-1,45
 940 818 940 818 955 822 c 1,46,-1
 958 571 l 1,47,48
 929 574 929 574 897.5 575 c 128,-1,49
 866 576 866 576 834 576 c 2,50,-1
 614 576 l 1,51,52
 616 556 616 556 617 533 c 128,-1,53
 618 510 618 510 618 482 c 0,54,55
 618 428 618 428 609.5 372 c 128,-1,56
 601 316 601 316 582 261 c 1,57,58
 608 256 608 256 631.5 252 c 128,-1,59
 655 248 655 248 672 246 c 0,60,61
 695 242 695 242 717.5 237 c 128,-1,62
 740 232 740 232 766 227 c 128,-1,63
 792 222 792 222 824 218.5 c 128,-1,64
 856 215 856 215 898 215 c 0,65,66
 945 215 945 215 977 218 c 128,-1,67
 1009 221 1009 221 1032 228 c 128,-1,68
 1055 235 1055 235 1071.5 244.5 c 128,-1,69
 1088 254 1088 254 1105 268 c 1,70,-1
 1111 269 l 1,71,-1
 1103 9 l 1,72,73
 1061 -8 1061 -8 1023 -16.5 c 128,-1,74
 985 -25 985 -25 931 -25 c 0,75,76
 913 -25 913 -25 887.5 -22 c 128,-1,77
 862 -19 862 -19 830.5 -14.5 c 128,-1,78
 799 -10 799 -10 763.5 -4 c 128,-1,79
 728 2 728 2 691 8 c 0,80,81
 637 17 637 17 605 23 c 128,-1,82
 573 29 573 29 550 33 c 128,-1,83
 527 37 527 37 507.5 38.5 c 128,-1,84
 488 40 488 40 459 40 c 0,85,86
 449 40 449 40 434.5 38.5 c 128,-1,87
 420 37 420 37 402 33 c 1,88,89
 351 7 351 7 302 -5.5 c 128,-1,90
 253 -18 253 -18 190 -26 c 1,91,-1
 140 228 l 1,0,1
EndSplineSet
EndChar

StartChar: currency
Encoding: 164 164 121
Width: 1414
Flags: W
LayerCount: 2
Fore
SplineSet
150 274 m 1,0,1
 173 293 173 293 195.5 314 c 128,-1,2
 218 335 218 335 241 358 c 2,3,-1
 318 436 l 1,4,5
 289 481 289 481 274 533 c 128,-1,6
 259 585 259 585 259 644 c 0,7,8
 259 697 259 697 273 749.5 c 128,-1,9
 287 802 287 802 316 851 c 1,10,-1
 241 926 l 2,11,12
 202 966 202 966 177.5 986.5 c 128,-1,13
 153 1007 153 1007 140 1015 c 1,14,-1
 330 1206 l 1,15,16
 368 1161 368 1161 415 1115 c 1,17,-1
 507 1022 l 1,18,19
 553 1042 553 1042 607 1053.5 c 128,-1,20
 661 1065 661 1065 724 1065 c 0,21,22
 776 1065 776 1065 822.5 1056 c 128,-1,23
 869 1047 869 1047 910 1030 c 1,24,-1
 999 1118 l 2,25,26
 1022 1141 1022 1141 1043 1163.5 c 128,-1,27
 1064 1186 1064 1186 1083 1209 c 1,28,-1
 1274 1019 l 1,29,30
 1260 1011 1260 1011 1235.5 990 c 128,-1,31
 1211 969 1211 969 1172 930 c 2,32,-1
 1107 865 l 1,33,34
 1167 767 1167 767 1167 654 c 0,35,36
 1167 595 1167 595 1149.5 539.5 c 128,-1,37
 1132 484 1132 484 1099 436 c 1,38,-1
 1176 360 l 1,39,40
 1222 313 1222 313 1267 275 c 1,41,-1
 1076 85 l 1,42,43
 1068 98 1068 98 1047.5 122.5 c 128,-1,44
 1027 147 1027 147 987 186 c 2,45,-1
 897 276 l 1,46,47
 806 239 806 239 700 239 c 0,48,49
 602 239 602 239 517 273 c 1,50,-1
 429 185 l 2,51,52
 390 146 390 146 369 121.5 c 128,-1,53
 348 97 348 97 340 83 c 1,54,-1
 150 274 l 1,0,1
509 654 m 0,55,56
 509 614 509 614 526 581 c 128,-1,57
 543 548 543 548 571.5 524.5 c 128,-1,58
 600 501 600 501 638.5 488 c 128,-1,59
 677 475 677 475 719 475 c 0,60,61
 760 475 760 475 797 487.5 c 128,-1,62
 834 500 834 500 862 523 c 128,-1,63
 890 546 890 546 906.5 580 c 128,-1,64
 923 614 923 614 923 656 c 0,65,66
 923 689 923 689 908 721.5 c 128,-1,67
 893 754 893 754 865.5 779 c 128,-1,68
 838 804 838 804 799.5 819.5 c 128,-1,69
 761 835 761 835 713 835 c 0,70,71
 666 835 666 835 628.5 820 c 128,-1,72
 591 805 591 805 564.5 780 c 128,-1,73
 538 755 538 755 523.5 722 c 128,-1,74
 509 689 509 689 509 654 c 0,55,56
EndSplineSet
EndChar

StartChar: yen
Encoding: 165 165 122
Width: 1414
Flags: W
LayerCount: 2
Fore
SplineSet
276 566 m 1,0,-1
 627 566 l 1,1,-1
 627 660 l 1,2,-1
 276 660 l 1,3,-1
 276 856 l 1,4,-1
 493 856 l 1,5,-1
 325 1094 l 2,6,7
 289 1146 289 1146 260.5 1183 c 128,-1,8
 232 1220 232 1220 208 1247 c 128,-1,9
 184 1274 184 1274 163 1293.5 c 128,-1,10
 142 1313 142 1313 120 1330 c 1,11,-1
 475 1330 l 1,12,13
 478 1316 478 1316 490 1292 c 128,-1,14
 502 1268 502 1268 527 1230 c 1,15,-1
 748 862 l 1,16,-1
 966 1230 l 2,17,18
 984 1262 984 1262 997 1290.5 c 128,-1,19
 1010 1319 1010 1319 1008 1330 c 1,20,-1
 1318 1330 l 1,21,22
 1307 1324 1307 1324 1269.5 1269 c 128,-1,23
 1232 1214 1232 1214 1162 1100 c 1,24,-1
 1003 856 l 1,25,-1
 1086 856 l 2,26,27
 1142 856 1142 856 1172.5 857 c 128,-1,28
 1203 858 1203 858 1218 862 c 1,29,-1
 1218 655 l 1,30,31
 1189 658 1189 658 1158.5 659 c 128,-1,32
 1128 660 1128 660 1096 660 c 2,33,-1
 882 660 l 1,34,-1
 882 566 l 1,35,-1
 1084 566 l 2,36,37
 1140 566 1140 566 1170.5 567 c 128,-1,38
 1201 568 1201 568 1216 572 c 1,39,-1
 1216 365 l 1,40,41
 1187 368 1187 368 1152.5 369 c 128,-1,42
 1118 370 1118 370 1086 370 c 2,43,-1
 882 370 l 1,44,-1
 882 158 l 2,45,46
 882 126 882 126 884 82.5 c 128,-1,47
 886 39 886 39 894 0 c 1,48,-1
 614 0 l 1,49,50
 617 9 617 9 619.5 22.5 c 128,-1,51
 622 36 622 36 623.5 57.5 c 128,-1,52
 625 79 625 79 626 109.5 c 128,-1,53
 627 140 627 140 627 182 c 2,54,-1
 627 370 l 1,55,-1
 276 370 l 1,56,-1
 276 566 l 1,0,-1
EndSplineSet
EndChar

StartChar: brokenbar
Encoding: 166 166 123
Width: 885
Flags: W
LayerCount: 2
Fore
SplineSet
311 727 m 1,0,1
 312 743 312 743 313 754.5 c 128,-1,2
 314 766 314 766 314.5 777.5 c 128,-1,3
 315 789 315 789 315 802.5 c 128,-1,4
 315 816 315 816 315 836 c 2,5,-1
 315 1251 l 2,6,7
 315 1283 315 1283 315 1308 c 128,-1,8
 315 1333 315 1333 314 1353.5 c 128,-1,9
 313 1374 313 1374 312 1392 c 128,-1,10
 311 1410 311 1410 310 1430 c 1,11,-1
 575 1430 l 1,12,13
 573 1390 573 1390 571.5 1345.5 c 128,-1,14
 570 1301 570 1301 570 1247 c 2,15,-1
 570 839 l 2,16,17
 570 788 570 788 571 764 c 128,-1,18
 572 740 572 740 574 727 c 1,19,-1
 311 727 l 1,0,1
315 328 m 2,20,21
 315 360 315 360 315 385 c 128,-1,22
 315 410 315 410 314 430.5 c 128,-1,23
 313 451 313 451 312 469 c 128,-1,24
 311 487 311 487 310 507 c 1,25,-1
 575 507 l 1,26,27
 573 467 573 467 571.5 422.5 c 128,-1,28
 570 378 570 378 570 324 c 2,29,-1
 570 -138 l 2,30,31
 570 -189 570 -189 571 -213 c 128,-1,32
 572 -237 572 -237 574 -250 c 1,33,-1
 311 -250 l 1,34,35
 312 -234 312 -234 313 -217 c 128,-1,36
 314 -200 314 -200 314.5 -179 c 128,-1,37
 315 -158 315 -158 315 -132 c 128,-1,38
 315 -106 315 -106 315 -71 c 2,39,-1
 315 328 l 2,20,21
EndSplineSet
EndChar

StartChar: section
Encoding: 167 167 124
Width: 1267
Flags: W
LayerCount: 2
Fore
SplineSet
197 -33 m 1,0,1
 221 -73 221 -73 267 -108 c 128,-1,2
 313 -143 313 -143 371.5 -169.5 c 128,-1,3
 430 -196 430 -196 496.5 -211.5 c 128,-1,4
 563 -227 563 -227 627 -227 c 0,5,6
 673 -227 673 -227 715 -218.5 c 128,-1,7
 757 -210 757 -210 789.5 -194 c 128,-1,8
 822 -178 822 -178 841 -157 c 128,-1,9
 860 -136 860 -136 860 -110 c 256,10,11
 860 -84 860 -84 843 -61 c 128,-1,12
 826 -38 826 -38 789 -18 c 128,-1,13
 752 2 752 2 693.5 19 c 128,-1,14
 635 36 635 36 552 51 c 0,15,16
 453 69 453 69 370 101.5 c 128,-1,17
 287 134 287 134 227 179 c 128,-1,18
 167 224 167 224 133.5 280 c 128,-1,19
 100 336 100 336 100 400 c 0,20,21
 100 457 100 457 114.5 505.5 c 128,-1,22
 129 554 129 554 156 594.5 c 128,-1,23
 183 635 183 635 220.5 667 c 128,-1,24
 258 699 258 699 304 725 c 1,25,26
 234 781 234 781 196.5 847.5 c 128,-1,27
 159 914 159 914 159 983 c 0,28,29
 159 1061 159 1061 194.5 1128.5 c 128,-1,30
 230 1196 230 1196 298 1246.5 c 128,-1,31
 366 1297 366 1297 466 1326 c 128,-1,32
 566 1355 566 1355 695 1355 c 0,33,34
 753 1355 753 1355 809 1346.5 c 128,-1,35
 865 1338 865 1338 913 1324.5 c 128,-1,36
 961 1311 961 1311 999.5 1293 c 128,-1,37
 1038 1275 1038 1275 1063 1256 c 1,38,-1
 1025 968 l 1,39,-1
 1020 965 l 1,40,41
 996 997 996 997 959.5 1025.5 c 128,-1,42
 923 1054 923 1054 875 1075.5 c 128,-1,43
 827 1097 827 1097 768.5 1109.5 c 128,-1,44
 710 1122 710 1122 642 1122 c 0,45,46
 589 1122 589 1122 546.5 1112.5 c 128,-1,47
 504 1103 504 1103 474 1087 c 128,-1,48
 444 1071 444 1071 428 1049.5 c 128,-1,49
 412 1028 412 1028 412 1005 c 0,50,51
 412 979 412 979 431.5 954 c 128,-1,52
 451 929 451 929 488 907.5 c 128,-1,53
 525 886 525 886 577.5 869 c 128,-1,54
 630 852 630 852 696 841 c 0,55,56
 818 821 818 821 907 785 c 128,-1,57
 996 749 996 749 1053.5 703 c 128,-1,58
 1111 657 1111 657 1139 603.5 c 128,-1,59
 1167 550 1167 550 1167 495 c 0,60,61
 1167 383 1167 383 1114 304.5 c 128,-1,62
 1061 226 1061 226 972 175 c 1,63,64
 1037 124 1037 124 1072 62 c 128,-1,65
 1107 0 1107 0 1107 -72 c 0,66,67
 1107 -138 1107 -138 1086 -192 c 128,-1,68
 1065 -246 1065 -246 1029 -288.5 c 128,-1,69
 993 -331 993 -331 944 -362.5 c 128,-1,70
 895 -394 895 -394 838.5 -415 c 128,-1,71
 782 -436 782 -436 720.5 -446 c 128,-1,72
 659 -456 659 -456 598 -456 c 0,73,74
 544 -456 544 -456 487 -447 c 128,-1,75
 430 -438 430 -438 377.5 -422 c 128,-1,76
 325 -406 325 -406 280 -385.5 c 128,-1,77
 235 -365 235 -365 205 -341 c 1,78,-1
 194 -35 l 1,79,-1
 197 -33 l 1,0,1
344 465 m 0,80,81
 344 435 344 435 371 410.5 c 128,-1,82
 398 386 398 386 440.5 366 c 128,-1,83
 483 346 483 346 535 331 c 128,-1,84
 587 316 587 316 636.5 305 c 128,-1,85
 686 294 686 294 727.5 287 c 128,-1,86
 769 280 769 280 790 277 c 1,87,88
 821 298 821 298 846 315.5 c 128,-1,89
 871 333 871 333 888.5 350.5 c 128,-1,90
 906 368 906 368 915.5 386.5 c 128,-1,91
 925 405 925 405 925 429 c 0,92,93
 925 461 925 461 888 489 c 128,-1,94
 851 517 851 517 792.5 540 c 128,-1,95
 734 563 734 563 662 581 c 128,-1,96
 590 599 590 599 519 612 c 1,97,98
 487 604 487 604 455.5 589.5 c 128,-1,99
 424 575 424 575 399 555.5 c 128,-1,100
 374 536 374 536 359 513 c 128,-1,101
 344 490 344 490 344 465 c 0,80,81
EndSplineSet
EndChar

StartChar: dieresis
Encoding: 168 168 125
Width: 825
Flags: W
LayerCount: 2
Fore
SplineSet
500 1190 m 1,0,1
 504 1221 504 1221 506 1252.5 c 128,-1,2
 508 1284 508 1284 508 1316 c 0,3,4
 508 1345 508 1345 506 1378 c 128,-1,5
 504 1411 504 1411 502 1430 c 1,6,-1
 765 1430 l 1,7,8
 763 1405 763 1405 762 1368.5 c 128,-1,9
 761 1332 761 1332 761 1304 c 0,10,11
 761 1272 761 1272 761.5 1244 c 128,-1,12
 762 1216 762 1216 765 1190 c 1,13,-1
 500 1190 l 1,0,1
70 1190 m 1,14,15
 74 1221 74 1221 76 1252.5 c 128,-1,16
 78 1284 78 1284 78 1316 c 0,17,18
 78 1345 78 1345 76 1378 c 128,-1,19
 74 1411 74 1411 72 1430 c 1,20,-1
 335 1430 l 1,21,22
 333 1405 333 1405 332 1368.5 c 128,-1,23
 331 1332 331 1332 331 1304 c 0,24,25
 331 1272 331 1272 331.5 1244 c 128,-1,26
 332 1216 332 1216 335 1190 c 1,27,-1
 70 1190 l 1,14,15
EndSplineSet
EndChar

StartChar: copyright
Encoding: 169 169 126
Width: 1949
Flags: W
LayerCount: 2
Fore
SplineSet
209 804 m 0,0,1
 209 920 209 920 240 1015.5 c 128,-1,2
 271 1111 271 1111 325 1186 c 128,-1,3
 379 1261 379 1261 452.5 1316 c 128,-1,4
 526 1371 526 1371 612 1406.5 c 128,-1,5
 698 1442 698 1442 791.5 1459 c 128,-1,6
 885 1476 885 1476 980 1475 c 0,7,8
 1077 1473 1077 1473 1170.5 1453 c 128,-1,9
 1264 1433 1264 1433 1348.5 1395 c 128,-1,10
 1433 1357 1433 1357 1504.5 1301.5 c 128,-1,11
 1576 1246 1576 1246 1628 1173 c 128,-1,12
 1680 1100 1680 1100 1709.5 1011 c 128,-1,13
 1739 922 1739 922 1739 817 c 0,14,15
 1739 717 1739 717 1711.5 626 c 128,-1,16
 1684 535 1684 535 1633.5 457 c 128,-1,17
 1583 379 1583 379 1513 315.5 c 128,-1,18
 1443 252 1443 252 1358 207.5 c 128,-1,19
 1273 163 1273 163 1175.5 139 c 128,-1,20
 1078 115 1078 115 973 115 c 0,21,22
 808 115 808 115 668 163.5 c 128,-1,23
 528 212 528 212 426 302 c 128,-1,24
 324 392 324 392 266.5 519 c 128,-1,25
 209 646 209 646 209 804 c 0,0,1
444 794 m 0,26,27
 444 701 444 701 482 618 c 128,-1,28
 520 535 520 535 589 472 c 128,-1,29
 658 409 658 409 755 372 c 128,-1,30
 852 335 852 335 969 335 c 0,31,32
 1096 335 1096 335 1195.5 370 c 128,-1,33
 1295 405 1295 405 1363.5 466.5 c 128,-1,34
 1432 528 1432 528 1468 611.5 c 128,-1,35
 1504 695 1504 695 1504 791 c 0,36,37
 1504 897 1504 897 1466.5 986 c 128,-1,38
 1429 1075 1429 1075 1359.5 1139.5 c 128,-1,39
 1290 1204 1290 1204 1191.5 1240 c 128,-1,40
 1093 1276 1093 1276 972 1276 c 0,41,42
 847 1276 847 1276 748.5 1239.5 c 128,-1,43
 650 1203 650 1203 582.5 1138.5 c 128,-1,44
 515 1074 515 1074 479.5 985.5 c 128,-1,45
 444 897 444 897 444 794 c 0,26,27
618 800 m 0,46,47
 618 869 618 869 647 930 c 128,-1,48
 676 991 676 991 728.5 1036.5 c 128,-1,49
 781 1082 781 1082 855 1108.5 c 128,-1,50
 929 1135 929 1135 1020 1135 c 0,51,52
 1045 1135 1045 1135 1075 1131.5 c 128,-1,53
 1105 1128 1105 1128 1133 1122 c 128,-1,54
 1161 1116 1161 1116 1185 1109 c 128,-1,55
 1209 1102 1209 1102 1224 1095 c 1,56,-1
 1224 868 l 1,57,-1
 1223 868 l 1,58,59
 1209 881 1209 881 1185 892.5 c 128,-1,60
 1161 904 1161 904 1133.5 912 c 128,-1,61
 1106 920 1106 920 1076.5 924.5 c 128,-1,62
 1047 929 1047 929 1022 929 c 0,63,64
 932 929 932 929 886.5 895 c 128,-1,65
 841 861 841 861 841 808 c 0,66,67
 841 753 841 753 893.5 720 c 128,-1,68
 946 687 946 687 1034 687 c 0,69,70
 1061 687 1061 687 1090.5 692 c 128,-1,71
 1120 697 1120 697 1147 706 c 128,-1,72
 1174 715 1174 715 1196.5 726.5 c 128,-1,73
 1219 738 1219 738 1232 751 c 1,74,-1
 1234 750 l 1,75,-1
 1234 545 l 1,76,77
 1215 529 1215 529 1188 517 c 128,-1,78
 1161 505 1161 505 1130 497 c 128,-1,79
 1099 489 1099 489 1065 485 c 128,-1,80
 1031 481 1031 481 997 481 c 0,81,82
 910 481 910 481 839.5 506 c 128,-1,83
 769 531 769 531 720 574 c 128,-1,84
 671 617 671 617 644.5 675.5 c 128,-1,85
 618 734 618 734 618 800 c 0,46,47
EndSplineSet
EndChar

StartChar: ordfeminine
Encoding: 170 170 127
Width: 1068
Flags: W
LayerCount: 2
Fore
SplineSet
517 577 m 0,0,1
 405 577 405 577 322.5 609 c 128,-1,2
 240 641 240 641 186 694 c 128,-1,3
 132 747 132 747 106 815.5 c 128,-1,4
 80 884 80 884 80 957 c 0,5,6
 80 1041 80 1041 114 1113.5 c 128,-1,7
 148 1186 148 1186 207.5 1240 c 128,-1,8
 267 1294 267 1294 348.5 1324.5 c 128,-1,9
 430 1355 430 1355 526 1355 c 0,10,11
 580 1355 580 1355 620 1342 c 128,-1,12
 660 1329 660 1329 696 1304 c 1,13,-1
 696 1361 l 1,14,-1
 951 1361 l 1,15,-1
 951 898 l 2,16,17
 951 849 951 849 958.5 813 c 128,-1,18
 966 777 966 777 977.5 752.5 c 128,-1,19
 989 728 989 728 1003.5 714 c 128,-1,20
 1018 700 1018 700 1032 694 c 1,21,-1
 1030 689 l 1,22,-1
 832 560 l 1,23,24
 805 569 805 569 779.5 599 c 128,-1,25
 754 629 754 629 734 668 c 1,26,27
 694 626 694 626 640 601.5 c 128,-1,28
 586 577 586 577 517 577 c 0,0,1
546 806 m 0,29,30
 589 806 589 806 628 822 c 128,-1,31
 667 838 667 838 696 856 c 1,32,-1
 696 1083 l 1,33,34
 664 1098 664 1098 622.5 1111.5 c 128,-1,35
 581 1125 581 1125 545 1125 c 0,36,37
 491 1125 491 1125 451.5 1112 c 128,-1,38
 412 1099 412 1099 386 1077.5 c 128,-1,39
 360 1056 360 1056 347.5 1027.5 c 128,-1,40
 335 999 335 999 335 969 c 0,41,42
 335 931 335 931 350 901 c 128,-1,43
 365 871 365 871 393 850 c 128,-1,44
 421 829 421 829 460 817.5 c 128,-1,45
 499 806 499 806 546 806 c 0,29,30
EndSplineSet
EndChar

StartChar: guillemotleft
Encoding: 171 171 128
Width: 1180
Flags: W
LayerCount: 2
Fore
SplineSet
618 449 m 2,0,1
 601 479 601 479 595.5 497.5 c 128,-1,2
 590 516 590 516 590 528 c 0,3,4
 590 536 590 536 594.5 552 c 128,-1,5
 599 568 599 568 613 595 c 2,6,-1
 784 915 l 1,7,-1
 1039 915 l 1,8,-1
 839 527 l 1,9,-1
 1045 140 l 1,10,-1
 790 140 l 1,11,-1
 618 449 l 2,0,1
128 449 m 2,12,13
 111 479 111 479 105.5 497.5 c 128,-1,14
 100 516 100 516 100 528 c 0,15,16
 100 536 100 536 104.5 552 c 128,-1,17
 109 568 109 568 123 595 c 2,18,-1
 294 915 l 1,19,-1
 549 915 l 1,20,-1
 349 527 l 1,21,-1
 555 140 l 1,22,-1
 300 140 l 1,23,-1
 128 449 l 2,12,13
EndSplineSet
EndChar

StartChar: logicalnot
Encoding: 172 172 129
Width: 1414
Flags: W
LayerCount: 2
Fore
SplineSet
204 742 m 1,0,1
 219 738 219 738 249.5 737 c 128,-1,2
 280 736 280 736 336 736 c 2,3,-1
 1075 736 l 2,4,5
 1131 736 1131 736 1161.5 737 c 128,-1,6
 1192 738 1192 738 1207 742 c 1,7,-1
 1207 338 l 2,8,9
 1207 306 1207 306 1208 274.5 c 128,-1,10
 1209 243 1209 243 1212 214 c 1,11,-1
 965 217 l 1,12,13
 969 232 969 232 970 262.5 c 128,-1,14
 971 293 971 293 971 349 c 2,15,-1
 971 500 l 1,16,-1
 325 500 l 2,17,18
 293 500 293 500 261.5 499 c 128,-1,19
 230 498 230 498 201 495 c 1,20,-1
 204 742 l 1,0,1
EndSplineSet
EndChar

StartChar: registered
Encoding: 174 174 131
Width: 1730
Flags: W
LayerCount: 2
Fore
SplineSet
209 804 m 0,0,1
 209 920 209 920 240 1015.5 c 128,-1,2
 271 1111 271 1111 325 1186 c 128,-1,3
 379 1261 379 1261 452.5 1316 c 128,-1,4
 526 1371 526 1371 612 1406.5 c 128,-1,5
 698 1442 698 1442 791.5 1459 c 128,-1,6
 885 1476 885 1476 980 1475 c 0,7,8
 1077 1473 1077 1473 1170.5 1453 c 128,-1,9
 1264 1433 1264 1433 1348.5 1395 c 128,-1,10
 1433 1357 1433 1357 1504.5 1301.5 c 128,-1,11
 1576 1246 1576 1246 1628 1173 c 128,-1,12
 1680 1100 1680 1100 1709.5 1011 c 128,-1,13
 1739 922 1739 922 1739 817 c 0,14,15
 1739 717 1739 717 1711.5 626 c 128,-1,16
 1684 535 1684 535 1633.5 457 c 128,-1,17
 1583 379 1583 379 1513 315.5 c 128,-1,18
 1443 252 1443 252 1358 207.5 c 128,-1,19
 1273 163 1273 163 1175.5 139 c 128,-1,20
 1078 115 1078 115 973 115 c 0,21,22
 808 115 808 115 668 163.5 c 128,-1,23
 528 212 528 212 426 302 c 128,-1,24
 324 392 324 392 266.5 519 c 128,-1,25
 209 646 209 646 209 804 c 0,0,1
444 794 m 0,26,27
 444 701 444 701 482 618 c 128,-1,28
 520 535 520 535 589 472 c 128,-1,29
 658 409 658 409 755 372 c 128,-1,30
 852 335 852 335 969 335 c 0,31,32
 1096 335 1096 335 1195.5 370 c 128,-1,33
 1295 405 1295 405 1363.5 466.5 c 128,-1,34
 1432 528 1432 528 1468 611.5 c 128,-1,35
 1504 695 1504 695 1504 791 c 0,36,37
 1504 897 1504 897 1466.5 986 c 128,-1,38
 1429 1075 1429 1075 1359.5 1139.5 c 128,-1,39
 1290 1204 1290 1204 1191.5 1240 c 128,-1,40
 1093 1276 1093 1276 972 1276 c 0,41,42
 847 1276 847 1276 748.5 1239.5 c 128,-1,43
 650 1203 650 1203 582.5 1138.5 c 128,-1,44
 515 1074 515 1074 479.5 985.5 c 128,-1,45
 444 897 444 897 444 794 c 0,26,27
699 1105 m 1,46,47
 747 1118 747 1118 809 1125 c 128,-1,48
 871 1132 871 1132 935 1132 c 0,49,50
 1029 1132 1029 1132 1098 1112 c 128,-1,51
 1167 1092 1167 1092 1211.5 1058 c 128,-1,52
 1256 1024 1256 1024 1277.5 979 c 128,-1,53
 1299 934 1299 934 1299 885 c 0,54,55
 1299 837 1299 837 1277.5 794 c 128,-1,56
 1256 751 1256 751 1217 718 c 1,57,-1
 1271 614 l 2,58,59
 1279 599 1279 599 1290.5 579.5 c 128,-1,60
 1302 560 1302 560 1313 542 c 128,-1,61
 1324 524 1324 524 1333 510.5 c 128,-1,62
 1342 497 1342 497 1346 494 c 1,63,-1
 1344 492 l 1,64,65
 1321 495 1321 495 1298 495 c 0,66,67
 1289 495 1289 495 1262 495 c 128,-1,68
 1235 495 1235 495 1203 494.5 c 128,-1,69
 1171 494 1171 494 1141.5 493 c 128,-1,70
 1112 492 1112 492 1098 491 c 1,71,-1
 1024 639 l 1,72,73
 1008 637 1008 637 991.5 636 c 128,-1,74
 975 635 975 635 958 635 c 0,75,76
 950 635 950 635 941 635 c 128,-1,77
 932 635 932 635 924 637 c 1,78,-1
 924 495 l 1,79,-1
 699 495 l 1,80,-1
 699 1105 l 1,46,47
924 806 m 1,81,82
 937 804 937 804 948.5 804 c 128,-1,83
 960 804 960 804 970 804 c 0,84,85
 1018 804 1018 804 1050.5 824.5 c 128,-1,86
 1083 845 1083 845 1083 893 c 0,87,88
 1083 926 1083 926 1047.5 946 c 128,-1,89
 1012 966 1012 966 944 966 c 0,90,91
 939 966 939 966 934 966 c 128,-1,92
 929 966 929 966 924 965 c 1,93,-1
 924 806 l 1,81,82
EndSplineSet
EndChar

StartChar: macron
Encoding: 175 175 132
Width: 885
Flags: W
LayerCount: 2
Fore
SplineSet
105 1190 m 1,0,1
 109 1221 109 1221 111 1240 c 128,-1,2
 113 1259 113 1259 113 1276 c 0,3,4
 113 1305 113 1305 111 1333 c 128,-1,5
 109 1361 109 1361 107 1380 c 1,6,-1
 780 1380 l 1,7,8
 778 1355 778 1355 777 1333.5 c 128,-1,9
 776 1312 776 1312 776 1284 c 0,10,11
 776 1268 776 1268 776 1256.5 c 128,-1,12
 776 1245 776 1245 776.5 1234.5 c 128,-1,13
 777 1224 777 1224 778 1213.5 c 128,-1,14
 779 1203 779 1203 780 1190 c 1,15,-1
 105 1190 l 1,16,-1
 105 1190 l 1,0,1
EndSplineSet
EndChar

StartChar: degree
Encoding: 176 176 133
Width: 885
Flags: W
LayerCount: 2
Fore
SplineSet
433 732 m 0,0,1
 365 732 365 732 307.5 755.5 c 128,-1,2
 250 779 250 779 208.5 820 c 128,-1,3
 167 861 167 861 143.5 917 c 128,-1,4
 120 973 120 973 120 1038 c 0,5,6
 120 1100 120 1100 142 1157.5 c 128,-1,7
 164 1215 164 1215 206 1259 c 128,-1,8
 248 1303 248 1303 309.5 1329 c 128,-1,9
 371 1355 371 1355 451 1355 c 0,10,11
 521 1355 521 1355 579 1328.5 c 128,-1,12
 637 1302 637 1302 678 1258.5 c 128,-1,13
 719 1215 719 1215 742 1159 c 128,-1,14
 765 1103 765 1103 765 1044 c 0,15,16
 765 978 765 978 741 921 c 128,-1,17
 717 864 717 864 673 822 c 128,-1,18
 629 780 629 780 568 756 c 128,-1,19
 507 732 507 732 433 732 c 0,0,1
448 926 m 0,20,21
 499 926 499 926 532.5 959.5 c 128,-1,22
 566 993 566 993 566 1047 c 0,23,24
 566 1071 566 1071 558 1092.5 c 128,-1,25
 550 1114 550 1114 534 1130.5 c 128,-1,26
 518 1147 518 1147 495.5 1156.5 c 128,-1,27
 473 1166 473 1166 443 1166 c 0,28,29
 416 1166 416 1166 393.5 1156.5 c 128,-1,30
 371 1147 371 1147 355.5 1130.5 c 128,-1,31
 340 1114 340 1114 331.5 1091.5 c 128,-1,32
 323 1069 323 1069 323 1044 c 0,33,34
 323 993 323 993 356 959.5 c 128,-1,35
 389 926 389 926 448 926 c 0,20,21
EndSplineSet
EndChar

StartChar: plusminus
Encoding: 177 177 134
Width: 1239
Flags: W
LayerCount: 2
Fore
SplineSet
496 457 m 1,0,1
 500 472 500 472 501 502.5 c 128,-1,2
 502 533 502 533 502 589 c 2,3,-1
 502 800 l 1,4,-1
 289 800 l 2,5,6
 257 800 257 800 225.5 799 c 128,-1,7
 194 798 194 798 165 795 c 1,8,-1
 168 1042 l 1,9,10
 183 1038 183 1038 213.5 1037 c 128,-1,11
 244 1036 244 1036 300 1036 c 2,12,-1
 502 1036 l 1,13,-1
 502 1228 l 2,14,15
 502 1284 502 1284 501 1314.5 c 128,-1,16
 500 1345 500 1345 496 1360 c 1,17,-1
 743 1363 l 1,18,19
 740 1334 740 1334 739 1302.5 c 128,-1,20
 738 1271 738 1271 738 1239 c 2,21,-1
 738 1036 l 1,22,-1
 939 1036 l 2,23,24
 995 1036 995 1036 1025.5 1037 c 128,-1,25
 1056 1038 1056 1038 1071 1042 c 1,26,-1
 1074 795 l 1,27,28
 1045 798 1045 798 1013.5 799 c 128,-1,29
 982 800 982 800 950 800 c 2,30,-1
 738 800 l 1,31,-1
 738 578 l 2,32,33
 738 546 738 546 739 514.5 c 128,-1,34
 740 483 740 483 743 454 c 1,35,-1
 496 457 l 1,0,1
168 342 m 1,36,37
 183 338 183 338 213.5 337 c 128,-1,38
 244 336 244 336 300 336 c 2,39,-1
 939 336 l 2,40,41
 995 336 995 336 1025.5 337 c 128,-1,42
 1056 338 1056 338 1071 342 c 1,43,-1
 1074 95 l 1,44,45
 1045 98 1045 98 1013.5 99 c 128,-1,46
 982 100 982 100 950 100 c 2,47,-1
 289 100 l 2,48,49
 257 100 257 100 225.5 99 c 128,-1,50
 194 98 194 98 165 95 c 1,51,-1
 168 342 l 1,36,37
EndSplineSet
EndChar

StartChar: twosuperior
Encoding: 178 178 135
Width: 737
Flags: W
LayerCount: 2
Fore
SplineSet
161 749 m 2,0,1
 253 896 253 896 299 989 c 128,-1,2
 345 1082 345 1082 345 1118 c 0,3,4
 345 1147 345 1147 328 1160 c 128,-1,5
 311 1173 311 1173 288 1173 c 0,6,7
 271 1173 271 1173 249.5 1169.5 c 128,-1,8
 228 1166 228 1166 206.5 1158.5 c 128,-1,9
 185 1151 185 1151 165 1140.5 c 128,-1,10
 145 1130 145 1130 130 1117 c 1,11,-1
 123 1116 l 1,12,-1
 128 1365 l 1,13,14
 141 1374 141 1374 164.5 1381 c 128,-1,15
 188 1388 188 1388 216.5 1393.5 c 128,-1,16
 245 1399 245 1399 276 1402 c 128,-1,17
 307 1405 307 1405 336 1405 c 0,18,19
 393 1405 393 1405 443.5 1390.5 c 128,-1,20
 494 1376 494 1376 532.5 1348.5 c 128,-1,21
 571 1321 571 1321 593 1281 c 128,-1,22
 615 1241 615 1241 615 1190 c 0,23,24
 615 1131 615 1131 584 1039.5 c 128,-1,25
 553 948 553 948 487 832 c 1,26,-1
 631 832 l 2,27,28
 667 832 667 832 687.5 835 c 128,-1,29
 708 838 708 838 722 849 c 1,30,-1
 727 847 l 1,31,-1
 628 603 l 1,32,33
 597 605 597 605 558.5 607 c 128,-1,34
 520 609 520 609 476.5 610 c 128,-1,35
 433 611 433 611 387.5 611.5 c 128,-1,36
 342 612 342 612 298 612 c 0,37,38
 263 612 263 612 203.5 610.5 c 128,-1,39
 144 609 144 609 70 604 c 1,40,-1
 161 749 l 2,0,1
EndSplineSet
EndChar

StartChar: threesuperior
Encoding: 179 179 136
Width: 846
Flags: W
LayerCount: 2
Fore
SplineSet
120 890 m 1,0,-1
 125 896 l 1,1,2
 141 880 141 880 169 866 c 128,-1,3
 197 852 197 852 231.5 841 c 128,-1,4
 266 830 266 830 304.5 823.5 c 128,-1,5
 343 817 343 817 381 817 c 0,6,7
 416 817 416 817 438 821.5 c 128,-1,8
 460 826 460 826 473 833.5 c 128,-1,9
 486 841 486 841 490.5 849 c 128,-1,10
 495 857 495 857 495 865 c 256,11,12
 495 873 495 873 488.5 882.5 c 128,-1,13
 482 892 482 892 468.5 900 c 128,-1,14
 455 908 455 908 434 913.5 c 128,-1,15
 413 919 413 919 384 919 c 0,16,17
 369 919 369 919 353 917 c 128,-1,18
 337 915 337 915 324 913 c 128,-1,19
 311 911 311 911 302.5 909 c 128,-1,20
 294 907 294 907 293 906 c 1,21,-1
 290 911 l 1,22,-1
 295 1076 l 1,23,24
 309 1083 309 1083 335 1087 c 128,-1,25
 361 1091 361 1091 386 1091 c 2,26,-1
 394 1091 l 1,27,28
 414 1098 414 1098 426.5 1110.5 c 128,-1,29
 439 1123 439 1123 439 1142 c 0,30,31
 439 1170 439 1170 411.5 1181 c 128,-1,32
 384 1192 384 1192 344 1192 c 0,33,34
 301 1192 301 1192 257 1180.5 c 128,-1,35
 213 1169 213 1169 181 1150 c 1,36,-1
 179 1153 l 1,37,-1
 172 1363 l 1,38,39
 190 1375 190 1375 216 1385 c 128,-1,40
 242 1395 242 1395 273 1401.5 c 128,-1,41
 304 1408 304 1408 337.5 1411.5 c 128,-1,42
 371 1415 371 1415 406 1415 c 0,43,44
 467 1415 467 1415 518 1401.5 c 128,-1,45
 569 1388 569 1388 605.5 1363.5 c 128,-1,46
 642 1339 642 1339 662 1304.5 c 128,-1,47
 682 1270 682 1270 682 1228 c 0,48,49
 682 1177 682 1177 660 1132.5 c 128,-1,50
 638 1088 638 1088 592 1055 c 1,51,52
 625 1039 625 1039 653 1017 c 128,-1,53
 681 995 681 995 701.5 968.5 c 128,-1,54
 722 942 722 942 734 911.5 c 128,-1,55
 746 881 746 881 746 848 c 0,56,57
 746 791 746 791 719.5 744.5 c 128,-1,58
 693 698 693 698 645 665.5 c 128,-1,59
 597 633 597 633 531.5 615.5 c 128,-1,60
 466 598 466 598 388 598 c 0,61,62
 219 598 219 598 122 671 c 1,63,-1
 120 890 l 1,0,-1
EndSplineSet
EndChar

StartChar: acute
Encoding: 180 180 137
Width: 759
Flags: W
LayerCount: 2
Fore
SplineSet
269 1503 m 1,0,1
 325 1503 325 1503 367 1504 c 128,-1,2
 409 1505 409 1505 445 1507.5 c 128,-1,3
 481 1510 481 1510 515 1513 c 128,-1,4
 549 1516 549 1516 589 1520 c 1,5,-1
 588 1513 l 1,6,-1
 326 1190 l 1,7,-1
 100 1190 l 1,8,-1
 269 1503 l 1,0,1
EndSplineSet
EndChar

StartChar: mu
Encoding: 181 181 138
AltUni2: 0003bc.ffffffff.0
Width: 1244
Flags: W
LayerCount: 2
Fore
SplineSet
173 820 m 2,0,1
 173 867 173 867 172 901.5 c 128,-1,2
 171 936 171 936 169.5 962 c 128,-1,3
 168 988 168 988 165.5 1008.5 c 128,-1,4
 163 1029 163 1029 160 1049 c 1,5,6
 183 1047 183 1047 215 1046 c 128,-1,7
 247 1045 247 1045 289 1045 c 0,8,9
 298 1045 298 1045 331 1045 c 128,-1,10
 364 1045 364 1045 418 1048 c 1,11,-1
 418 302 l 1,12,13
 455 255 455 255 503.5 237.5 c 128,-1,14
 552 220 552 220 615 220 c 0,15,16
 656 220 656 220 692.5 233.5 c 128,-1,17
 729 247 729 247 764 281 c 1,18,-1
 764 1045 l 1,19,-1
 1009 1045 l 1,20,-1
 1009 374 l 2,21,22
 1009 297 1009 297 1036.5 258.5 c 128,-1,23
 1064 220 1064 220 1115 220 c 0,24,25
 1144 220 1144 220 1163.5 228.5 c 128,-1,26
 1183 237 1183 237 1196 252 c 1,27,-1
 1204 252 l 1,28,-1
 1147 4 l 1,29,30
 1133 -4 1133 -4 1103 -9.5 c 128,-1,31
 1073 -15 1073 -15 1041 -15 c 0,32,33
 969 -15 969 -15 915 12.5 c 128,-1,34
 861 40 861 40 826 85 c 1,35,36
 761 33 761 33 696.5 9 c 128,-1,37
 632 -15 632 -15 563 -15 c 0,38,39
 517 -15 517 -15 475 -4 c 128,-1,40
 433 7 433 7 395 26 c 1,41,42
 398 -84 398 -84 420 -162 c 128,-1,43
 442 -240 442 -240 487 -271 c 1,44,-1
 487 -276 l 1,45,-1
 286 -407 l 1,46,47
 259 -387 259 -387 238 -357 c 128,-1,48
 217 -327 217 -327 202.5 -284 c 128,-1,49
 188 -241 188 -241 180.5 -182 c 128,-1,50
 173 -123 173 -123 173 -45 c 2,51,-1
 173 820 l 2,0,1
EndSplineSet
EndChar

StartChar: paragraph
Encoding: 182 182 139
Width: 1414
Flags: W
LayerCount: 2
Fore
SplineSet
217 267 m 1,0,-1
 224 269 l 1,1,2
 251 254 251 254 281.5 246.5 c 128,-1,3
 312 239 312 239 343 239 c 0,4,5
 365 239 365 239 382 245 c 128,-1,6
 399 251 399 251 410.5 266 c 128,-1,7
 422 281 422 281 427.5 306 c 128,-1,8
 433 331 433 331 433 369 c 2,9,-1
 433 563 l 1,10,11
 343 566 343 566 277 600 c 128,-1,12
 211 634 211 634 167.5 687 c 128,-1,13
 124 740 124 740 103 807 c 128,-1,14
 82 874 82 874 82 944 c 0,15,16
 82 1034 82 1034 114 1105.5 c 128,-1,17
 146 1177 146 1177 210 1227 c 128,-1,18
 274 1277 274 1277 368 1303.5 c 128,-1,19
 462 1330 462 1330 587 1330 c 2,20,-1
 1156 1330 l 1,21,22
 1151 1279 1151 1279 1149.5 1219.5 c 128,-1,23
 1148 1160 1148 1160 1148 1091 c 2,24,-1
 1148 112 l 2,25,26
 1148 61 1148 61 1149 37 c 128,-1,27
 1150 13 1150 13 1152 0 c 1,28,-1
 903 0 l 1,29,-1
 903 1092 l 1,30,31
 855 1095 855 1095 805 1095 c 0,32,33
 785 1095 785 1095 753 1095 c 128,-1,34
 721 1095 721 1095 688 1094 c 1,35,-1
 688 467 l 2,36,37
 688 333 688 333 666 243 c 128,-1,38
 644 153 644 153 603 99 c 128,-1,39
 562 45 562 45 503.5 22.5 c 128,-1,40
 445 0 445 0 371 0 c 0,41,42
 326 0 326 0 287.5 7 c 128,-1,43
 249 14 249 14 217 28 c 1,44,-1
 217 267 l 1,0,-1
EndSplineSet
EndChar

StartChar: periodcentered
Encoding: 183 183 140
Width: 530
Flags: W
LayerCount: 2
Fore
SplineSet
119 600 m 1,0,1
 124 634 124 634 126 669 c 128,-1,2
 128 704 128 704 128 739 c 0,3,4
 128 755 128 755 127.5 772.5 c 128,-1,5
 127 790 127 790 126 807 c 128,-1,6
 125 824 125 824 123.5 839 c 128,-1,7
 122 854 122 854 121 864 c 1,8,-1
 411 864 l 1,9,10
 410 850 410 850 409 832.5 c 128,-1,11
 408 815 408 815 407.5 796.5 c 128,-1,12
 407 778 407 778 406.5 759.5 c 128,-1,13
 406 741 406 741 406 726 c 0,14,15
 406 691 406 691 406.5 660 c 128,-1,16
 407 629 407 629 411 600 c 1,17,-1
 119 600 l 1,18,-1
 119 600 l 1,0,1
EndSplineSet
EndChar

StartChar: cedilla
Encoding: 184 184 141
Width: 717
Flags: W
LayerCount: 2
Fore
SplineSet
457 40 m 1,0,1
 461 12 461 12 464.5 -11 c 128,-1,2
 468 -34 468 -34 469.5 -55 c 128,-1,3
 471 -76 471 -76 472 -96.5 c 128,-1,4
 473 -117 473 -117 473 -138 c 0,5,6
 473 -235 473 -235 450.5 -290 c 128,-1,7
 428 -345 428 -345 399 -362 c 0,8,9
 388 -369 388 -369 373 -376.5 c 128,-1,10
 358 -384 358 -384 333.5 -393 c 128,-1,11
 309 -402 309 -402 273 -411.5 c 128,-1,12
 237 -421 237 -421 184 -432 c 1,13,-1
 178 -426 l 1,14,15
 197 -399 197 -399 210.5 -348 c 128,-1,16
 224 -297 224 -297 232.5 -236.5 c 128,-1,17
 241 -176 241 -176 244.5 -113 c 128,-1,18
 248 -50 248 -50 248 0 c 1,19,-1
 457 40 l 1,0,1
EndSplineSet
EndChar

StartChar: onesuperior
Encoding: 185 185 142
Width: 545
Flags: W
LayerCount: 2
Fore
SplineSet
150 1390 m 1,0,-1
 395 1390 l 1,1,-1
 395 600 l 1,2,-1
 150 600 l 1,3,-1
 150 1390 l 1,0,-1
EndSplineSet
EndChar

StartChar: ordmasculine
Encoding: 186 186 143
Width: 1032
Flags: W
LayerCount: 2
Fore
SplineSet
512 577 m 0,0,1
 402 577 402 577 320.5 611 c 128,-1,2
 239 645 239 645 185.5 699 c 128,-1,3
 132 753 132 753 106 821 c 128,-1,4
 80 889 80 889 80 957 c 0,5,6
 80 1041 80 1041 113 1113.5 c 128,-1,7
 146 1186 146 1186 205 1240 c 128,-1,8
 264 1294 264 1294 344.5 1324.5 c 128,-1,9
 425 1355 425 1355 521 1355 c 0,10,11
 612 1355 612 1355 691 1327 c 128,-1,12
 770 1299 770 1299 828 1248 c 128,-1,13
 886 1197 886 1197 919 1126.5 c 128,-1,14
 952 1056 952 1056 952 972 c 0,15,16
 952 891 952 891 918 819 c 128,-1,17
 884 747 884 747 825 693.5 c 128,-1,18
 766 640 766 640 685.5 608.5 c 128,-1,19
 605 577 605 577 512 577 c 0,0,1
525 803 m 0,20,21
 563 803 563 803 596.5 814.5 c 128,-1,22
 630 826 630 826 654.5 846.5 c 128,-1,23
 679 867 679 867 693.5 895.5 c 128,-1,24
 708 924 708 924 708 959 c 0,25,26
 708 996 708 996 692.5 1027 c 128,-1,27
 677 1058 677 1058 650.5 1079.5 c 128,-1,28
 624 1101 624 1101 588 1113 c 128,-1,29
 552 1125 552 1125 510 1125 c 0,30,31
 462 1125 462 1125 426.5 1110.5 c 128,-1,32
 391 1096 391 1096 367 1073 c 128,-1,33
 343 1050 343 1050 331.5 1021 c 128,-1,34
 320 992 320 992 320 963 c 0,35,36
 320 927 320 927 335.5 897.5 c 128,-1,37
 351 868 351 868 378 847 c 128,-1,38
 405 826 405 826 442.5 814.5 c 128,-1,39
 480 803 480 803 525 803 c 0,20,21
EndSplineSet
EndChar

StartChar: guillemotright
Encoding: 187 187 144
Width: 1180
Flags: W
LayerCount: 2
Fore
SplineSet
781 527 m 1,0,-1
 581 915 l 1,1,-1
 836 915 l 1,2,-1
 1007 595 l 2,3,4
 1021 568 1021 568 1025.5 552 c 128,-1,5
 1030 536 1030 536 1030 528 c 0,6,7
 1030 516 1030 516 1024.5 497.5 c 128,-1,8
 1019 479 1019 479 1002 449 c 2,9,-1
 830 140 l 1,10,-1
 575 140 l 1,11,-1
 781 527 l 1,0,-1
291 527 m 1,12,-1
 91 915 l 1,13,-1
 346 915 l 1,14,-1
 517 595 l 2,15,16
 531 568 531 568 535.5 552 c 128,-1,17
 540 536 540 536 540 528 c 0,18,19
 540 516 540 516 534.5 497.5 c 128,-1,20
 529 479 529 479 512 449 c 2,21,-1
 340 140 l 1,22,-1
 85 140 l 1,23,-1
 291 527 l 1,12,-1
EndSplineSet
EndChar

StartChar: onequarter
Encoding: 188 188 145
Width: 1949
Flags: W
LayerCount: 2
Fore
SplineSet
206 1390 m 1,0,-1
 451 1390 l 1,1,-1
 451 600 l 1,2,-1
 206 600 l 1,3,-1
 206 1390 l 1,0,-1
1054 1330 m 1,4,-1
 1299 1330 l 1,5,-1
 509 0 l 1,6,-1
 264 0 l 1,7,-1
 1054 1330 l 1,4,-1
1231 770 m 1,8,-1
 1571 769 l 1,9,-1
 1571 363 l 1,10,-1
 1592 363 l 2,11,12
 1637 363 1637 363 1673 366 c 128,-1,13
 1709 369 1709 369 1740 377 c 1,14,-1
 1743 374 l 1,15,-1
 1681 143 l 1,16,-1
 1571 143 l 1,17,-1
 1571 0 l 1,18,-1
 1326 0 l 1,19,-1
 1326 143 l 1,20,-1
 940 143 l 1,21,-1
 920 187 l 1,22,-1
 1231 770 l 1,8,-1
1326 363 m 1,23,-1
 1326 600 l 1,24,-1
 1230 363 l 1,25,-1
 1326 363 l 1,23,-1
EndSplineSet
EndChar

StartChar: onehalf
Encoding: 189 189 146
Width: 1949
Flags: W
LayerCount: 2
Fore
SplineSet
230 1390 m 1,0,-1
 475 1390 l 1,1,-1
 475 600 l 1,2,-1
 230 600 l 1,3,-1
 230 1390 l 1,0,-1
1078 1330 m 1,4,-1
 1323 1330 l 1,5,-1
 533 0 l 1,6,-1
 288 0 l 1,7,-1
 1078 1330 l 1,4,-1
1153 137 m 2,8,9
 1245 284 1245 284 1291 377 c 128,-1,10
 1337 470 1337 470 1337 506 c 0,11,12
 1337 535 1337 535 1320 548 c 128,-1,13
 1303 561 1303 561 1280 561 c 0,14,15
 1263 561 1263 561 1241.5 557.5 c 128,-1,16
 1220 554 1220 554 1198.5 546.5 c 128,-1,17
 1177 539 1177 539 1157 528.5 c 128,-1,18
 1137 518 1137 518 1122 505 c 1,19,-1
 1115 504 l 1,20,-1
 1120 753 l 1,21,22
 1133 762 1133 762 1156.5 769 c 128,-1,23
 1180 776 1180 776 1208.5 781.5 c 128,-1,24
 1237 787 1237 787 1268 790 c 128,-1,25
 1299 793 1299 793 1328 793 c 0,26,27
 1385 793 1385 793 1435.5 778.5 c 128,-1,28
 1486 764 1486 764 1524.5 736.5 c 128,-1,29
 1563 709 1563 709 1585 669 c 128,-1,30
 1607 629 1607 629 1607 578 c 0,31,32
 1607 519 1607 519 1576 427.5 c 128,-1,33
 1545 336 1545 336 1479 220 c 1,34,-1
 1623 220 l 2,35,36
 1659 220 1659 220 1679.5 223 c 128,-1,37
 1700 226 1700 226 1714 237 c 1,38,-1
 1719 235 l 1,39,-1
 1620 -9 l 1,40,41
 1589 -7 1589 -7 1550.5 -5 c 128,-1,42
 1512 -3 1512 -3 1468.5 -2 c 128,-1,43
 1425 -1 1425 -1 1379.5 -0.5 c 128,-1,44
 1334 0 1334 0 1290 0 c 0,45,46
 1255 0 1255 0 1195.5 -1.5 c 128,-1,47
 1136 -3 1136 -3 1062 -8 c 1,48,-1
 1153 137 l 2,8,9
EndSplineSet
EndChar

StartChar: threequarters
Encoding: 190 190 147
Width: 2124
Flags: W
LayerCount: 2
Fore
SplineSet
192 890 m 1,0,-1
 197 896 l 1,1,2
 213 880 213 880 241 866 c 128,-1,3
 269 852 269 852 303.5 841 c 128,-1,4
 338 830 338 830 376.5 823.5 c 128,-1,5
 415 817 415 817 453 817 c 0,6,7
 488 817 488 817 510 821.5 c 128,-1,8
 532 826 532 826 545 833.5 c 128,-1,9
 558 841 558 841 562.5 849 c 128,-1,10
 567 857 567 857 567 865 c 256,11,12
 567 873 567 873 560.5 882.5 c 128,-1,13
 554 892 554 892 540.5 900 c 128,-1,14
 527 908 527 908 506 913.5 c 128,-1,15
 485 919 485 919 456 919 c 0,16,17
 441 919 441 919 425 917 c 128,-1,18
 409 915 409 915 396 913 c 128,-1,19
 383 911 383 911 374.5 909 c 128,-1,20
 366 907 366 907 365 906 c 1,21,-1
 362 911 l 1,22,-1
 367 1076 l 1,23,24
 381 1083 381 1083 407 1087 c 128,-1,25
 433 1091 433 1091 458 1091 c 2,26,-1
 466 1091 l 1,27,28
 486 1098 486 1098 498.5 1110.5 c 128,-1,29
 511 1123 511 1123 511 1142 c 0,30,31
 511 1170 511 1170 483.5 1181 c 128,-1,32
 456 1192 456 1192 416 1192 c 0,33,34
 373 1192 373 1192 329 1180.5 c 128,-1,35
 285 1169 285 1169 253 1150 c 1,36,-1
 251 1153 l 1,37,-1
 244 1363 l 1,38,39
 262 1375 262 1375 288 1385 c 128,-1,40
 314 1395 314 1395 345 1401.5 c 128,-1,41
 376 1408 376 1408 409.5 1411.5 c 128,-1,42
 443 1415 443 1415 478 1415 c 0,43,44
 539 1415 539 1415 590 1401.5 c 128,-1,45
 641 1388 641 1388 677.5 1363.5 c 128,-1,46
 714 1339 714 1339 734 1304.5 c 128,-1,47
 754 1270 754 1270 754 1228 c 0,48,49
 754 1177 754 1177 732 1132.5 c 128,-1,50
 710 1088 710 1088 664 1055 c 1,51,52
 697 1039 697 1039 725 1017 c 128,-1,53
 753 995 753 995 773.5 968.5 c 128,-1,54
 794 942 794 942 806 911.5 c 128,-1,55
 818 881 818 881 818 848 c 0,56,57
 818 791 818 791 791.5 744.5 c 128,-1,58
 765 698 765 698 717 665.5 c 128,-1,59
 669 633 669 633 603.5 615.5 c 128,-1,60
 538 598 538 598 460 598 c 0,61,62
 291 598 291 598 194 671 c 1,63,-1
 192 890 l 1,0,-1
1270 1330 m 1,64,-1
 1515 1330 l 1,65,-1
 725 0 l 1,66,-1
 480 0 l 1,67,-1
 1270 1330 l 1,64,-1
1429 770 m 1,68,-1
 1769 769 l 1,69,-1
 1769 363 l 1,70,-1
 1790 363 l 2,71,72
 1835 363 1835 363 1871 366 c 128,-1,73
 1907 369 1907 369 1938 377 c 1,74,-1
 1941 374 l 1,75,-1
 1879 143 l 1,76,-1
 1769 143 l 1,77,-1
 1769 0 l 1,78,-1
 1524 0 l 1,79,-1
 1524 143 l 1,80,-1
 1138 143 l 1,81,-1
 1118 187 l 1,82,-1
 1429 770 l 1,68,-1
1524 363 m 1,83,-1
 1524 600 l 1,84,-1
 1428 363 l 1,85,-1
 1524 363 l 1,83,-1
EndSplineSet
EndChar

StartChar: questiondown
Encoding: 191 191 148
Width: 956
Flags: W
LayerCount: 2
Fore
SplineSet
323 1090 m 1,0,1
 325 1109 325 1109 327 1142 c 128,-1,2
 329 1175 329 1175 329 1204 c 0,3,4
 329 1236 329 1236 327 1267.5 c 128,-1,5
 325 1299 325 1299 321 1330 c 1,6,-1
 586 1330 l 1,7,8
 583 1304 583 1304 582.5 1276 c 128,-1,9
 582 1248 582 1248 582 1216 c 0,10,11
 582 1188 582 1188 583 1151.5 c 128,-1,12
 584 1115 584 1115 586 1090 c 1,13,-1
 323 1090 l 1,0,1
80 89 m 1,14,15
 93 134 93 134 101.5 164.5 c 128,-1,16
 110 195 110 195 115.5 215.5 c 128,-1,17
 121 236 121 236 123.5 249 c 128,-1,18
 126 262 126 262 127 271 c 0,19,20
 130 292 130 292 131 302 c 128,-1,21
 132 312 132 312 131 328 c 1,22,-1
 138 326 l 1,23,24
 159 286 159 286 192.5 257.5 c 128,-1,25
 226 229 226 229 263.5 210.5 c 128,-1,26
 301 192 301 192 340 183.5 c 128,-1,27
 379 175 379 175 411 175 c 0,28,29
 456 175 456 175 495.5 185.5 c 128,-1,30
 535 196 535 196 565 216 c 128,-1,31
 595 236 595 236 612 264.5 c 128,-1,32
 629 293 629 293 629 329 c 0,33,34
 629 351 629 351 623.5 371 c 128,-1,35
 618 391 618 391 603 413 c 128,-1,36
 588 435 588 435 561.5 461.5 c 128,-1,37
 535 488 535 488 493 523 c 0,38,39
 431 575 431 575 392.5 617.5 c 128,-1,40
 354 660 354 660 332 694.5 c 128,-1,41
 310 729 310 729 302.5 757 c 128,-1,42
 295 785 295 785 295 809 c 0,43,44
 295 872 295 872 326 917.5 c 128,-1,45
 357 963 357 963 420 987 c 1,46,47
 439 978 439 978 463.5 965 c 128,-1,48
 488 952 488 952 513.5 937 c 128,-1,49
 539 922 539 922 563.5 905.5 c 128,-1,50
 588 889 588 889 608 874 c 1,51,52
 586 870 586 870 568.5 852.5 c 128,-1,53
 551 835 551 835 551 807 c 0,54,55
 551 795 551 795 555 780.5 c 128,-1,56
 559 766 559 766 574 745 c 128,-1,57
 589 724 589 724 619 693 c 128,-1,58
 649 662 649 662 701 617 c 0,59,60
 755 569 755 569 791 528.5 c 128,-1,61
 827 488 827 488 848 451.5 c 128,-1,62
 869 415 869 415 877.5 381 c 128,-1,63
 886 347 886 347 886 313 c 0,64,65
 886 244 886 244 854.5 179 c 128,-1,66
 823 114 823 114 765.5 64.5 c 128,-1,67
 708 15 708 15 627 -15 c 128,-1,68
 546 -45 546 -45 447 -45 c 0,69,70
 326 -45 326 -45 238 -11 c 128,-1,71
 150 23 150 23 80 89 c 1,14,15
EndSplineSet
EndChar

StartChar: Agrave
Encoding: 192 192 149
Width: 1259
Flags: W
LayerCount: 2
Fore
SplineSet
261 1768 m 1,0,-1
 260 1775 l 1,1,2
 300 1771 300 1771 334 1768 c 128,-1,3
 368 1765 368 1765 404 1762.5 c 128,-1,4
 440 1760 440 1760 482 1759 c 128,-1,5
 524 1758 524 1758 580 1758 c 1,6,-1
 749 1445 l 1,7,-1
 523 1445 l 1,8,-1
 261 1768 l 1,0,-1
455 1219 m 2,9,10
 472 1267 472 1267 478 1289.5 c 128,-1,11
 484 1312 484 1312 484 1323 c 0,12,13
 484 1328 484 1328 483 1331 c 1,14,-1
 484 1333 l 1,15,16
 527 1331 527 1331 560 1330.5 c 128,-1,17
 593 1330 593 1330 622 1330 c 256,18,19
 651 1330 651 1330 687.5 1330.5 c 128,-1,20
 724 1331 724 1331 766 1332 c 1,21,-1
 767 1330 l 1,22,23
 765 1326 765 1326 765 1322 c 0,24,25
 765 1312 765 1312 771 1289.5 c 128,-1,26
 777 1267 777 1267 795 1218 c 2,27,-1
 1239 -3 l 1,28,29
 1219 -2 1219 -2 1192 -1.5 c 128,-1,30
 1165 -1 1165 -1 1140 -0.5 c 128,-1,31
 1115 0 1115 0 1095.5 0 c 128,-1,32
 1076 0 1076 0 1072 0 c 2,33,-1
 940 0 l 1,34,-1
 846 288 l 1,35,-1
 394 288 l 1,36,-1
 300 -8 l 1,37,38
 246 -3 246 -3 192.5 -1.5 c 128,-1,39
 139 0 139 0 99 0 c 2,40,-1
 20 0 l 1,41,-1
 455 1219 l 2,9,10
768 528 m 1,42,-1
 617 993 l 1,43,-1
 470 528 l 1,44,-1
 768 528 l 1,42,-1
EndSplineSet
EndChar

StartChar: Aacute
Encoding: 193 193 150
Width: 1259
Flags: W
LayerCount: 2
Fore
SplineSet
679 1758 m 1,0,1
 735 1758 735 1758 777 1759 c 128,-1,2
 819 1760 819 1760 855 1762.5 c 128,-1,3
 891 1765 891 1765 925 1768 c 128,-1,4
 959 1771 959 1771 999 1775 c 1,5,-1
 998 1768 l 1,6,-1
 736 1445 l 1,7,-1
 510 1445 l 1,8,-1
 679 1758 l 1,0,1
455 1219 m 2,9,10
 472 1267 472 1267 478 1289.5 c 128,-1,11
 484 1312 484 1312 484 1323 c 0,12,13
 484 1328 484 1328 483 1331 c 1,14,-1
 484 1333 l 1,15,16
 527 1331 527 1331 560 1330.5 c 128,-1,17
 593 1330 593 1330 622 1330 c 256,18,19
 651 1330 651 1330 687.5 1330.5 c 128,-1,20
 724 1331 724 1331 766 1332 c 1,21,-1
 767 1330 l 1,22,23
 765 1326 765 1326 765 1322 c 0,24,25
 765 1312 765 1312 771 1289.5 c 128,-1,26
 777 1267 777 1267 795 1218 c 2,27,-1
 1239 -3 l 1,28,29
 1219 -2 1219 -2 1192 -1.5 c 128,-1,30
 1165 -1 1165 -1 1140 -0.5 c 128,-1,31
 1115 0 1115 0 1095.5 0 c 128,-1,32
 1076 0 1076 0 1072 0 c 2,33,-1
 940 0 l 1,34,-1
 846 288 l 1,35,-1
 394 288 l 1,36,-1
 300 -8 l 1,37,38
 246 -3 246 -3 192.5 -1.5 c 128,-1,39
 139 0 139 0 99 0 c 2,40,-1
 20 0 l 1,41,-1
 455 1219 l 2,9,10
768 528 m 1,42,-1
 617 993 l 1,43,-1
 470 528 l 1,44,-1
 768 528 l 1,42,-1
EndSplineSet
EndChar

StartChar: Acircumflex
Encoding: 194 194 151
Width: 1259
Flags: W
LayerCount: 2
Fore
SplineSet
254 1445 m 1,0,-1
 496 1776 l 1,1,2
 504 1775 504 1775 519.5 1774.5 c 128,-1,3
 535 1774 535 1774 553 1773.5 c 128,-1,4
 571 1773 571 1773 587.5 1773 c 128,-1,5
 604 1773 604 1773 613 1773 c 0,6,7
 621 1773 621 1773 638.5 1773.5 c 128,-1,8
 656 1774 656 1774 675.5 1774.5 c 128,-1,9
 695 1775 695 1775 711.5 1775.5 c 128,-1,10
 728 1776 728 1776 734 1776 c 1,11,-1
 989 1445 l 1,12,-1
 985 1442 l 1,13,14
 970 1442 970 1442 942 1442.5 c 128,-1,15
 914 1443 914 1443 879 1443.5 c 128,-1,16
 844 1444 844 1444 805 1444.5 c 128,-1,17
 766 1445 766 1445 730 1445 c 1,18,-1
 617 1622 l 1,19,-1
 520 1445 l 1,20,21
 428 1445 428 1445 358.5 1444.5 c 128,-1,22
 289 1444 289 1444 257 1442 c 1,23,-1
 254 1445 l 1,0,-1
455 1219 m 2,24,25
 472 1267 472 1267 478 1289.5 c 128,-1,26
 484 1312 484 1312 484 1323 c 0,27,28
 484 1328 484 1328 483 1331 c 1,29,-1
 484 1333 l 1,30,31
 527 1331 527 1331 560 1330.5 c 128,-1,32
 593 1330 593 1330 622 1330 c 256,33,34
 651 1330 651 1330 687.5 1330.5 c 128,-1,35
 724 1331 724 1331 766 1332 c 1,36,-1
 767 1330 l 1,37,38
 765 1326 765 1326 765 1322 c 0,39,40
 765 1312 765 1312 771 1289.5 c 128,-1,41
 777 1267 777 1267 795 1218 c 2,42,-1
 1239 -3 l 1,43,44
 1219 -2 1219 -2 1192 -1.5 c 128,-1,45
 1165 -1 1165 -1 1140 -0.5 c 128,-1,46
 1115 0 1115 0 1095.5 0 c 128,-1,47
 1076 0 1076 0 1072 0 c 2,48,-1
 940 0 l 1,49,-1
 846 288 l 1,50,-1
 394 288 l 1,51,-1
 300 -8 l 1,52,53
 246 -3 246 -3 192.5 -1.5 c 128,-1,54
 139 0 139 0 99 0 c 2,55,-1
 20 0 l 1,56,-1
 455 1219 l 2,24,25
768 528 m 1,57,-1
 617 993 l 1,58,-1
 470 528 l 1,59,-1
 768 528 l 1,57,-1
EndSplineSet
EndChar

StartChar: Atilde
Encoding: 195 195 152
Width: 1259
Flags: W
LayerCount: 2
Fore
SplineSet
302 1471 m 1,0,-1
 298 1670 l 1,1,2
 325 1702 325 1702 370 1726 c 128,-1,3
 415 1750 415 1750 483 1750 c 0,4,5
 524 1750 524 1750 554 1742 c 128,-1,6
 584 1734 584 1734 608.5 1722 c 128,-1,7
 633 1710 633 1710 654 1695.5 c 128,-1,8
 675 1681 675 1681 698.5 1669 c 128,-1,9
 722 1657 722 1657 750.5 1649 c 128,-1,10
 779 1641 779 1641 817 1641 c 0,11,12
 873 1641 873 1641 913 1660.5 c 128,-1,13
 953 1680 953 1680 973 1725 c 1,14,-1
 975 1723 l 1,15,-1
 965 1507 l 1,16,17
 948 1477 948 1477 904 1457.5 c 128,-1,18
 860 1438 860 1438 803 1438 c 0,19,20
 764 1438 764 1438 734.5 1446 c 128,-1,21
 705 1454 705 1454 680 1466 c 128,-1,22
 655 1478 655 1478 633.5 1491.5 c 128,-1,23
 612 1505 612 1505 588 1517 c 128,-1,24
 564 1529 564 1529 536.5 1537 c 128,-1,25
 509 1545 509 1545 473 1545 c 0,26,27
 414 1545 414 1545 375.5 1523.5 c 128,-1,28
 337 1502 337 1502 306 1470 c 1,29,-1
 302 1471 l 1,0,-1
455 1219 m 2,30,31
 472 1267 472 1267 478 1289.5 c 128,-1,32
 484 1312 484 1312 484 1323 c 0,33,34
 484 1328 484 1328 483 1331 c 1,35,-1
 484 1333 l 1,36,37
 527 1331 527 1331 560 1330.5 c 128,-1,38
 593 1330 593 1330 622 1330 c 256,39,40
 651 1330 651 1330 687.5 1330.5 c 128,-1,41
 724 1331 724 1331 766 1332 c 1,42,-1
 767 1330 l 1,43,44
 765 1326 765 1326 765 1322 c 0,45,46
 765 1312 765 1312 771 1289.5 c 128,-1,47
 777 1267 777 1267 795 1218 c 2,48,-1
 1239 -3 l 1,49,50
 1219 -2 1219 -2 1192 -1.5 c 128,-1,51
 1165 -1 1165 -1 1140 -0.5 c 128,-1,52
 1115 0 1115 0 1095.5 0 c 128,-1,53
 1076 0 1076 0 1072 0 c 2,54,-1
 940 0 l 1,55,-1
 846 288 l 1,56,-1
 394 288 l 1,57,-1
 300 -8 l 1,58,59
 246 -3 246 -3 192.5 -1.5 c 128,-1,60
 139 0 139 0 99 0 c 2,61,-1
 20 0 l 1,62,-1
 455 1219 l 2,30,31
768 528 m 1,63,-1
 617 993 l 1,64,-1
 470 528 l 1,65,-1
 768 528 l 1,63,-1
EndSplineSet
EndChar

StartChar: Adieresis
Encoding: 196 196 153
Width: 1259
Flags: W
LayerCount: 2
Fore
SplineSet
724 1475 m 1,0,1
 728 1506 728 1506 730 1537.5 c 128,-1,2
 732 1569 732 1569 732 1601 c 0,3,4
 732 1630 732 1630 730 1663 c 128,-1,5
 728 1696 728 1696 726 1715 c 1,6,-1
 989 1715 l 1,7,8
 987 1690 987 1690 986 1653.5 c 128,-1,9
 985 1617 985 1617 985 1589 c 0,10,11
 985 1557 985 1557 985.5 1529 c 128,-1,12
 986 1501 986 1501 989 1475 c 1,13,-1
 724 1475 l 1,0,1
251 1475 m 1,14,15
 255 1506 255 1506 257 1537.5 c 128,-1,16
 259 1569 259 1569 259 1601 c 0,17,18
 259 1630 259 1630 257 1663 c 128,-1,19
 255 1696 255 1696 253 1715 c 1,20,-1
 516 1715 l 1,21,22
 514 1690 514 1690 513 1653.5 c 128,-1,23
 512 1617 512 1617 512 1589 c 0,24,25
 512 1557 512 1557 512.5 1529 c 128,-1,26
 513 1501 513 1501 516 1475 c 1,27,-1
 251 1475 l 1,14,15
455 1219 m 2,28,29
 472 1267 472 1267 478 1289.5 c 128,-1,30
 484 1312 484 1312 484 1323 c 0,31,32
 484 1328 484 1328 483 1331 c 1,33,-1
 484 1333 l 1,34,35
 527 1331 527 1331 560 1330.5 c 128,-1,36
 593 1330 593 1330 622 1330 c 256,37,38
 651 1330 651 1330 687.5 1330.5 c 128,-1,39
 724 1331 724 1331 766 1332 c 1,40,-1
 767 1330 l 1,41,42
 765 1326 765 1326 765 1322 c 0,43,44
 765 1312 765 1312 771 1289.5 c 128,-1,45
 777 1267 777 1267 795 1218 c 2,46,-1
 1239 -3 l 1,47,48
 1219 -2 1219 -2 1192 -1.5 c 128,-1,49
 1165 -1 1165 -1 1140 -0.5 c 128,-1,50
 1115 0 1115 0 1095.5 0 c 128,-1,51
 1076 0 1076 0 1072 0 c 2,52,-1
 940 0 l 1,53,-1
 846 288 l 1,54,-1
 394 288 l 1,55,-1
 300 -8 l 1,56,57
 246 -3 246 -3 192.5 -1.5 c 128,-1,58
 139 0 139 0 99 0 c 2,59,-1
 20 0 l 1,60,-1
 455 1219 l 2,28,29
768 528 m 1,61,-1
 617 993 l 1,62,-1
 470 528 l 1,63,-1
 768 528 l 1,61,-1
EndSplineSet
EndChar

StartChar: Aring
Encoding: 197 197 154
Width: 1259
Flags: W
LayerCount: 2
Fore
SplineSet
623 1435 m 0,0,1
 569 1435 569 1435 523 1449.5 c 128,-1,2
 477 1464 477 1464 444 1492 c 128,-1,3
 411 1520 411 1520 392.5 1559.5 c 128,-1,4
 374 1599 374 1599 374 1650 c 0,5,6
 374 1698 374 1698 391.5 1739 c 128,-1,7
 409 1780 409 1780 442.5 1810 c 128,-1,8
 476 1840 476 1840 525 1856.5 c 128,-1,9
 574 1873 574 1873 638 1873 c 0,10,11
 694 1873 694 1873 740 1856 c 128,-1,12
 786 1839 786 1839 819 1809.5 c 128,-1,13
 852 1780 852 1780 870 1740.5 c 128,-1,14
 888 1701 888 1701 888 1655 c 0,15,16
 888 1604 888 1604 868.5 1563 c 128,-1,17
 849 1522 849 1522 814 1493.5 c 128,-1,18
 779 1465 779 1465 730.5 1450 c 128,-1,19
 682 1435 682 1435 623 1435 c 0,0,1
632 1565 m 0,20,21
 653 1565 653 1565 672.5 1572 c 128,-1,22
 692 1579 692 1579 706.5 1591.5 c 128,-1,23
 721 1604 721 1604 729.5 1620.5 c 128,-1,24
 738 1637 738 1637 738 1656 c 0,25,26
 738 1672 738 1672 731.5 1688.5 c 128,-1,27
 725 1705 725 1705 711.5 1718 c 128,-1,28
 698 1731 698 1731 677 1739.5 c 128,-1,29
 656 1748 656 1748 628 1748 c 256,30,31
 600 1748 600 1748 579.5 1739.5 c 128,-1,32
 559 1731 559 1731 546 1718 c 128,-1,33
 533 1705 533 1705 526.5 1688 c 128,-1,34
 520 1671 520 1671 520 1655 c 0,35,36
 520 1620 520 1620 548 1592.5 c 128,-1,37
 576 1565 576 1565 632 1565 c 0,20,21
455 1219 m 2,38,39
 472 1267 472 1267 478 1289.5 c 128,-1,40
 484 1312 484 1312 484 1323 c 0,41,42
 484 1328 484 1328 483 1331 c 1,43,-1
 484 1333 l 1,44,45
 527 1331 527 1331 560 1330.5 c 128,-1,46
 593 1330 593 1330 622 1330 c 256,47,48
 651 1330 651 1330 687.5 1330.5 c 128,-1,49
 724 1331 724 1331 766 1332 c 1,50,-1
 767 1330 l 1,51,52
 765 1326 765 1326 765 1322 c 0,53,54
 765 1312 765 1312 771 1289.5 c 128,-1,55
 777 1267 777 1267 795 1218 c 2,56,-1
 1239 -3 l 1,57,58
 1219 -2 1219 -2 1192 -1.5 c 128,-1,59
 1165 -1 1165 -1 1140 -0.5 c 128,-1,60
 1115 0 1115 0 1095.5 0 c 128,-1,61
 1076 0 1076 0 1072 0 c 2,62,-1
 940 0 l 1,63,-1
 846 288 l 1,64,-1
 394 288 l 1,65,-1
 300 -8 l 1,66,67
 246 -3 246 -3 192.5 -1.5 c 128,-1,68
 139 0 139 0 99 0 c 2,69,-1
 20 0 l 1,70,-1
 455 1219 l 2,38,39
768 528 m 1,71,-1
 617 993 l 1,72,-1
 470 528 l 1,73,-1
 768 528 l 1,71,-1
EndSplineSet
EndChar

StartChar: AE
Encoding: 198 198 155
Width: 1707
Flags: W
LayerCount: 2
Fore
SplineSet
702 1219 m 2,0,1
 719 1248 719 1248 735.5 1274 c 128,-1,2
 752 1300 752 1300 752 1323 c 0,3,4
 752 1325 752 1325 750 1331 c 1,5,-1
 751 1333 l 1,6,7
 794 1331 794 1331 827 1330.5 c 128,-1,8
 860 1330 860 1330 889 1330 c 0,9,10
 989 1330 989 1330 1073.5 1330 c 128,-1,11
 1158 1330 1158 1330 1240.5 1330.5 c 128,-1,12
 1323 1331 1323 1331 1410.5 1332.5 c 128,-1,13
 1498 1334 1498 1334 1603 1338 c 1,14,15
 1600 1314 1600 1314 1598 1280 c 128,-1,16
 1596 1246 1596 1246 1594.5 1212 c 128,-1,17
 1593 1178 1593 1178 1592.5 1148.5 c 128,-1,18
 1592 1119 1592 1119 1592 1103 c 256,19,20
 1592 1087 1592 1087 1594 1079 c 1,21,-1
 1592 1076 l 1,22,23
 1578 1080 1578 1080 1565 1083 c 128,-1,24
 1552 1086 1552 1086 1535.5 1087.5 c 128,-1,25
 1519 1089 1519 1089 1497 1090 c 128,-1,26
 1475 1091 1475 1091 1444 1091 c 2,27,-1
 1113 1091 l 1,28,-1
 1113 836 l 1,29,-1
 1375 836 l 2,30,31
 1431 836 1431 836 1461.5 837 c 128,-1,32
 1492 838 1492 838 1507 842 c 1,33,-1
 1510 595 l 1,34,35
 1481 598 1481 598 1449.5 599 c 128,-1,36
 1418 600 1418 600 1386 600 c 2,37,-1
 1113 600 l 1,38,-1
 1113 240 l 1,39,-1
 1537 240 l 2,40,41
 1576 240 1576 240 1594.5 243.5 c 128,-1,42
 1613 247 1613 247 1623 252 c 1,43,-1
 1627 251 l 1,44,-1
 1617 0 l 1,45,-1
 858 0 l 1,46,-1
 860 288 l 1,47,-1
 453 288 l 1,48,-1
 294 -8 l 1,49,50
 267 -6 267 -6 237.5 -4.5 c 128,-1,51
 208 -3 208 -3 179.5 -2 c 128,-1,52
 151 -1 151 -1 125 -0.5 c 128,-1,53
 99 0 99 0 79 0 c 2,54,-1
 0 0 l 1,55,-1
 702 1219 l 2,0,1
862 528 m 1,56,-1
 866 1057 l 1,57,-1
 582 528 l 1,58,-1
 862 528 l 1,56,-1
EndSplineSet
EndChar

StartChar: Ccedilla
Encoding: 199 199 156
Width: 1304
Flags: W
LayerCount: 2
Fore
SplineSet
100 649 m 0,0,1
 100 756 100 756 126.5 849.5 c 128,-1,2
 153 943 153 943 201.5 1021.5 c 128,-1,3
 250 1100 250 1100 318 1162 c 128,-1,4
 386 1224 386 1224 469 1267 c 128,-1,5
 552 1310 552 1310 647.5 1332.5 c 128,-1,6
 743 1355 743 1355 847 1355 c 0,7,8
 954 1355 954 1355 1032 1338 c 128,-1,9
 1110 1321 1110 1321 1173 1290 c 1,10,-1
 1173 982 l 1,11,-1
 1171 980 l 1,12,13
 1152 1009 1152 1009 1118 1034 c 128,-1,14
 1084 1059 1084 1059 1040.5 1077 c 128,-1,15
 997 1095 997 1095 945.5 1105 c 128,-1,16
 894 1115 894 1115 841 1115 c 0,17,18
 732 1115 732 1115 642.5 1081.5 c 128,-1,19
 553 1048 553 1048 489 988 c 128,-1,20
 425 928 425 928 390 846 c 128,-1,21
 355 764 355 764 355 667 c 0,22,23
 355 540 355 540 397 453.5 c 128,-1,24
 439 367 439 367 504.5 314 c 128,-1,25
 570 261 570 261 649 238 c 128,-1,26
 728 215 728 215 802 215 c 0,27,28
 857 215 857 215 913.5 227.5 c 128,-1,29
 970 240 970 240 1022 264 c 128,-1,30
 1074 288 1074 288 1117.5 322 c 128,-1,31
 1161 356 1161 356 1191 399 c 1,32,-1
 1194 397 l 1,33,-1
 1194 112 l 1,34,35
 1135 63 1135 63 1058 29.5 c 128,-1,36
 981 -4 981 -4 887 -17 c 1,37,38
 892 -50 892 -50 893.5 -78.5 c 128,-1,39
 895 -107 895 -107 895 -138 c 0,40,41
 895 -235 895 -235 872.5 -290 c 128,-1,42
 850 -345 850 -345 821 -362 c 0,43,44
 810 -369 810 -369 795 -376.5 c 128,-1,45
 780 -384 780 -384 755.5 -393 c 128,-1,46
 731 -402 731 -402 695 -411.5 c 128,-1,47
 659 -421 659 -421 606 -432 c 1,48,-1
 600 -426 l 1,49,50
 618 -400 618 -400 631 -352 c 128,-1,51
 644 -304 644 -304 652.5 -247 c 128,-1,52
 661 -190 661 -190 665.5 -130 c 128,-1,53
 670 -70 670 -70 670 -19 c 1,54,55
 537 -3 537 -3 431 52.5 c 128,-1,56
 325 108 325 108 251.5 195.5 c 128,-1,57
 178 283 178 283 139 398.5 c 128,-1,58
 100 514 100 514 100 649 c 0,0,1
EndSplineSet
EndChar

StartChar: Egrave
Encoding: 200 200 157
Width: 1049
Flags: W
LayerCount: 2
Fore
SplineSet
229 1768 m 1,0,-1
 228 1775 l 1,1,2
 268 1771 268 1771 302 1768 c 128,-1,3
 336 1765 336 1765 372 1762.5 c 128,-1,4
 408 1760 408 1760 450 1759 c 128,-1,5
 492 1758 492 1758 548 1758 c 1,6,-1
 717 1445 l 1,7,-1
 491 1445 l 1,8,-1
 229 1768 l 1,0,-1
180 1337 m 1,9,10
 207 1335 207 1335 239.5 1334 c 128,-1,11
 272 1333 272 1333 306.5 1332 c 128,-1,12
 341 1331 341 1331 375.5 1330.5 c 128,-1,13
 410 1330 410 1330 442 1330 c 0,14,15
 537 1330 537 1330 661 1331.5 c 128,-1,16
 785 1333 785 1333 925 1338 c 1,17,18
 922 1314 922 1314 920 1280 c 128,-1,19
 918 1246 918 1246 916.5 1212 c 128,-1,20
 915 1178 915 1178 914.5 1148.5 c 128,-1,21
 914 1119 914 1119 914 1103 c 256,22,23
 914 1087 914 1087 916 1079 c 1,24,-1
 914 1076 l 1,25,26
 900 1080 900 1080 887 1083 c 128,-1,27
 874 1086 874 1086 857.5 1087.5 c 128,-1,28
 841 1089 841 1089 819 1090 c 128,-1,29
 797 1091 797 1091 766 1091 c 2,30,-1
 435 1091 l 1,31,-1
 435 836 l 1,32,-1
 727 836 l 2,33,34
 783 836 783 836 813.5 837 c 128,-1,35
 844 838 844 838 859 842 c 1,36,-1
 862 595 l 1,37,38
 833 598 833 598 801.5 599 c 128,-1,39
 770 600 770 600 738 600 c 2,40,-1
 435 600 l 1,41,-1
 435 240 l 1,42,-1
 859 240 l 2,43,44
 898 240 898 240 916.5 243.5 c 128,-1,45
 935 247 935 247 945 252 c 1,46,-1
 949 251 l 1,47,-1
 939 0 l 1,48,-1
 180 0 l 1,49,-1
 180 1337 l 1,9,10
EndSplineSet
EndChar

StartChar: Eacute
Encoding: 201 201 158
Width: 1049
Flags: W
LayerCount: 2
Fore
SplineSet
594 1758 m 1,0,1
 650 1758 650 1758 692 1759 c 128,-1,2
 734 1760 734 1760 770 1762.5 c 128,-1,3
 806 1765 806 1765 840 1768 c 128,-1,4
 874 1771 874 1771 914 1775 c 1,5,-1
 913 1768 l 1,6,-1
 651 1445 l 1,7,-1
 425 1445 l 1,8,-1
 594 1758 l 1,0,1
180 1337 m 1,9,10
 207 1335 207 1335 239.5 1334 c 128,-1,11
 272 1333 272 1333 306.5 1332 c 128,-1,12
 341 1331 341 1331 375.5 1330.5 c 128,-1,13
 410 1330 410 1330 442 1330 c 0,14,15
 537 1330 537 1330 661 1331.5 c 128,-1,16
 785 1333 785 1333 925 1338 c 1,17,18
 922 1314 922 1314 920 1280 c 128,-1,19
 918 1246 918 1246 916.5 1212 c 128,-1,20
 915 1178 915 1178 914.5 1148.5 c 128,-1,21
 914 1119 914 1119 914 1103 c 256,22,23
 914 1087 914 1087 916 1079 c 1,24,-1
 914 1076 l 1,25,26
 900 1080 900 1080 887 1083 c 128,-1,27
 874 1086 874 1086 857.5 1087.5 c 128,-1,28
 841 1089 841 1089 819 1090 c 128,-1,29
 797 1091 797 1091 766 1091 c 2,30,-1
 435 1091 l 1,31,-1
 435 836 l 1,32,-1
 727 836 l 2,33,34
 783 836 783 836 813.5 837 c 128,-1,35
 844 838 844 838 859 842 c 1,36,-1
 862 595 l 1,37,38
 833 598 833 598 801.5 599 c 128,-1,39
 770 600 770 600 738 600 c 2,40,-1
 435 600 l 1,41,-1
 435 240 l 1,42,-1
 859 240 l 2,43,44
 898 240 898 240 916.5 243.5 c 128,-1,45
 935 247 935 247 945 252 c 1,46,-1
 949 251 l 1,47,-1
 939 0 l 1,48,-1
 180 0 l 1,49,-1
 180 1337 l 1,9,10
EndSplineSet
EndChar

StartChar: Ecircumflex
Encoding: 202 202 159
Width: 1049
Flags: W
LayerCount: 2
Fore
SplineSet
189 1443 m 1,0,-1
 431 1774 l 1,1,2
 439 1773 439 1773 454.5 1772.5 c 128,-1,3
 470 1772 470 1772 488 1771.5 c 128,-1,4
 506 1771 506 1771 522.5 1771 c 128,-1,5
 539 1771 539 1771 548 1771 c 0,6,7
 556 1771 556 1771 573.5 1771.5 c 128,-1,8
 591 1772 591 1772 610.5 1772.5 c 128,-1,9
 630 1773 630 1773 646.5 1773.5 c 128,-1,10
 663 1774 663 1774 669 1774 c 1,11,-1
 924 1443 l 1,12,-1
 920 1440 l 1,13,14
 905 1440 905 1440 877 1440.5 c 128,-1,15
 849 1441 849 1441 814 1441.5 c 128,-1,16
 779 1442 779 1442 740 1442.5 c 128,-1,17
 701 1443 701 1443 665 1443 c 1,18,-1
 552 1620 l 1,19,-1
 455 1443 l 1,20,21
 363 1443 363 1443 293.5 1442.5 c 128,-1,22
 224 1442 224 1442 192 1440 c 1,23,-1
 189 1443 l 1,0,-1
180 1337 m 1,24,25
 207 1335 207 1335 239.5 1334 c 128,-1,26
 272 1333 272 1333 306.5 1332 c 128,-1,27
 341 1331 341 1331 375.5 1330.5 c 128,-1,28
 410 1330 410 1330 442 1330 c 0,29,30
 537 1330 537 1330 661 1331.5 c 128,-1,31
 785 1333 785 1333 925 1338 c 1,32,33
 922 1314 922 1314 920 1280 c 128,-1,34
 918 1246 918 1246 916.5 1212 c 128,-1,35
 915 1178 915 1178 914.5 1148.5 c 128,-1,36
 914 1119 914 1119 914 1103 c 256,37,38
 914 1087 914 1087 916 1079 c 1,39,-1
 914 1076 l 1,40,41
 900 1080 900 1080 887 1083 c 128,-1,42
 874 1086 874 1086 857.5 1087.5 c 128,-1,43
 841 1089 841 1089 819 1090 c 128,-1,44
 797 1091 797 1091 766 1091 c 2,45,-1
 435 1091 l 1,46,-1
 435 836 l 1,47,-1
 727 836 l 2,48,49
 783 836 783 836 813.5 837 c 128,-1,50
 844 838 844 838 859 842 c 1,51,-1
 862 595 l 1,52,53
 833 598 833 598 801.5 599 c 128,-1,54
 770 600 770 600 738 600 c 2,55,-1
 435 600 l 1,56,-1
 435 240 l 1,57,-1
 859 240 l 2,58,59
 898 240 898 240 916.5 243.5 c 128,-1,60
 935 247 935 247 945 252 c 1,61,-1
 949 251 l 1,62,-1
 939 0 l 1,63,-1
 180 0 l 1,64,-1
 180 1337 l 1,24,25
EndSplineSet
EndChar

StartChar: Edieresis
Encoding: 203 203 160
Width: 1049
Flags: W
LayerCount: 2
Fore
SplineSet
632 1475 m 1,0,1
 636 1506 636 1506 638 1537.5 c 128,-1,2
 640 1569 640 1569 640 1601 c 0,3,4
 640 1630 640 1630 638 1663 c 128,-1,5
 636 1696 636 1696 634 1715 c 1,6,-1
 897 1715 l 1,7,8
 895 1690 895 1690 894 1653.5 c 128,-1,9
 893 1617 893 1617 893 1589 c 0,10,11
 893 1557 893 1557 893.5 1529 c 128,-1,12
 894 1501 894 1501 897 1475 c 1,13,-1
 632 1475 l 1,0,1
202 1475 m 1,14,15
 206 1506 206 1506 208 1537.5 c 128,-1,16
 210 1569 210 1569 210 1601 c 0,17,18
 210 1630 210 1630 208 1663 c 128,-1,19
 206 1696 206 1696 204 1715 c 1,20,-1
 467 1715 l 1,21,22
 465 1690 465 1690 464 1653.5 c 128,-1,23
 463 1617 463 1617 463 1589 c 0,24,25
 463 1557 463 1557 463.5 1529 c 128,-1,26
 464 1501 464 1501 467 1475 c 1,27,-1
 202 1475 l 1,14,15
180 1337 m 1,28,29
 207 1335 207 1335 239.5 1334 c 128,-1,30
 272 1333 272 1333 306.5 1332 c 128,-1,31
 341 1331 341 1331 375.5 1330.5 c 128,-1,32
 410 1330 410 1330 442 1330 c 0,33,34
 537 1330 537 1330 661 1331.5 c 128,-1,35
 785 1333 785 1333 925 1338 c 1,36,37
 922 1314 922 1314 920 1280 c 128,-1,38
 918 1246 918 1246 916.5 1212 c 128,-1,39
 915 1178 915 1178 914.5 1148.5 c 128,-1,40
 914 1119 914 1119 914 1103 c 256,41,42
 914 1087 914 1087 916 1079 c 1,43,-1
 914 1076 l 1,44,45
 900 1080 900 1080 887 1083 c 128,-1,46
 874 1086 874 1086 857.5 1087.5 c 128,-1,47
 841 1089 841 1089 819 1090 c 128,-1,48
 797 1091 797 1091 766 1091 c 2,49,-1
 435 1091 l 1,50,-1
 435 836 l 1,51,-1
 727 836 l 2,52,53
 783 836 783 836 813.5 837 c 128,-1,54
 844 838 844 838 859 842 c 1,55,-1
 862 595 l 1,56,57
 833 598 833 598 801.5 599 c 128,-1,58
 770 600 770 600 738 600 c 2,59,-1
 435 600 l 1,60,-1
 435 240 l 1,61,-1
 859 240 l 2,62,63
 898 240 898 240 916.5 243.5 c 128,-1,64
 935 247 935 247 945 252 c 1,65,-1
 949 251 l 1,66,-1
 939 0 l 1,67,-1
 180 0 l 1,68,-1
 180 1337 l 1,28,29
EndSplineSet
EndChar

StartChar: Igrave
Encoding: 204 204 161
Width: 615
Flags: W
LayerCount: 2
Fore
SplineSet
-51 1768 m 1,0,-1
 -52 1775 l 1,1,2
 -12 1771 -12 1771 22 1768 c 128,-1,3
 56 1765 56 1765 92 1762.5 c 128,-1,4
 128 1760 128 1760 170 1759 c 128,-1,5
 212 1758 212 1758 268 1758 c 1,6,-1
 437 1445 l 1,7,-1
 211 1445 l 1,8,-1
 -51 1768 l 1,0,-1
180 1334 m 1,9,10
 205 1333 205 1333 221.5 1332 c 128,-1,11
 238 1331 238 1331 252.5 1330.5 c 128,-1,12
 267 1330 267 1330 282.5 1330 c 128,-1,13
 298 1330 298 1330 319 1330 c 0,14,15
 352 1330 352 1330 385.5 1332 c 128,-1,16
 419 1334 419 1334 435 1338 c 1,17,-1
 435 -6 l 1,18,19
 418 -4 418 -4 369 -2 c 128,-1,20
 320 0 320 0 260 0 c 2,21,-1
 180 0 l 1,22,-1
 180 1334 l 1,9,10
EndSplineSet
EndChar

StartChar: Iacute
Encoding: 205 205 162
Width: 615
Flags: W
LayerCount: 2
Fore
SplineSet
317 1758 m 1,0,1
 373 1758 373 1758 415 1759 c 128,-1,2
 457 1760 457 1760 493 1762.5 c 128,-1,3
 529 1765 529 1765 563 1768 c 128,-1,4
 597 1771 597 1771 637 1775 c 1,5,-1
 636 1768 l 1,6,-1
 374 1445 l 1,7,-1
 148 1445 l 1,8,-1
 317 1758 l 1,0,1
180 1334 m 1,9,10
 205 1333 205 1333 221.5 1332 c 128,-1,11
 238 1331 238 1331 252.5 1330.5 c 128,-1,12
 267 1330 267 1330 282.5 1330 c 128,-1,13
 298 1330 298 1330 319 1330 c 0,14,15
 352 1330 352 1330 385.5 1332 c 128,-1,16
 419 1334 419 1334 435 1338 c 1,17,-1
 435 -6 l 1,18,19
 418 -4 418 -4 369 -2 c 128,-1,20
 320 0 320 0 260 0 c 2,21,-1
 180 0 l 1,22,-1
 180 1334 l 1,9,10
EndSplineSet
EndChar

StartChar: Icircumflex
Encoding: 206 206 163
Width: 615
Flags: W
LayerCount: 2
Fore
SplineSet
-57 1443 m 1,0,-1
 185 1774 l 1,1,2
 193 1773 193 1773 208.5 1772.5 c 128,-1,3
 224 1772 224 1772 242 1771.5 c 128,-1,4
 260 1771 260 1771 276.5 1771 c 128,-1,5
 293 1771 293 1771 302 1771 c 0,6,7
 310 1771 310 1771 327.5 1771.5 c 128,-1,8
 345 1772 345 1772 364.5 1772.5 c 128,-1,9
 384 1773 384 1773 400.5 1773.5 c 128,-1,10
 417 1774 417 1774 423 1774 c 1,11,-1
 678 1443 l 1,12,-1
 674 1440 l 1,13,14
 659 1440 659 1440 631 1440.5 c 128,-1,15
 603 1441 603 1441 568 1441.5 c 128,-1,16
 533 1442 533 1442 494 1442.5 c 128,-1,17
 455 1443 455 1443 419 1443 c 1,18,-1
 306 1620 l 1,19,-1
 209 1443 l 1,20,21
 117 1443 117 1443 47.5 1442.5 c 128,-1,22
 -22 1442 -22 1442 -54 1440 c 1,23,-1
 -57 1443 l 1,0,-1
180 1334 m 1,24,25
 205 1333 205 1333 221.5 1332 c 128,-1,26
 238 1331 238 1331 252.5 1330.5 c 128,-1,27
 267 1330 267 1330 282.5 1330 c 128,-1,28
 298 1330 298 1330 319 1330 c 0,29,30
 352 1330 352 1330 385.5 1332 c 128,-1,31
 419 1334 419 1334 435 1338 c 1,32,-1
 435 -6 l 1,33,34
 418 -4 418 -4 369 -2 c 128,-1,35
 320 0 320 0 260 0 c 2,36,-1
 180 0 l 1,37,-1
 180 1334 l 1,24,25
EndSplineSet
EndChar

StartChar: Idieresis
Encoding: 207 207 164
Width: 615
Flags: W
LayerCount: 2
Fore
SplineSet
395 1475 m 1,0,1
 399 1506 399 1506 401 1537.5 c 128,-1,2
 403 1569 403 1569 403 1601 c 0,3,4
 403 1630 403 1630 401 1663 c 128,-1,5
 399 1696 399 1696 397 1715 c 1,6,-1
 660 1715 l 1,7,8
 658 1690 658 1690 657 1653.5 c 128,-1,9
 656 1617 656 1617 656 1589 c 0,10,11
 656 1557 656 1557 656.5 1529 c 128,-1,12
 657 1501 657 1501 660 1475 c 1,13,-1
 395 1475 l 1,0,1
-35 1475 m 1,14,15
 -31 1506 -31 1506 -29 1537.5 c 128,-1,16
 -27 1569 -27 1569 -27 1601 c 0,17,18
 -27 1630 -27 1630 -29 1663 c 128,-1,19
 -31 1696 -31 1696 -33 1715 c 1,20,-1
 230 1715 l 1,21,22
 228 1690 228 1690 227 1653.5 c 128,-1,23
 226 1617 226 1617 226 1589 c 0,24,25
 226 1557 226 1557 226.5 1529 c 128,-1,26
 227 1501 227 1501 230 1475 c 1,27,-1
 -35 1475 l 1,14,15
180 1334 m 1,28,29
 205 1333 205 1333 221.5 1332 c 128,-1,30
 238 1331 238 1331 252.5 1330.5 c 128,-1,31
 267 1330 267 1330 282.5 1330 c 128,-1,32
 298 1330 298 1330 319 1330 c 0,33,34
 352 1330 352 1330 385.5 1332 c 128,-1,35
 419 1334 419 1334 435 1338 c 1,36,-1
 435 -6 l 1,37,38
 418 -4 418 -4 369 -2 c 128,-1,39
 320 0 320 0 260 0 c 2,40,-1
 180 0 l 1,41,-1
 180 1334 l 1,28,29
EndSplineSet
EndChar

StartChar: Eth
Encoding: 208 208 165
Width: 1329
Flags: W
LayerCount: 2
Fore
SplineSet
209 548 m 1,0,-1
 70 548 l 1,1,-1
 70 784 l 1,2,-1
 209 784 l 1,3,-1
 209 1339 l 1,4,5
 276 1347 276 1347 343 1351 c 128,-1,6
 410 1355 410 1355 473 1355 c 0,7,8
 659 1355 659 1355 802 1305 c 128,-1,9
 945 1255 945 1255 1042 1165 c 128,-1,10
 1139 1075 1139 1075 1189 951 c 128,-1,11
 1239 827 1239 827 1239 679 c 0,12,13
 1239 507 1239 507 1180.5 375.5 c 128,-1,14
 1122 244 1122 244 1020.5 155 c 128,-1,15
 919 66 919 66 782.5 20.5 c 128,-1,16
 646 -25 646 -25 491 -25 c 0,17,18
 460 -25 460 -25 424.5 -23.5 c 128,-1,19
 389 -22 389 -22 352 -18.5 c 128,-1,20
 315 -15 315 -15 278.5 -10 c 128,-1,21
 242 -5 242 -5 209 1 c 1,22,-1
 209 548 l 1,0,-1
464 221 m 1,23,24
 509 215 509 215 557 215 c 0,25,26
 643 215 643 215 720.5 241 c 128,-1,27
 798 267 798 267 856 319 c 128,-1,28
 914 371 914 371 948 448.5 c 128,-1,29
 982 526 982 526 982 628 c 0,30,31
 982 740 982 740 948.5 830 c 128,-1,32
 915 920 915 920 852 983.5 c 128,-1,33
 789 1047 789 1047 699 1081 c 128,-1,34
 609 1115 609 1115 496 1115 c 0,35,36
 488 1115 488 1115 480 1115 c 128,-1,37
 472 1115 472 1115 464 1114 c 1,38,-1
 464 784 l 1,39,-1
 729 784 l 1,40,-1
 729 548 l 1,41,-1
 464 548 l 1,42,-1
 464 221 l 1,23,24
EndSplineSet
EndChar

StartChar: Ntilde
Encoding: 209 209 166
Width: 1276
Flags: W
LayerCount: 2
Fore
SplineSet
302 1471 m 1,0,-1
 298 1670 l 1,1,2
 325 1702 325 1702 370 1726 c 128,-1,3
 415 1750 415 1750 483 1750 c 0,4,5
 524 1750 524 1750 554 1742 c 128,-1,6
 584 1734 584 1734 608.5 1722 c 128,-1,7
 633 1710 633 1710 654 1695.5 c 128,-1,8
 675 1681 675 1681 698.5 1669 c 128,-1,9
 722 1657 722 1657 750.5 1649 c 128,-1,10
 779 1641 779 1641 817 1641 c 0,11,12
 873 1641 873 1641 913 1660.5 c 128,-1,13
 953 1680 953 1680 973 1725 c 1,14,-1
 975 1723 l 1,15,-1
 965 1507 l 1,16,17
 948 1477 948 1477 904 1457.5 c 128,-1,18
 860 1438 860 1438 803 1438 c 0,19,20
 764 1438 764 1438 734.5 1446 c 128,-1,21
 705 1454 705 1454 680 1466 c 128,-1,22
 655 1478 655 1478 633.5 1491.5 c 128,-1,23
 612 1505 612 1505 588 1517 c 128,-1,24
 564 1529 564 1529 536.5 1537 c 128,-1,25
 509 1545 509 1545 473 1545 c 0,26,27
 414 1545 414 1545 375.5 1523.5 c 128,-1,28
 337 1502 337 1502 306 1470 c 1,29,-1
 302 1471 l 1,0,-1
160 0 m 1,30,31
 163 17 163 17 164.5 33.5 c 128,-1,32
 166 50 166 50 166 74 c 2,33,-1
 166 1330 l 1,34,-1
 386 1330 l 1,35,36
 438 1232 438 1232 490.5 1138 c 128,-1,37
 543 1044 543 1044 600 947 c 128,-1,38
 657 850 657 850 720.5 747 c 128,-1,39
 784 644 784 644 856 528 c 1,40,-1
 856 1262 l 2,41,42
 856 1317 856 1317 846 1330 c 1,43,-1
 1116 1330 l 1,44,45
 1114 1314 1114 1314 1112.5 1292.5 c 128,-1,46
 1111 1271 1111 1271 1111 1242 c 2,47,-1
 1111 0 l 1,48,-1
 893 0 l 1,49,50
 838 85 838 85 793 153.5 c 128,-1,51
 748 222 748 222 710 281 c 128,-1,52
 672 340 672 340 637.5 394.5 c 128,-1,53
 603 449 603 449 569 505 c 128,-1,54
 535 561 535 561 499 623.5 c 128,-1,55
 463 686 463 686 421 762 c 1,56,-1
 421 0 l 1,57,-1
 160 0 l 1,30,31
EndSplineSet
EndChar

StartChar: Ograve
Encoding: 210 210 167
Width: 1565
Flags: W
LayerCount: 2
Fore
SplineSet
464 1768 m 1,0,-1
 463 1775 l 1,1,2
 503 1771 503 1771 537 1768 c 128,-1,3
 571 1765 571 1765 607 1762.5 c 128,-1,4
 643 1760 643 1760 685 1759 c 128,-1,5
 727 1758 727 1758 783 1758 c 1,6,-1
 952 1445 l 1,7,-1
 726 1445 l 1,8,-1
 464 1768 l 1,0,-1
100 637 m 0,9,10
 100 780 100 780 149.5 910 c 128,-1,11
 199 1040 199 1040 290.5 1139 c 128,-1,12
 382 1238 382 1238 511 1296.5 c 128,-1,13
 640 1355 640 1355 800 1355 c 0,14,15
 931 1355 931 1355 1051.5 1311 c 128,-1,16
 1172 1267 1172 1267 1264 1181 c 128,-1,17
 1356 1095 1356 1095 1410.5 969 c 128,-1,18
 1465 843 1465 843 1465 679 c 0,19,20
 1465 574 1465 574 1439.5 481 c 128,-1,21
 1414 388 1414 388 1367.5 310 c 128,-1,22
 1321 232 1321 232 1257 169.5 c 128,-1,23
 1193 107 1193 107 1116 64 c 128,-1,24
 1039 21 1039 21 952 -2 c 128,-1,25
 865 -25 865 -25 773 -25 c 0,26,27
 632 -25 632 -25 509.5 23 c 128,-1,28
 387 71 387 71 296 158 c 128,-1,29
 205 245 205 245 152.5 367 c 128,-1,30
 100 489 100 489 100 637 c 0,9,10
358 648 m 0,31,32
 358 555 358 555 392.5 475.5 c 128,-1,33
 427 396 427 396 486 338 c 128,-1,34
 545 280 545 280 625 247.5 c 128,-1,35
 705 215 705 215 796 215 c 0,36,37
 882 215 882 215 957.5 245.5 c 128,-1,38
 1033 276 1033 276 1088.5 333.5 c 128,-1,39
 1144 391 1144 391 1176 473 c 128,-1,40
 1208 555 1208 555 1208 657 c 0,41,42
 1208 747 1208 747 1179 829 c 128,-1,43
 1150 911 1150 911 1094.5 973.5 c 128,-1,44
 1039 1036 1039 1036 959.5 1073 c 128,-1,45
 880 1110 880 1110 780 1110 c 0,46,47
 682 1110 682 1110 604 1072.5 c 128,-1,48
 526 1035 526 1035 471 971.5 c 128,-1,49
 416 908 416 908 387 824 c 128,-1,50
 358 740 358 740 358 648 c 0,31,32
EndSplineSet
EndChar

StartChar: Oacute
Encoding: 211 211 168
Width: 1565
Flags: W
LayerCount: 2
Fore
SplineSet
772 1758 m 1,0,1
 828 1758 828 1758 870 1759 c 128,-1,2
 912 1760 912 1760 948 1762.5 c 128,-1,3
 984 1765 984 1765 1018 1768 c 128,-1,4
 1052 1771 1052 1771 1092 1775 c 1,5,-1
 1091 1768 l 1,6,-1
 829 1445 l 1,7,-1
 603 1445 l 1,8,-1
 772 1758 l 1,0,1
100 637 m 0,9,10
 100 780 100 780 149.5 910 c 128,-1,11
 199 1040 199 1040 290.5 1139 c 128,-1,12
 382 1238 382 1238 511 1296.5 c 128,-1,13
 640 1355 640 1355 800 1355 c 0,14,15
 931 1355 931 1355 1051.5 1311 c 128,-1,16
 1172 1267 1172 1267 1264 1181 c 128,-1,17
 1356 1095 1356 1095 1410.5 969 c 128,-1,18
 1465 843 1465 843 1465 679 c 0,19,20
 1465 574 1465 574 1439.5 481 c 128,-1,21
 1414 388 1414 388 1367.5 310 c 128,-1,22
 1321 232 1321 232 1257 169.5 c 128,-1,23
 1193 107 1193 107 1116 64 c 128,-1,24
 1039 21 1039 21 952 -2 c 128,-1,25
 865 -25 865 -25 773 -25 c 0,26,27
 632 -25 632 -25 509.5 23 c 128,-1,28
 387 71 387 71 296 158 c 128,-1,29
 205 245 205 245 152.5 367 c 128,-1,30
 100 489 100 489 100 637 c 0,9,10
358 648 m 0,31,32
 358 555 358 555 392.5 475.5 c 128,-1,33
 427 396 427 396 486 338 c 128,-1,34
 545 280 545 280 625 247.5 c 128,-1,35
 705 215 705 215 796 215 c 0,36,37
 882 215 882 215 957.5 245.5 c 128,-1,38
 1033 276 1033 276 1088.5 333.5 c 128,-1,39
 1144 391 1144 391 1176 473 c 128,-1,40
 1208 555 1208 555 1208 657 c 0,41,42
 1208 747 1208 747 1179 829 c 128,-1,43
 1150 911 1150 911 1094.5 973.5 c 128,-1,44
 1039 1036 1039 1036 959.5 1073 c 128,-1,45
 880 1110 880 1110 780 1110 c 0,46,47
 682 1110 682 1110 604 1072.5 c 128,-1,48
 526 1035 526 1035 471 971.5 c 128,-1,49
 416 908 416 908 387 824 c 128,-1,50
 358 740 358 740 358 648 c 0,31,32
EndSplineSet
EndChar

StartChar: Ocircumflex
Encoding: 212 212 169
Width: 1565
Flags: W
LayerCount: 2
Fore
SplineSet
377 1443 m 1,0,-1
 649 1774 l 1,1,2
 657 1773 657 1773 672.5 1772.5 c 128,-1,3
 688 1772 688 1772 706 1771.5 c 128,-1,4
 724 1771 724 1771 740.5 1771 c 128,-1,5
 757 1771 757 1771 766 1771 c 0,6,7
 774 1771 774 1771 791.5 1771.5 c 128,-1,8
 809 1772 809 1772 828.5 1772.5 c 128,-1,9
 848 1773 848 1773 864.5 1773.5 c 128,-1,10
 881 1774 881 1774 887 1774 c 1,11,-1
 1172 1443 l 1,12,-1
 1168 1440 l 1,13,14
 1153 1440 1153 1440 1125 1440.5 c 128,-1,15
 1097 1441 1097 1441 1062 1441.5 c 128,-1,16
 1027 1442 1027 1442 988 1442.5 c 128,-1,17
 949 1443 949 1443 913 1443 c 1,18,-1
 771 1626 l 1,19,-1
 643 1443 l 1,20,21
 551 1443 551 1443 481.5 1442.5 c 128,-1,22
 412 1442 412 1442 380 1440 c 1,23,-1
 377 1443 l 1,0,-1
100 637 m 0,24,25
 100 780 100 780 149.5 910 c 128,-1,26
 199 1040 199 1040 290.5 1139 c 128,-1,27
 382 1238 382 1238 511 1296.5 c 128,-1,28
 640 1355 640 1355 800 1355 c 0,29,30
 931 1355 931 1355 1051.5 1311 c 128,-1,31
 1172 1267 1172 1267 1264 1181 c 128,-1,32
 1356 1095 1356 1095 1410.5 969 c 128,-1,33
 1465 843 1465 843 1465 679 c 0,34,35
 1465 574 1465 574 1439.5 481 c 128,-1,36
 1414 388 1414 388 1367.5 310 c 128,-1,37
 1321 232 1321 232 1257 169.5 c 128,-1,38
 1193 107 1193 107 1116 64 c 128,-1,39
 1039 21 1039 21 952 -2 c 128,-1,40
 865 -25 865 -25 773 -25 c 0,41,42
 632 -25 632 -25 509.5 23 c 128,-1,43
 387 71 387 71 296 158 c 128,-1,44
 205 245 205 245 152.5 367 c 128,-1,45
 100 489 100 489 100 637 c 0,24,25
358 648 m 0,46,47
 358 555 358 555 392.5 475.5 c 128,-1,48
 427 396 427 396 486 338 c 128,-1,49
 545 280 545 280 625 247.5 c 128,-1,50
 705 215 705 215 796 215 c 0,51,52
 882 215 882 215 957.5 245.5 c 128,-1,53
 1033 276 1033 276 1088.5 333.5 c 128,-1,54
 1144 391 1144 391 1176 473 c 128,-1,55
 1208 555 1208 555 1208 657 c 0,56,57
 1208 747 1208 747 1179 829 c 128,-1,58
 1150 911 1150 911 1094.5 973.5 c 128,-1,59
 1039 1036 1039 1036 959.5 1073 c 128,-1,60
 880 1110 880 1110 780 1110 c 0,61,62
 682 1110 682 1110 604 1072.5 c 128,-1,63
 526 1035 526 1035 471 971.5 c 128,-1,64
 416 908 416 908 387 824 c 128,-1,65
 358 740 358 740 358 648 c 0,46,47
EndSplineSet
EndChar

StartChar: Otilde
Encoding: 213 213 170
Width: 1565
Flags: W
LayerCount: 2
Fore
SplineSet
414 1660 m 1,0,1
 443 1692 443 1692 492.5 1716 c 128,-1,2
 542 1740 542 1740 616 1740 c 0,3,4
 660 1740 660 1740 693 1732 c 128,-1,5
 726 1724 726 1724 752.5 1712 c 128,-1,6
 779 1700 779 1700 802 1685.5 c 128,-1,7
 825 1671 825 1671 851 1659 c 128,-1,8
 877 1647 877 1647 907.5 1639 c 128,-1,9
 938 1631 938 1631 980 1631 c 0,10,11
 1040 1631 1040 1631 1083.5 1650.5 c 128,-1,12
 1127 1670 1127 1670 1150 1715 c 1,13,-1
 1152 1713 l 1,14,-1
 1141 1497 l 1,15,16
 1122 1467 1122 1467 1074.5 1447.5 c 128,-1,17
 1027 1428 1027 1428 964 1428 c 0,18,19
 921 1428 921 1428 889 1436 c 128,-1,20
 857 1444 857 1444 830 1456 c 128,-1,21
 803 1468 803 1468 779.5 1481.5 c 128,-1,22
 756 1495 756 1495 730 1507 c 128,-1,23
 704 1519 704 1519 674 1527 c 128,-1,24
 644 1535 644 1535 605 1535 c 0,25,26
 541 1535 541 1535 498.5 1513.5 c 128,-1,27
 456 1492 456 1492 423 1460 c 1,28,-1
 418 1461 l 1,29,-1
 414 1660 l 1,0,1
100 637 m 0,30,31
 100 780 100 780 149.5 910 c 128,-1,32
 199 1040 199 1040 290.5 1139 c 128,-1,33
 382 1238 382 1238 511 1296.5 c 128,-1,34
 640 1355 640 1355 800 1355 c 0,35,36
 931 1355 931 1355 1051.5 1311 c 128,-1,37
 1172 1267 1172 1267 1264 1181 c 128,-1,38
 1356 1095 1356 1095 1410.5 969 c 128,-1,39
 1465 843 1465 843 1465 679 c 0,40,41
 1465 574 1465 574 1439.5 481 c 128,-1,42
 1414 388 1414 388 1367.5 310 c 128,-1,43
 1321 232 1321 232 1257 169.5 c 128,-1,44
 1193 107 1193 107 1116 64 c 128,-1,45
 1039 21 1039 21 952 -2 c 128,-1,46
 865 -25 865 -25 773 -25 c 0,47,48
 632 -25 632 -25 509.5 23 c 128,-1,49
 387 71 387 71 296 158 c 128,-1,50
 205 245 205 245 152.5 367 c 128,-1,51
 100 489 100 489 100 637 c 0,30,31
358 648 m 0,52,53
 358 555 358 555 392.5 475.5 c 128,-1,54
 427 396 427 396 486 338 c 128,-1,55
 545 280 545 280 625 247.5 c 128,-1,56
 705 215 705 215 796 215 c 0,57,58
 882 215 882 215 957.5 245.5 c 128,-1,59
 1033 276 1033 276 1088.5 333.5 c 128,-1,60
 1144 391 1144 391 1176 473 c 128,-1,61
 1208 555 1208 555 1208 657 c 0,62,63
 1208 747 1208 747 1179 829 c 128,-1,64
 1150 911 1150 911 1094.5 973.5 c 128,-1,65
 1039 1036 1039 1036 959.5 1073 c 128,-1,66
 880 1110 880 1110 780 1110 c 0,67,68
 682 1110 682 1110 604 1072.5 c 128,-1,69
 526 1035 526 1035 471 971.5 c 128,-1,70
 416 908 416 908 387 824 c 128,-1,71
 358 740 358 740 358 648 c 0,52,53
EndSplineSet
EndChar

StartChar: Odieresis
Encoding: 214 214 171
Width: 1565
Flags: W
LayerCount: 2
Fore
SplineSet
910 1475 m 1,0,1
 914 1506 914 1506 916 1537.5 c 128,-1,2
 918 1569 918 1569 918 1601 c 0,3,4
 918 1630 918 1630 916 1663 c 128,-1,5
 914 1696 914 1696 912 1715 c 1,6,-1
 1175 1715 l 1,7,8
 1173 1690 1173 1690 1172 1653.5 c 128,-1,9
 1171 1617 1171 1617 1171 1589 c 0,10,11
 1171 1557 1171 1557 1171.5 1529 c 128,-1,12
 1172 1501 1172 1501 1175 1475 c 1,13,-1
 910 1475 l 1,0,1
400 1475 m 1,14,15
 404 1506 404 1506 406 1537.5 c 128,-1,16
 408 1569 408 1569 408 1601 c 0,17,18
 408 1630 408 1630 406 1663 c 128,-1,19
 404 1696 404 1696 402 1715 c 1,20,-1
 665 1715 l 1,21,22
 663 1690 663 1690 662 1653.5 c 128,-1,23
 661 1617 661 1617 661 1589 c 0,24,25
 661 1557 661 1557 661.5 1529 c 128,-1,26
 662 1501 662 1501 665 1475 c 1,27,-1
 400 1475 l 1,14,15
100 637 m 0,28,29
 100 780 100 780 149.5 910 c 128,-1,30
 199 1040 199 1040 290.5 1139 c 128,-1,31
 382 1238 382 1238 511 1296.5 c 128,-1,32
 640 1355 640 1355 800 1355 c 0,33,34
 931 1355 931 1355 1051.5 1311 c 128,-1,35
 1172 1267 1172 1267 1264 1181 c 128,-1,36
 1356 1095 1356 1095 1410.5 969 c 128,-1,37
 1465 843 1465 843 1465 679 c 0,38,39
 1465 574 1465 574 1439.5 481 c 128,-1,40
 1414 388 1414 388 1367.5 310 c 128,-1,41
 1321 232 1321 232 1257 169.5 c 128,-1,42
 1193 107 1193 107 1116 64 c 128,-1,43
 1039 21 1039 21 952 -2 c 128,-1,44
 865 -25 865 -25 773 -25 c 0,45,46
 632 -25 632 -25 509.5 23 c 128,-1,47
 387 71 387 71 296 158 c 128,-1,48
 205 245 205 245 152.5 367 c 128,-1,49
 100 489 100 489 100 637 c 0,28,29
358 648 m 0,50,51
 358 555 358 555 392.5 475.5 c 128,-1,52
 427 396 427 396 486 338 c 128,-1,53
 545 280 545 280 625 247.5 c 128,-1,54
 705 215 705 215 796 215 c 0,55,56
 882 215 882 215 957.5 245.5 c 128,-1,57
 1033 276 1033 276 1088.5 333.5 c 128,-1,58
 1144 391 1144 391 1176 473 c 128,-1,59
 1208 555 1208 555 1208 657 c 0,60,61
 1208 747 1208 747 1179 829 c 128,-1,62
 1150 911 1150 911 1094.5 973.5 c 128,-1,63
 1039 1036 1039 1036 959.5 1073 c 128,-1,64
 880 1110 880 1110 780 1110 c 0,65,66
 682 1110 682 1110 604 1072.5 c 128,-1,67
 526 1035 526 1035 471 971.5 c 128,-1,68
 416 908 416 908 387 824 c 128,-1,69
 358 740 358 740 358 648 c 0,50,51
EndSplineSet
EndChar

StartChar: multiply
Encoding: 215 215 172
Width: 1239
Flags: W
LayerCount: 2
Fore
SplineSet
208 384 m 1,0,1
 222 392 222 392 244 412.5 c 128,-1,2
 266 433 266 433 305 473 c 2,3,-1
 447 615 l 1,4,-1
 312 751 l 2,5,6
 273 791 273 791 251 811.5 c 128,-1,7
 229 832 229 832 215 840 c 1,8,-1
 387 1017 l 1,9,10
 425 972 425 972 472 926 c 2,11,-1
 615 783 l 1,12,-1
 757 925 l 2,13,14
 797 964 797 964 817.5 986 c 128,-1,15
 838 1008 838 1008 846 1022 c 1,16,-1
 1023 850 l 1,17,18
 978 812 978 812 932 765 c 2,19,-1
 782 615 l 1,20,-1
 939 459 l 2,21,22
 985 412 985 412 1030 374 c 1,23,-1
 853 202 l 1,24,25
 845 216 845 216 824.5 238 c 128,-1,26
 804 260 804 260 764 299 c 2,27,-1
 615 448 l 1,28,-1
 465 298 l 2,29,30
 418 252 418 252 380 207 c 1,31,-1
 208 384 l 1,0,1
EndSplineSet
EndChar

StartChar: Oslash
Encoding: 216 216 173
Width: 1565
Flags: W
LayerCount: 2
Fore
SplineSet
387 86 m 1,0,1
 322 129 322 129 269 186 c 128,-1,2
 216 243 216 243 178.5 313 c 128,-1,3
 141 383 141 383 120.5 464.5 c 128,-1,4
 100 546 100 546 100 637 c 0,5,6
 100 780 100 780 149.5 910 c 128,-1,7
 199 1040 199 1040 290.5 1139 c 128,-1,8
 382 1238 382 1238 511 1296.5 c 128,-1,9
 640 1355 640 1355 800 1355 c 0,10,11
 916 1355 916 1355 1024 1320 c 1,12,-1
 1081 1430 l 1,13,-1
 1277 1430 l 1,14,-1
 1181 1245 l 1,15,16
 1244 1204 1244 1204 1296.5 1147.5 c 128,-1,17
 1349 1091 1349 1091 1386.5 1020 c 128,-1,18
 1424 949 1424 949 1444.5 863.5 c 128,-1,19
 1465 778 1465 778 1465 679 c 0,20,21
 1465 574 1465 574 1439.5 481 c 128,-1,22
 1414 388 1414 388 1367.5 310 c 128,-1,23
 1321 232 1321 232 1257 169.5 c 128,-1,24
 1193 107 1193 107 1116 64 c 128,-1,25
 1039 21 1039 21 952 -2 c 128,-1,26
 865 -25 865 -25 773 -25 c 0,27,28
 652 -25 652 -25 544 10 c 1,29,-1
 487 -100 l 1,30,-1
 291 -100 l 1,31,-1
 387 86 l 1,0,1
906 1092 m 1,32,33
 847 1110 847 1110 780 1110 c 0,34,35
 682 1110 682 1110 604 1072.5 c 128,-1,36
 526 1035 526 1035 471 971.5 c 128,-1,37
 416 908 416 908 387 824 c 128,-1,38
 358 740 358 740 358 648 c 0,39,40
 358 546 358 546 398 462 c 128,-1,41
 438 378 438 378 507 319 c 1,42,-1
 906 1092 l 1,32,33
660 235 m 1,43,44
 725 215 725 215 796 215 c 0,45,46
 882 215 882 215 957.5 245.5 c 128,-1,47
 1033 276 1033 276 1088.5 333.5 c 128,-1,48
 1144 391 1144 391 1176 473 c 128,-1,49
 1208 555 1208 555 1208 657 c 0,50,51
 1208 760 1208 760 1169.5 852 c 128,-1,52
 1131 944 1131 944 1059 1008 c 1,53,-1
 660 235 l 1,43,44
EndSplineSet
EndChar

